<?xml version="1.0" encoding="UTF-8" standalone="no"?>
<!-- Created with Inkscape (http://www.inkscape.org/) -->

<svg
   width="16"
   height="16"
   viewBox="0 0 16 16"
   version="1.1"
   id="svg5"
   inkscape:version="1.1.1 (3bf5ae0d25, 2021-09-20)"
   sodipodi:docname="cambiarContrasenha.svg"
   xmlns:inkscape="http://www.inkscape.org/namespaces/inkscape"
   xmlns:sodipodi="http://sodipodi.sourceforge.net/DTD/sodipodi-0.dtd"
   xmlns="http://www.w3.org/2000/svg"
   xmlns:svg="http://www.w3.org/2000/svg">
  <sodipodi:namedview
     id="namedview7"
     pagecolor="#505050"
     bordercolor="#ffffff"
     borderopacity="1"
     inkscape:pageshadow="0"
     inkscape:pageopacity="0"
     inkscape:pagecheckerboard="1"
     inkscape:document-units="px"
     showgrid="false"
     inkscape:zoom="22.627417"
     inkscape:cx="7.6676891"
     inkscape:cy="8.4189901"
     inkscape:window-width="1366"
     inkscape:window-height="715"
     inkscape:window-x="-8"
     inkscape:window-y="183"
     inkscape:window-maximized="1"
     inkscape:current-layer="layer1" />
  <defs
     id="defs2" />
  <g
     inkscape:label="Capa 1"
     inkscape:groupmode="layer"
     id="layer1"
     style="display:inline">
    <path
       style="display:inline;fill:#ffffff;stroke:#050505;stroke-width:0.2;stroke-miterlimit:4;stroke-dasharray:none;stroke-opacity:1"
       d="M 8.3286507,15.32747 7.7392098,14.737417 v -0.09077 -0.09077 L 8.3451143,13.949942 8.951019,13.344008 h 0.084789 0.08479 l 0.075196,0.0752 0.075197,0.0752 v 0.100463 0.100464 l -0.3288105,0.329849 -0.3288104,0.329849 0.060748,-1.22e-4 c 0.033413,-6.1e-5 0.1848231,-0.02042 0.3364695,-0.04521 2.6942794,-0.440612 4.8277944,-2.629935 5.2060794,-5.3422561 l 0.04793,-0.3436545 V 8.1050542 7.5863297 L 14.21643,7.2409236 C 13.896573,4.9475826 12.397245,3.0688471 10.203887,2.2130078 L 9.8694089,2.0824963 9.8258918,2.0049618 9.7823752,1.9274271 9.8024496,1.8474403 C 9.827372,1.7481351 9.8964366,1.6769182 9.9907829,1.6532377 l 0.072159,-0.018111 0.316301,0.1159978 c 2.320876,0.8511345 4.012119,3.0006 4.348547,5.526728 l 0.03876,0.2910527 -0.0024,0.5667869 -0.0024,0.5667867 -0.0517,0.3370085 c -0.397977,2.5944777 -2.165054,4.7061417 -4.611958,5.5112867 -0.3976139,0.130833 -1.1182157,0.292116 -1.3251916,0.296602 -0.054651,0.0012 -0.1235241,0.01172 -0.1530509,0.02341 l -0.053685,0.02124 0.3523831,0.3514 0.3523828,0.351401 v 0.110641 0.110641 l -0.056025,0.0507 -0.056025,0.0507 H 9.0385167 8.918092 Z M 5.4874919,14.420387 C 3.1879573,13.492526 1.6128863,11.488914 1.2562775,9.037955 L 1.2030087,8.6718411 1.2035411,8.1050542 1.2040736,7.5382674 1.2551508,7.1841518 C 1.6863031,4.1949936 4.0489016,1.7967304 6.9580016,1.3952137 7.0927983,1.3766088 7.250088,1.3542436 7.3075344,1.3455137 L 7.411982,1.3296407 7.0547904,0.97149835 6.6975988,0.61335609 V 0.50115067 0.38894523 l 0.080547,-0.0633613 0.080547,-0.0633613 0.1628059,-6.391e-5 L 7.6254392,0.86888335 8.22938,1.475608 V 1.564922 1.654236 L 7.6234751,2.2601711 7.0175706,2.8661054 h -0.079265 c -0.043596,0 -0.1155897,-0.028573 -0.159986,-0.063498 L 6.697599,2.7391093 V 2.6269443 2.514779 L 7.0269317,2.1814604 7.3562645,1.8481418 7.1877687,1.8684618 C 4.432228,2.2007723 2.138888,4.46811 1.751922,7.2426757 l -0.047928,0.343654 5.612e-4,0.5274371 5.613e-4,0.5274372 0.044869,0.3156724 c 0.33369,2.3476086 1.8702073,4.2429356 4.1159848,5.0771616 l 0.2253002,0.08369 0.04256,0.101866 0.04256,0.101867 -0.028501,0.07498 c -0.079259,0.208477 -0.1928914,0.212599 -0.6603982,0.02396 z"
       id="path2751"
       sodipodi:nodetypes="ccccccccccccccccscccsscccsscssccccscsccccccccccsscccsssccccccccccccccsscccccsscccsscccsss" />
  </g>
  <g
     inkscape:groupmode="layer"
     id="layer2"
     inkscape:label="Capa 2">
    <path
       d="m 4.2314315,11.991151 c -0.0337,-0.02018 -0.079169,-0.05837 -0.1010462,-0.08487 l -0.039776,-0.04817 0.017786,-0.566786 c 0.00978,-0.311733 0.025956,-0.64553 0.03594,-0.741772 L 4.1624899,10.374559 5.6843435,8.8352932 7.2061969,7.2960285 7.1615881,7.1414136 7.1169793,6.9867991 7.1151779,6.603835 7.1133766,6.2208708 7.1815279,5.9819263 C 7.4898162,4.9010387 8.3958133,4.214139 9.5131779,4.214139 H 9.8126307 L 10.054957,4.27511 c 0.13328,0.033535 0.373294,0.1253784 0.533365,0.2040984 l 0.291039,0.1431271 0.29236,0.2937552 0.292357,0.293755 0.126032,0.245097 c 0.06932,0.1348033 0.158331,0.3484973 0.197812,0.4748755 l 0.07177,0.2297784 v 0.4442385 0.4442383 l -0.07174,0.2297785 c -0.24943,0.7988563 -0.865799,1.3977874 -1.676219,1.6287965 L 9.8683795,8.9760157 9.4854343,8.9738325 9.102489,8.971659 8.9493109,8.9269228 8.7961328,8.8821867 8.4131875,9.2558582 8.0302423,9.6295298 7.7545219,9.6670322 c -0.1516406,0.020626 -0.3237336,0.046983 -0.3824232,0.05857 L 7.2653901,9.7466712 7.1693871,10.14369 c -0.141437,0.584914 -0.097762,0.541173 -0.6709204,0.671935 -0.4486614,0.102359 -0.394106,0.04439 -0.5375454,0.571107 l -0.1200266,0.440734 -0.07392,0.0647 -0.07392,0.0647 -0.5163636,0.0203 c -0.2839999,0.01115 -0.5990796,0.02713 -0.7001772,0.03549 l -0.1838137,0.0152 z M 10.174742,7.584796 C 10.141043,7.5703971 9.7523563,7.1955831 9.3109951,6.7518763 L 8.5085198,5.9451367 8.4908232,5.8685439 8.4731265,5.7919511 8.5313728,5.6977144 C 8.6497412,5.5062069 9.0442443,5.307928 9.3816936,5.2703399 l 0.1803355,-0.020088 0.2115004,0.049382 C 10.307447,5.4242942 10.679611,5.80291 10.791232,6.3349742 l 0.04676,0.2229051 -0.02071,0.1679656 c -0.04058,0.3292495 -0.239572,0.7177703 -0.425773,0.8313206 -0.103714,0.063248 -0.126591,0.066164 -0.216774,0.027631 z"
       style="display:inline;fill:#b1b100;fill-opacity:1;stroke:#050505;stroke-width:0.2;stroke-miterlimit:4;stroke-dasharray:none;stroke-opacity:1"
       id="path5973"
       sodipodi:nodetypes="cccsscccccccsscssccccsccccscccccccsscssscccsscccscccsscssccscc" />
  </g>
  <g
     inkscape:groupmode="layer"
     id="layer3"
     inkscape:label="Capa 3">
    <path
       d="M 10.174742,7.5847961 C 10.141043,7.5703972 9.7523563,7.1955832 9.3109951,6.7518764 L 8.5085198,5.9451367 8.4908232,5.8685439 8.4731265,5.7919511 8.5313728,5.6977144 C 8.6497412,5.5062069 9.0442443,5.307928 9.3816936,5.2703399 l 0.1803355,-0.020088 0.2115004,0.049382 C 10.307447,5.4242942 10.679611,5.80291 10.791232,6.3349743 l 0.04676,0.2229051 -0.02071,0.1679656 c -0.04058,0.3292495 -0.239572,0.7177703 -0.425773,0.8313206 -0.103714,0.063248 -0.126591,0.066164 -0.216774,0.027631 z"
       style="display:inline;fill:#ffffff;stroke:#050505;stroke-width:0.2;stroke-miterlimit:4;stroke-dasharray:none;stroke-opacity:1"
       id="path6531" />
  </g>
</svg>
