<?xml version="1.0" encoding="UTF-8" standalone="no"?>
<!-- Created with Inkscape (http://www.inkscape.org/) -->

<svg
   width="16"
   height="16"
   viewBox="0 0 16 16"
   version="1.1"
   id="svg5"
   inkscape:version="1.1.1 (3bf5ae0d25, 2021-09-20)"
   sodipodi:docname="error.svg"
   inkscape:export-filename="G:\Mi unidad\IU ET1\iconos\cerrados\traducir.png"
   inkscape:export-xdpi="768"
   inkscape:export-ydpi="768"
   xmlns:inkscape="http://www.inkscape.org/namespaces/inkscape"
   xmlns:sodipodi="http://sodipodi.sourceforge.net/DTD/sodipodi-0.dtd"
   xmlns="http://www.w3.org/2000/svg"
   xmlns:svg="http://www.w3.org/2000/svg">
  <sodipodi:namedview
     id="namedview7"
     pagecolor="#ff4aff"
     bordercolor="#ffffff"
     borderopacity="1"
     inkscape:pageshadow="0"
     inkscape:pageopacity="0"
     inkscape:pagecheckerboard="true"
     inkscape:document-units="px"
     showgrid="false"
     inkscape:zoom="32"
     inkscape:cx="9.453125"
     inkscape:cy="8.546875"
     inkscape:window-width="1366"
     inkscape:window-height="715"
     inkscape:window-x="-8"
     inkscape:window-y="183"
     inkscape:window-maximized="1"
     inkscape:current-layer="svg5"
     inkscape:snap-global="false" />
  <defs
     id="defs2" />
  <path
     style="fill:#a30000;fill-opacity:1;stroke-width:0.999998"
     d="M 6.0265057,15.713965 C 4.674426,15.358172 3.4362678,14.643952 2.4339415,13.64163 -0.72154312,10.486161 -0.72886372,5.5404721 2.4173471,2.4307757 7.1745648,-2.2712304 15.19629,0.64359918 15.869238,7.3187481 16.251281,11.108322 13.636436,14.753062 9.8403574,15.722201 8.7794785,15.993044 7.0730476,15.989359 6.0265057,15.713888 Z m 3.2333078,-3.724906 v -1.293317 l -1.1273172,-0.04221 c -0.7074568,-0.02649 -1.2025253,0.0202 -1.3292488,0.125371 -0.213479,0.177172 -0.2991854,2.286471 -0.1009594,2.484697 0.055535,0.05553 0.6536963,0.08248 1.3292488,0.05987 L 9.2598135,13.28238 Z M 9.1538725,9.5820529 C 9.238078,9.4775974 9.3206138,8.0192627 9.3510964,6.0972822 l 0.05242,-3.3051434 H 7.9664904 6.5294648 l 0.052949,3.3051434 c 0.030632,1.9121855 0.113753,3.3808475 0.1972238,3.4847707 0.091514,0.1139384 0.5255397,0.1796273 1.1868535,0.1796273 0.6610318,0 1.0955712,-0.065738 1.1873814,-0.1796273 z"
     id="path9159" />
</svg>
