<?xml version="1.0" encoding="UTF-8" standalone="no"?>
<!-- Created with Inkscape (http://www.inkscape.org/) -->

<svg
   width="16"
   height="16"
   viewBox="0 0 16 16"
   version="1.1"
   id="svg5"
   inkscape:version="1.1.1 (3bf5ae0d25, 2021-09-20)"
   sodipodi:docname="Logo.svg"
   inkscape:export-filename="G:\Mi unidad\IU ET1\iconos\cerrados\traducir.png"
   inkscape:export-xdpi="768"
   inkscape:export-ydpi="768"
   xmlns:inkscape="http://www.inkscape.org/namespaces/inkscape"
   xmlns:sodipodi="http://sodipodi.sourceforge.net/DTD/sodipodi-0.dtd"
   xmlns="http://www.w3.org/2000/svg"
   xmlns:svg="http://www.w3.org/2000/svg">
  <sodipodi:namedview
     id="namedview7"
     pagecolor="#ff4aff"
     bordercolor="#ffffff"
     borderopacity="1"
     inkscape:pageshadow="0"
     inkscape:pageopacity="0"
     inkscape:pagecheckerboard="true"
     inkscape:document-units="px"
     showgrid="false"
     inkscape:zoom="32"
     inkscape:cx="7.5625"
     inkscape:cy="6.734375"
     inkscape:window-width="1366"
     inkscape:window-height="715"
     inkscape:window-x="-8"
     inkscape:window-y="-8"
     inkscape:window-maximized="1"
     inkscape:current-layer="layer1" />
  <defs
     id="defs2" />
  <g
     inkscape:label="Capa 1"
     inkscape:groupmode="layer"
     id="layer1">
    <path
       style="display:inline;fill:#000000;stroke-width:0.1;stroke-miterlimit:4;stroke-dasharray:none;stroke:#6996b3;stroke-opacity:1"
       d="m 13.873539,13.259794 v -0.199721 h 0.792416 0.792418 l 0.04469,-0.0562 0.04469,-0.05619 v -0.297156 -0.297161 h -0.862352 -0.862353 l -0.07602,-0.03268 c -0.103444,-0.04448 -0.223405,-0.177072 -0.268368,-0.296641 l -0.03717,-0.09886 V 10.771937 9.6187077 h 0.16202 0.16202 v 1.1020093 1.102009 l 0.05597,0.08096 0.05596,0.08096 h 0.78114 0.78114 l 0.05401,-0.06146 0.05401,-0.06146 V 10.740224 9.6187077 h 0.175522 0.175524 l -1.63e-4,1.6515483 -1.62e-4,1.651547 -0.0279,0.114272 c -0.03731,0.152848 -0.148053,0.296853 -0.28123,0.365689 l -0.109129,0.0564 -0.803353,6.76e-4 -0.80333,6.74e-4 z M 0.41232078,12.309812 C 0.31168667,12.2587 0.19545458,12.119977 0.15750593,12.005689 l -0.0287217,-0.0865 V 10.64482 9.3704478 L 0.1799178,9.2564481 C 0.2430773,9.1156368 0.30441988,9.0509732 0.4326943,8.9899873 L 0.5321012,8.9427253 H 1.829134 3.1261669 V 9.1424478 9.3421697 H 1.831533 0.53689874 l -0.0420365,0.06829 -0.0420365,0.06829 v 1.1914963 1.191494 l 0.0540065,0.06146 0.0540065,0.06146 H 1.8435025 3.1261663 v 0.18436 0.18436 L 1.8097481,12.35218 0.49333007,12.35098 0.41232037,12.30982 Z M 3.531219,10.525138 V 8.6969141 H 3.7067415 3.8822638 V 9.157811 9.6187077 h 0.8649778 0.8649777 l 0.087717,0.041704 c 0.1110256,0.052785 0.238361,0.2051552 0.2796272,0.334604 l 0.031863,0.099952 0.00206,1.129198 0.00206,1.129198 H 5.8400139 5.6644914 V 11.23772 10.122077 l -0.038298,-0.05965 -0.038298,-0.05964 -0.78021,-0.00898 -0.7802099,-0.00898 -0.072606,0.064986 -0.072605,0.06499 v 1.119278 1.119287 H 3.7067415 3.531219 Z m 3.0913929,1.785404 C 6.5115263,12.255467 6.3755363,12.0724 6.3412013,11.931714 l -0.028326,-0.116071 v -0.829607 -0.829615 l 0.028326,-0.116065 C 6.3764478,9.8959361 6.5131618,9.7150921 6.6285755,9.6602205 l 0.087316,-0.041513 h 0.8388416 0.8388415 l 0.087316,0.041513 c 0.1154138,0.054872 0.2521277,0.2357156 0.2873743,0.3801365 l 0.028326,0.116064 1.621e-4,0.514669 1.62e-4,0.514667 H 7.7302782 6.6636419 v 0.337993 0.33799 l 0.054006,0.06146 0.054006,0.06146 h 1.01263 1.0126293 v 0.18436 0.18436 l -1.0463827,-0.0012 -1.0463836,-0.0012 -0.081512,-0.04042 z m 1.8232347,-1.85999 v -0.335761 l -0.07115,-0.06368 -0.07115,-0.063683 H 7.5628175 6.8220893 l -0.058984,0.035326 c -0.092449,0.05537 -0.098635,0.08242 -0.099074,0.433253 l -4.131e-4,0.330309 h 0.8911137 0.8911139 z m 0.7560965,0.749043 V 10.045827 L 9.245705,9.9474919 C 9.3078524,9.8078419 9.3630487,9.7434476 9.4776529,9.6768917 L 9.57784,9.6187085 h 0.74367 0.743671 V 9.8030672 9.9874258 H 10.361864 9.6585469 l -0.06628,0.07542 -0.066282,0.07542 v 1.107548 1.107551 H 9.3639638 9.2019431 Z m 2.1332719,0.01128 V 10.06828 l 0.05789,-0.1360917 0.05789,-0.1360917 0.122911,-0.088695 0.122912,-0.088695 h 0.75081 0.750809 v 0.1843591 0.1843588 h -0.69608 -0.696083 l -0.06001,0.047833 -0.06002,0.04783 v 1.135136 1.135139 H 11.510739 11.335215 Z M 0.41232078,5.4578121 C 0.31168667,5.4067001 0.19545458,5.2679767 0.15750593,5.1536895 L 0.1287843,5.0671911 V 3.7928199 2.518448 L 0.18203788,2.3996703 C 0.24581168,2.2574293 0.34431443,2.16379 0.47673472,2.1195248 l 0.0976063,-0.032628 1.10915928,0.0096 1.1091591,0.0096 0.1094754,0.08247 0.1094752,0.08247 0.057279,0.1346345 0.057279,0.1346343 v 0.128568 0.1285675 l -0.1687715,-8.91e-5 -0.1687715,-8.9e-5 -0.00207,-0.108713 -0.00207,-0.108713 -0.046149,-0.052511 -0.046149,-0.052511 H 1.6293484 0.56651162 l -0.0568418,0.058533 -0.0568442,0.058531 v 1.2089329 1.2089329 l 0.0540065,0.061452 0.0540065,0.061452 H 1.6232894 2.6857402 l 0.040586,-0.053771 c 0.072015,-0.09541 0.079692,-0.1695759 0.060435,-0.5838033 L 2.7678345,4.0879456 H 2.4069321 2.0460294 V 3.9035867 3.7192282 H 2.5860983 3.1261674 V 4.3808338 5.0424396 L 3.0846323,5.1555514 C 3.0310358,5.3015116 2.9742069,5.3713118 2.8504578,5.4431787 l -0.1001872,0.058183 -1.1284697,-0.0012 -1.12846977,-0.0012 z M 3.8682601,5.4585434 C 3.7571744,5.403467 3.6211845,5.2203999 3.5868496,5.0797138 L 3.5585236,4.9636498 V 4.1340357 3.3044211 L 3.5868493,3.1883566 C 3.6220962,3.0439366 3.75881,2.8630926 3.8742239,2.8082211 L 3.96154,2.7667073 h 0.8362164 0.8362163 l 0.076018,0.032681 c 0.094575,0.04066 0.215312,0.168567 0.2736961,0.2899478 l 0.044338,0.09218 0.00979,0.5761211 0.00979,0.576121 H 4.978433 3.9092673 V 4.6717489 5.00974 l 0.054006,0.061452 0.054006,0.061452 h 1.01263 1.0126294 v 0.1843596 0.1843588 l -1.0463827,-0.0012 -1.0463837,-0.0012 -0.081512,-0.040414 z M 5.6914949,3.5985524 V 3.2627916 l -0.072606,-0.064986 -0.072605,-0.064986 -0.7802098,0.00898 -0.7802101,0.00898 -0.038298,0.059645 -0.038298,0.059645 V 3.6021884 3.9343068 H 4.8003817 5.6914955 Z M 6.7311277,5.4501969 C 6.5620091,5.3485194 6.4475914,5.1588725 6.4475914,4.9802369 V 4.8868346 H 6.6090977 6.770604 l 0.017102,0.077533 c 0.0094,0.042643 0.042721,0.097951 0.074032,0.1229063 l 0.05693,0.045374 h 0.757581 0.7575815 l 0.060016,-0.047832 0.060016,-0.047832 V 4.7336534 4.4303261 L 8.5114264,4.3820417 8.4689924,4.3337572 7.6675686,4.3330824 6.8661448,4.3324075 6.758131,4.2755042 C 6.63241,4.2092721 6.5171459,4.0783315 6.4763128,3.9553579 6.4605161,3.907784 6.4475914,3.7241333 6.4475914,3.5472454 V 3.2256309 L 6.4891266,3.1125182 C 6.542723,2.9665584 6.5995514,2.8967583 6.7233009,2.8248912 L 6.8234881,2.766708 h 0.8527603 0.8527603 l 0.1001872,0.058183 c 0.1619725,0.094065 0.2757095,0.2849154 0.2757095,0.4626406 v 0.093706 H 8.7293828 8.5538604 V 3.3061632 3.2310894 L 8.493845,3.1832573 8.4338298,3.1354254 H 7.6732314 6.9126332 l -0.061736,0.056883 -0.061735,0.056883 -0.011943,0.1878769 c -0.014348,0.2256993 0.00882,0.3863372 0.064913,0.4501679 l 0.041373,0.047076 0.7744202,1.72e-4 0.7744203,1.721e-4 0.1020016,0.032231 c 0.1269218,0.040106 0.2858535,0.1956687 0.3340766,0.3269949 l 0.036483,0.099352 V 4.7334384 5.0736405 L 8.8537723,5.1876402 C 8.7952802,5.3180443 8.7386884,5.3808513 8.6159597,5.4515672 l -0.086421,0.049796 -0.8587005,-0.00123 -0.8587004,-0.00123 z m 2.8761224,-0.00584 C 9.5558721,5.4130038 9.4770768,5.3356821 9.4321489,5.2725313 L 9.3504614,5.1577109 9.3430265,3.5013123 9.3355915,1.8449136 h 0.1619786 0.1619785 l 0.00747,0.4532153 0.00747,0.4532152 0.5198164,0.00834 0.519816,0.00834 V 2.951054 3.1340858 l -0.519816,0.00834 -0.5198164,0.00834 -0.00716,0.9150501 -0.00716,0.9150499 0.066684,0.075879 0.066685,0.07588 h 0.4602954 0.460286 v 0.184366 0.1843589 H 10.207401 9.7006643 Z m 1.7144629,0.00584 C 11.202647,5.3786112 11.146535,5.315219 11.08931,5.1876405 L 11.038182,5.0736407 V 4.1340352 3.1944301 l 0.05112,-0.1139997 c 0.05849,-0.1304055 0.115084,-0.1932112 0.237813,-0.2639272 l 0.08642,-0.049796 h 0.853025 0.853025 l 0.100194,0.058183 c 0.114603,0.066557 0.169801,0.1309506 0.231949,0.2706002 l 0.04377,0.098334 v 0.9399069 0.939907 L 13.44438,5.187639 c -0.05849,0.130404 -0.115085,0.193211 -0.237813,0.263927 l -0.08643,0.049796 -0.858701,-0.00123 -0.8587,-0.00123 -0.08101,-0.048704 z m 1.778098,-0.3750853 0.04463,-0.04217 V 4.1320152 3.2310894 l -0.06076,-0.048549 -0.06076,-0.048549 -0.761769,0.00248 -0.761767,0.00248 -0.06184,0.056977 -0.06184,0.056977 v 0.8811448 0.8811337 l 0.06317,0.058203 0.06317,0.058203 0.776557,-0.00716 0.77656,-0.00716 z m 0.778726,-0.7336728 0.0085,-1.1599237 0.04485,-0.09218 c 0.05926,-0.1218104 0.179945,-0.2494233 0.274202,-0.2899467 l 0.07602,-0.032681 h 0.740836 0.740838 v 0.1843589 0.1843589 h -0.690364 -0.690363 l -0.05899,0.035326 c -0.03244,0.01943 -0.06792,0.050541 -0.07883,0.069135 -0.01093,0.018594 -0.02003,0.5350335 -0.02025,1.1476424 l -4.13e-4,1.113834 h -0.177224 -0.177276 z"
       id="path7142" />
  </g>
</svg>
