<?xml version="1.0" encoding="UTF-8" standalone="no"?>
<!-- Created with Inkscape (http://www.inkscape.org/) -->

<svg
   width="16"
   height="16"
   viewBox="0 0 16 16"
   version="1.1"
   id="svg5"
   inkscape:version="1.1.1 (3bf5ae0d25, 2021-09-20)"
   sodipodi:docname="pagos.svg"
   xmlns:inkscape="http://www.inkscape.org/namespaces/inkscape"
   xmlns:sodipodi="http://sodipodi.sourceforge.net/DTD/sodipodi-0.dtd"
   xmlns="http://www.w3.org/2000/svg"
   xmlns:svg="http://www.w3.org/2000/svg">
  <sodipodi:namedview
     id="namedview7"
     pagecolor="#505050"
     bordercolor="#ffffff"
     borderopacity="1"
     inkscape:pageshadow="0"
     inkscape:pageopacity="0"
     inkscape:pagecheckerboard="1"
     inkscape:document-units="px"
     showgrid="false"
     inkscape:zoom="128"
     inkscape:cx="8.2734375"
     inkscape:cy="6.9570312"
     inkscape:window-width="1366"
     inkscape:window-height="715"
     inkscape:window-x="-8"
     inkscape:window-y="-8"
     inkscape:window-maximized="1"
     inkscape:current-layer="g1409" />
  <defs
     id="defs2">
    <inkscape:path-effect
       effect="powerstroke"
       id="path-effect13167"
       is_visible="true"
       lpeversion="1"
       offset_points="0,1"
       not_jump="false"
       sort_points="true"
       interpolator_type="CubicBezierJohan"
       interpolator_beta="0.2"
       start_linecap_type="zerowidth"
       linejoin_type="extrp_arc"
       miter_limit="4"
       scale_width="1"
       end_linecap_type="zerowidth" />
  </defs>
  <g
     inkscape:label="Capa 1"
     inkscape:groupmode="layer"
     id="layer1">
    <g
       id="g1409"
       transform="translate(-1.7465602,-0.76521354)"
       style="display:inline;fill:#9900a6;fill-opacity:0;stroke:#000000;stroke-width:0.1;stroke-miterlimit:4;stroke-dasharray:none;stroke-opacity:1">
      <path
         style="fill:#999999;fill-opacity:1;stroke:#000000;stroke-width:0.2;stroke-miterlimit:4;stroke-dasharray:none;stroke-opacity:1;paint-order:stroke fill markers"
         d="m 3.9277344,8.9140625 c 0.015192,-0.00102 0.030584,-0.00127 0.044922,0 0.095589,0.00844 0.1720519,0.067292 0.234375,0.1777344 C 5.144297,10.752718 5.1564839,10.790183 4.8300781,10.955078 4.5767818,11.08304 4.4973066,11.033678 4.2558594,10.597656 3.9364256,10.020801 3.8010188,9.7742736 3.6914062,9.5722656 3.6347562,9.4678646 3.5773771,9.3699556 3.5644531,9.3535156 3.4895421,9.2582456 3.6164711,9.022795 3.7792969,8.953125 3.8332809,8.930027 3.8821569,8.917118 3.9277344,8.9140625 Z"
         id="path16229"
         transform="translate(1.7465602,0.76521354)" />
      <path
         style="fill:#999999;fill-opacity:1;stroke:#000000;stroke-width:0.2;stroke-miterlimit:4;stroke-dasharray:none;stroke-opacity:1;paint-order:stroke fill markers"
         d="m 9.5273434,8.113281 c 0.310757,0 0.3892737,0.2140982 0.1679687,0.4589844 C 9.6330025,8.6412186 9.512424,8.8312109 9.421875,9.0039062 8.951765,9.900375 8.6853148,10.078383 7.4648438,10.314453 c -0.5596888,0.10822 -0.5591089,0.108788 -1.1640626,0.117188 -0.3327796,0.0046 -0.7512755,0.01047 -0.9296874,0.01367 -0.3243854,0.0058 -0.3255257,0.006 -0.546875,-0.394531 C 4.7024722,9.8304813 4.5579311,9.56817 4.5019531,9.46875 4.2870305,9.0870392 4.2883379,9.0901094 4.3554688,9.0371094 4.7280743,8.7429251 5.4180868,8.6209989 5.7832031,8.7851562 c 0.1992204,0.08957 0.3059161,0.1809109 0.2890625,0.2480469 -0.00746,0.02974 -0.00534,0.053489 0.00586,0.054687 0.011202,0.00115 0.3026078,0.010331 0.6484375,0.019531 0.7627054,0.020368 0.8554687,0.05305 0.8554687,0.3066406 0,0.235544 -0.1361369,0.2728131 -0.9101562,0.2519531 -0.5422319,-0.01461 -0.6381762,-0.012435 -0.6289062,0.015625 0.024241,0.07333 1.2882685,0.096001 1.4199218,0.025391 0.100181,-0.05373 0.1647179,-0.1383893 0.1855469,-0.2402343 0.015698,-0.07673 0.015897,-0.077519 0.3359375,-0.074219 0.3200414,0.0033 0.320462,0.0047 0.390625,-0.083984 0.183322,-0.2317784 0.3751741,-0.4934077 0.5332031,-0.7265626 0.237449,-0.3503313 0.3934376,-0.46875 0.6191407,-0.46875 z"
         id="path16227"
         transform="translate(1.7465602,0.76521354)" />
      <path
         id="rect14820"
         style="fill:#999999;fill-opacity:1;stroke:#000000;stroke-width:0.2;stroke-miterlimit:4;stroke-dasharray:none;stroke-opacity:1;paint-order:stroke fill markers"
         d="m 9.6379129,5.5375028 c -0.031901,0.0023 -0.063818,0.00457 -0.095703,0.00781 0.025173,0.012689 -0.1523609,0.03021 -0.140625,0.00781 -0.022828,4.253e-4 -0.045676,0.00154 -0.068359,0.00195 -0.00639,-0.00103 -0.01312,-0.00103 -0.019531,-0.00195 -0.00133,0.037289 -0.00268,0.068898 -0.00391,0.1289063 -0.00334,0.1636592 -0.00217,0.1634687 -0.1445313,0.203125 -0.7466241,0.2079911 -0.9969647,1.0328876 -0.4628876,1.5273487 0.1282293,0.118718 0.4804805,0.3242187 0.5566406,0.3242188 0.05099,0 0.056239,0.052733 0.056641,0.5332031 3.862e-4,0.4640589 0.00201,0.4633025 -0.074219,0.4628906 C 9.0983532,8.7320404 8.8415234,8.6648687 8.671116,8.5824247 8.5775096,8.5371367 8.4940191,8.5070883 8.4855691,8.5160185 8.45642,8.5468362 8.3220685,8.9772273 8.3351785,8.9984403 c 0.053822,0.087086 0.4563885,0.2092288 0.7578125,0.2304688 0.2142327,0.015094 0.214737,0.014319 0.2167969,0.1210937 0.00113,0.058727 0.00373,0.1217619 0.00586,0.1386719 0.00284,0.02253 0.046591,0.028538 0.1640626,0.023437 0.1601571,-0.00702 0.1589952,-0.00781 0.1660156,-0.1679687 0.00657,-0.150072 0.010509,-0.1601563 0.0625,-0.1601563 0.104593,0 0.4316889,-0.1842221 0.5371099,-0.3027344 0.176963,-0.1989426 0.224609,-0.3315942 0.224609,-0.6367187 0,-0.4399624 -0.173643,-0.6866699 -0.6347658,-0.90625 -0.1832525,-0.087249 -0.1829491,-0.08831 -0.1835944,-0.5332027 -7.6e-4,-0.5249827 0.0042,-0.5284976 0.4218752,-0.3320312 0.150713,0.070892 0.145304,0.076125 0.236328,-0.1992188 0.07212,-0.2181469 0.07162,-0.2191652 0.01563,-0.2558593 C 10.240231,5.9621648 9.940425,5.8684498 9.7883035,5.8500028 9.6528178,5.8335736 9.6526054,5.8340109 9.6457254,5.6527372 9.6437534,5.6008079 9.642562,5.5642422 9.6379129,5.5375028 Z M 9.1457254,6.1332059 c 0.093392,-0.014487 0.095703,0.1376304 0.095703,0.6113282 0,0.691784 0.00375,0.683604 -0.2421875,0.5117187 C 8.5994241,6.9768193 8.5774823,6.5034633 8.952366,6.2425809 9.040506,6.181244 9.1032754,6.1397959 9.1457254,6.1332059 Z m -0.050781,0.1484376 c -0.025869,0.00215 -0.064214,0.030828 -0.1171875,0.076172 C 8.7388824,6.5622784 8.732816,6.8782893 8.9621319,7.0921905 9.1473411,7.2649513 9.148695,7.2611118 9.1515851,6.787503 9.1539251,6.404987 9.1518474,6.2769238 9.0949444,6.2816435 Z m 0.6777344,1.3027343 c 0.00327,-4.078e-4 0.00716,-7.38e-4 0.011719,0 0.063813,0.010302 0.2389662,0.1426188 0.3164062,0.2441407 0.16243,0.2129692 0.19442,0.5381119 0.07422,0.7695312 -0.09692,0.1868827 -0.4197189,0.4145311 -0.4238289,0.2988281 -0.010005,-0.2848176 2.729e-4,-1.2971479 0.013672,-1.3105469 0.00195,-0.00189 0.00454,-0.00155 0.00781,-0.00195 z m 0.1113281,0.1933594 c -0.030599,0.00373 -0.029297,0.1128174 -0.029297,0.4785156 0,0.5684762 0.037965,0.6235685 0.2089841,0.3046875 0.125127,-0.2332911 0.06955,-0.5622546 -0.1230468,-0.7421875 -0.022068,-0.020608 -0.038314,-0.037546 -0.050781,-0.041016 -0.00233,-6.494e-4 -0.00382,-2.49e-4 -0.00586,4e-7 z" />
    </g>
  </g>
</svg>
