<?xml version="1.0" encoding="UTF-8" standalone="no"?>
<!-- Created with Inkscape (http://www.inkscape.org/) -->

<svg
   width="16"
   height="16"
   viewBox="0 0 16 16"
   version="1.1"
   id="svg5"
   inkscape:version="1.1.1 (3bf5ae0d25, 2021-09-20)"
   sodipodi:docname="traducir.svg"
   inkscape:export-filename="G:\Mi unidad\IU ET1\iconos\cerrados\traducir.png"
   inkscape:export-xdpi="768"
   inkscape:export-ydpi="768"
   xmlns:inkscape="http://www.inkscape.org/namespaces/inkscape"
   xmlns:sodipodi="http://sodipodi.sourceforge.net/DTD/sodipodi-0.dtd"
   xmlns="http://www.w3.org/2000/svg"
   xmlns:svg="http://www.w3.org/2000/svg">
  <sodipodi:namedview
     id="namedview7"
     pagecolor="#ff4aff"
     bordercolor="#ffffff"
     borderopacity="1"
     inkscape:pageshadow="0"
     inkscape:pageopacity="0"
     inkscape:pagecheckerboard="true"
     inkscape:document-units="px"
     showgrid="false"
     inkscape:zoom="16"
     inkscape:cx="8.3125"
     inkscape:cy="7.65625"
     inkscape:window-width="1366"
     inkscape:window-height="715"
     inkscape:window-x="-8"
     inkscape:window-y="-8"
     inkscape:window-maximized="1"
     inkscape:current-layer="layer1" />
  <defs
     id="defs2" />
  <g
     inkscape:label="Capa 1"
     inkscape:groupmode="layer"
     id="layer1">
    <path
       style="fill:#b3b3b3;fill-opacity:1;stroke:#000000;stroke-width:0.1;stroke-miterlimit:4;stroke-dasharray:none;stroke-opacity:1"
       d="m 9.3116285,15.793653 c 3.2067255,-0.507212 5.7277325,-2.924396 6.4401995,-6.1749717 0.146553,-0.6686411 0.146553,-2.5689636 0,-3.2376049 -0.712247,-3.2495755 -3.23446,-5.6679157 -6.4401995,-6.17497167 -0.7154758,-0.11316798 -1.907831,-0.11316798 -2.6233061,0 -3.2884846,0.5201438 -5.90109015,3.10103097 -6.46339135,6.38492237 -0.143554,0.8383726 -0.143554,1.9793311 0,2.8177036 0.42082802,2.4576703 1.97605965,4.5444063 4.23033255,5.6760543 0.5176937,0.259884 1.5521169,0.599344 2.0891909,0.685598 0.2265672,0.03639 0.4490149,0.07342 0.4943278,0.0823 0.2876164,0.05635 1.7900933,0.01733 2.2728462,-0.05903 z"
       id="path1854" />
    <path
       style="display:inline;fill:#b3b3b3;fill-opacity:1;stroke:#000000;stroke-width:0.1;stroke-miterlimit:4;stroke-dasharray:none;stroke-opacity:1"
       d="M 7.3683343,15.928752 C 5.4437184,15.800555 3.7625685,15.028931 2.3667033,13.633082 0.96129964,12.227697 0.20071529,10.561513 0.0710334,8.60405 -0.09120197,6.1551995 0.68376944,4.0495892 2.3667033,2.3666752 3.7721069,0.961289 5.4383101,0.20071319 7.3957974,0.07103327 9.844677,-0.09120066 11.950313,0.68376112 13.633247,2.3666752 c 1.682344,1.6823233 2.456968,3.7866744 2.296017,6.2373748 -0.122354,1.862989 -0.863194,3.549452 -2.150938,4.89644 -1.685735,1.763288 -3.8850675,2.596449 -6.4099917,2.428262 z"
       id="path1852" />
    <path
       style="fill:#e6e6e6;fill-opacity:1;stroke:#000000;stroke-width:0.1;stroke-miterlimit:4;stroke-dasharray:none;stroke-opacity:1"
       d="m 11.935515,3.2446667 c 0.190884,-0.096357 0.505619,-0.2753313 0.699412,-0.3977212 L 12.987279,2.6244187 12.773027,2.4419521 C 12.395269,2.1202349 11.789567,1.7208497 11.336702,1.4948735 10.907992,1.2809508 10.068237,0.97011595 10.027922,1.0104298 c -0.01105,0.011048 0.06754,0.150187 0.174634,0.309208 0.305402,0.45349 0.803442,1.373167 0.976736,1.8036324 0.179622,0.4461863 0.128934,0.4380487 0.756223,0.1213965 z"
       id="path1918" />
    <path
       style="fill:#e6e6e6;fill-opacity:1;stroke:#000000;stroke-width:0.1;stroke-miterlimit:4;stroke-dasharray:none;stroke-opacity:1"
       d="m 11.268031,3.5053745 c 0,-0.142476 -0.819575,-1.7185907 -1.118109,-2.1502223 C 9.983214,1.1141193 9.8541977,0.90952893 9.8632198,0.90050691 9.8974578,0.86626975 10.818432,1.1812008 11.209638,1.3609189 c 0.437952,0.2011928 1.326765,0.7796303 1.666954,1.0848497 l 0.207968,0.1865882 -0.372744,0.2361925 c -0.430469,0.2727726 -1.274323,0.7079088 -1.375128,0.7090906 -0.03777,4.427e-4 -0.06865,-0.032076 -0.06865,-0.072265 z"
       id="path1916" />
    <path
       style="fill:#e6e6e6;fill-opacity:1;stroke:#000000;stroke-width:0.1;stroke-miterlimit:4;stroke-dasharray:none;stroke-opacity:1"
       d="M 5.037791,2.6721881 C 5.1963127,2.339894 5.4743526,1.8332141 5.6556582,1.5462328 5.8369638,1.2592515 5.9777998,1.0167766 5.9686266,1.0073997 5.9318708,0.96982734 5.0774014,1.2882147 4.6717329,1.4906399 4.1977166,1.7271707 3.5612088,2.1435029 3.2263629,2.4360407 L 3.0115501,2.6237105 3.3850146,2.8595712 C 3.590419,2.9892949 3.9589442,3.1923739 4.2039577,3.3108585 L 4.649439,3.5262853 4.699502,3.4013222 C 4.727036,3.3325931 4.8792667,3.0044821 5.0377884,2.6721881 Z"
       id="path1914" />
    <path
       style="fill:#e6e6e6;fill-opacity:1;stroke:#000000;stroke-width:0.1;stroke-miterlimit:4;stroke-dasharray:none;stroke-opacity:1"
       d="M 4.1002782,3.3278373 C 3.828398,3.1908887 3.4510398,2.9779788 3.2617052,2.8547043 L 2.9174588,2.6305689 3.124391,2.4448745 C 3.4635641,2.140512 4.3528412,1.5618909 4.7903131,1.3609189 5.1815184,1.1812008 6.1024938,0.86627041 6.1367314,0.90050691 6.1457955,0.90953156 6.0167429,1.1141193 5.850028,1.3551522 5.5514939,1.7867838 4.7319189,3.3628985 4.7319189,3.5053745 c 0,0.1169079 -0.1065367,0.086962 -0.6316407,-0.1775372 z"
       id="path1912" />
    <path
       style="fill:#e6e6e6;fill-opacity:1;stroke:#000000;stroke-width:0.1;stroke-miterlimit:4;stroke-dasharray:none;stroke-opacity:1"
       d="M 9.2357947,4.1761992 C 9.4019438,4.1458136 9.816653,4.045309 10.157372,3.9528558 10.732038,3.7969215 10.774275,3.776303 10.741148,3.6678711 10.650599,3.3714737 9.9133512,2.0025318 9.5330522,1.4246439 L 9.1110115,0.78332632 8.8236363,0.74742163 C 8.2838935,0.679986 8.3315011,0.52038183 8.3149829,2.4526876 c -0.008,0.9357667 -0.00171,1.7348348 0.013972,1.7757066 0.030023,0.078238 0.2687775,0.064497 0.9068398,-0.052195 z"
       id="path1910" />
    <path
       style="fill:#e6e6e6;fill-opacity:1;stroke:#000000;stroke-width:0.1;stroke-miterlimit:4;stroke-dasharray:none;stroke-opacity:1"
       d="M 8.2471391,2.5001925 V 0.65299247 l 0.4234286,0.0271738 C 9.0678969,0.70566512 9.1025976,0.71824314 9.2335522,0.88423838 9.7308745,1.5146349 10.874974,3.5981512 10.812792,3.7601904 10.755294,3.9100225 9.0017767,4.3400918 8.4256465,4.3456636 l -0.1785074,0.00172 z"
       id="path1908" />
    <path
       style="fill:#e6e6e6;fill-opacity:1;stroke:#000000;stroke-width:0.1;stroke-miterlimit:4;stroke-dasharray:none;stroke-opacity:1"
       d="m 7.6704233,2.5081663 c 0,-1.99660616 0.04721,-1.82837708 -0.4941087,-1.76074467 L 6.8889386,0.78332632 6.4668981,1.4246439 C 6.0875353,2.0011091 5.3493473,3.37139 5.2593178,3.6662466 c -0.031593,0.1034813 0.00565,0.1272383 0.3640759,0.2323922 0.7600734,0.2229716 1.6205658,0.3917304 1.9097164,0.3745315 l 0.1373132,-0.00817 z"
       id="path1906" />
    <path
       style="fill:#e6e6e6;fill-opacity:1;stroke:#000000;stroke-width:0.1;stroke-miterlimit:4;stroke-dasharray:none;stroke-opacity:1"
       d="M 6.7823467,4.2400814 C 6.0944727,4.1189909 5.2244011,3.8572409 5.1871579,3.7601903 5.124983,3.598151 6.269076,1.5146347 6.766399,0.88423825 6.8973565,0.71824314 6.9320538,0.70566486 7.3293833,0.6801661 L 7.7528113,0.6529923 V 2.500191 4.3473897 L 7.5468414,4.3428971 C 7.4335577,4.3404274 7.0895351,4.2941587 6.7823467,4.2400831 Z"
       id="path1904" />
    <path
       style="fill:#e6e6e6;fill-opacity:1;stroke:#000000;stroke-width:0.1;stroke-miterlimit:4;stroke-dasharray:none;stroke-opacity:1"
       d="M 15.233749,7.3407833 C 15.172422,6.1059419 14.630399,4.6406743 13.84438,3.5848537 13.663256,3.3415586 13.496997,3.1313328 13.474914,3.1176851 c -0.02208,-0.013647 -0.224889,0.088458 -0.450682,0.2269021 -0.225792,0.1384437 -0.639157,0.3591088 -0.91859,0.4903669 -0.279432,0.131258 -0.508059,0.2593092 -0.508059,0.284558 0,0.025249 0.05067,0.1918937 0.112593,0.3703221 0.217973,0.6280237 0.488477,1.7596225 0.576471,2.4115517 0.04893,0.3625027 0.09867,0.6904094 0.110517,0.7286815 0.01683,0.05431 0.332338,0.066367 1.437251,0.054924 l 1.415693,-0.014661 z"
       id="path1902" />
    <path
       style="fill:#e6e6e6;fill-opacity:1;stroke:#000000;stroke-width:0.1;stroke-miterlimit:4;stroke-dasharray:none;stroke-opacity:1"
       d="M 12.286002,7.3270519 C 12.209882,6.4857799 11.920003,5.2426318 11.592719,4.3538983 11.532856,4.1913309 11.490924,4.0553924 11.499528,4.0518128 11.76735,3.940522 12.906925,3.3524452 13.124654,3.2131679 L 13.423832,3.021788 13.58687,3.176536 c 0.237515,0.2254362 0.834734,1.1407487 1.052914,1.613719 0.353098,0.7654484 0.589282,1.663038 0.667512,2.5367969 l 0.03811,0.4256661 H 13.83496 12.324513 Z"
       id="path1900" />
    <path
       style="fill:#e6e6e6;fill-opacity:1;stroke:#000000;stroke-width:0.1;stroke-miterlimit:4;stroke-dasharray:none;stroke-opacity:1"
       d="M 11.689565,7.6102121 C 11.781945,7.369473 11.482205,5.7979904 11.155378,4.8095769 L 10.990383,4.3105829 10.291595,4.5475477 C 9.9072632,4.6778783 9.3332871,4.8254583 9.0160935,4.8755034 8.6988998,4.9255488 8.4084822,4.9747167 8.370721,4.984766 8.318224,4.9987378 8.302065,5.3115512 8.302065,6.3137991 c 0,0.7209185 0.016477,1.3272388 0.036617,1.3473775 0.02014,0.020139 0.7747649,0.036616 1.676946,0.036616 1.450639,0 1.644216,-0.010128 1.673937,-0.08758 z"
       id="path1898" />
    <path
       style="fill:#e6e6e6;fill-opacity:1;stroke:#000000;stroke-width:0.1;stroke-miterlimit:4;stroke-dasharray:none;stroke-opacity:1"
       d="M 8.2471391,6.3246729 V 4.8966363 h 0.1973423 c 0.3284512,0 1.2796005,-0.2133922 1.8623566,-0.4178231 0.302089,-0.1059732 0.588061,-0.2053319 0.635494,-0.2207978 0.06809,-0.022203 0.128291,0.1027141 0.28609,0.5936046 0.335557,1.0438969 0.532844,2.0200346 0.533613,2.6402059 l 3.24e-4,0.2608921 h -1.75761 -1.7576099 z"
       id="path1896" />
    <path
       style="fill:#e6e6e6;fill-opacity:1;stroke:#000000;stroke-width:0.1;stroke-miterlimit:4;stroke-dasharray:none;stroke-opacity:1"
       d="M 7.685134,6.3370605 C 7.6966152,5.2969485 7.6845353,4.9996897 7.6302091,4.9851425 7.5919097,4.974883 7.301051,4.9255483 6.9838579,4.8755029 6.6666634,4.8254575 6.091721,4.6775495 5.7062077,4.5468184 L 5.0052734,4.3091248 4.7878031,4.989364 C 4.4764978,5.9631114 4.2097368,7.4644927 4.3171485,7.6382875 c 0.026706,0.043201 0.5234895,0.056847 1.6955212,0.046573 l 1.657754,-0.014531 z"
       id="path1894" />
    <path
       style="fill:#e6e6e6;fill-opacity:1;stroke:#000000;stroke-width:0.1;stroke-miterlimit:4;stroke-dasharray:none;stroke-opacity:1"
       d="M 4.2379155,7.4918259 C 4.238684,6.8716546 4.4359727,5.8955169 4.771528,4.85162 4.9293219,4.3607291 4.9895263,4.2358129 5.0576192,4.2580154 5.105055,4.2734808 5.3910227,4.3728398 5.6931116,4.4788132 6.2758689,4.6832441 7.2270174,4.8966363 7.555469,4.8966363 H 7.7528113 V 6.3246771 7.752718 H 5.9952017 4.237591 l 3.297e-4,-0.2608921 z"
       id="path1892" />
    <path
       style="fill:#e6e6e6;fill-opacity:1;stroke:#000000;stroke-width:0.1;stroke-miterlimit:4;stroke-dasharray:none;stroke-opacity:1"
       d="M 3.6744714,7.0936222 C 3.7495857,6.4723239 4.040364,5.2276952 4.2640347,4.5700864 4.3401211,4.3463953 4.402367,4.1445609 4.402367,4.1215653 4.402367,4.0985688 4.1737412,3.9709346 3.8943075,3.837932 3.6148752,3.7049293 3.20151,3.4828805 2.9757178,3.3444901 2.7499255,3.2060996 2.5480561,3.1034588 2.5271166,3.1163993 2.4091643,3.1892953 1.8246151,4.044355 1.596482,4.4776939 1.2737006,5.0908153 1.0790155,5.5970915 0.94016043,6.1844473 0.82291746,6.6803912 0.70976651,7.578039 0.75522525,7.6515907 0.77155388,7.6780144 1.4193775,7.6930397 2.194831,7.6849819 L 3.604747,7.670331 Z"
       id="path1890" />
    <path
       style="fill:#e6e6e6;fill-opacity:1;stroke:#000000;stroke-width:0.1;stroke-miterlimit:4;stroke-dasharray:none;stroke-opacity:1"
       d="m 0.66744606,7.6276968 c 0,-0.628104 0.27596565,-1.8585039 0.57891884,-2.581124 C 1.5282078,4.3743073 2.3885952,3.0420924 2.5475714,3.031797 2.5696404,3.030367 2.7197222,3.113652 2.8810853,3.216873 3.0975953,3.3553709 4.4002796,4.0255906 4.496696,4.0480907 4.503266,4.0496307 4.411454,4.3416849 4.2926617,4.6971164 4.0216669,5.5079783 3.8157173,6.4194705 3.7336249,7.1712945 L 3.6701364,7.752718 H 2.1687893 0.66744344 Z"
       id="path1888" />
    <path
       style="fill:#e6e6e6;fill-opacity:1;stroke:#000000;stroke-width:0.1;stroke-miterlimit:4;stroke-dasharray:none;stroke-opacity:1"
       d="M 11.297073,10.713159 C 11.515459,9.9544349 11.651154,9.2178933 11.66795,8.7000483 L 11.67997,8.3294267 H 10.004749 8.3295271 l -0.01471,1.3332706 c -0.011481,1.0401117 5.987e-4,1.3373707 0.054925,1.3519177 0.038299,0.01025 0.3289171,0.05964 0.6458151,0.109728 0.3168988,0.05009 0.8853759,0.196482 1.2632818,0.325314 l 0.687103,0.234236 0.07257,-0.162279 c 0.03991,-0.08925 0.156266,-0.453056 0.25856,-0.808449 z"
       id="path1886" />
    <path
       style="fill:#e6e6e6;fill-opacity:1;stroke:#000000;stroke-width:0.1;stroke-miterlimit:4;stroke-dasharray:none;stroke-opacity:1"
       d="M 10.581465,11.613703 C 10.144484,11.429476 9.0960181,11.166241 8.6247473,11.122442 l -0.3776082,-0.0351 V 9.6671934 8.2470397 h 1.7657129 1.765713 l -0.03585,0.4663718 c -0.01972,0.2565042 -0.08488,0.7199309 -0.144794,1.0298372 -0.134803,0.6972003 -0.547133,2.0206623 -0.627526,2.0141833 -0.03266,-0.0026 -0.207679,-0.06731 -0.388932,-0.143725 z"
       id="path1884" />
    <path
       style="fill:#e6e6e6;fill-opacity:1;stroke:#000000;stroke-width:0.1;stroke-miterlimit:4;stroke-dasharray:none;stroke-opacity:1"
       d="m 6.9838575,11.12425 c 0.3171931,-0.05005 0.6080518,-0.09939 0.6463512,-0.109636 0.054324,-0.01455 0.066402,-0.311806 0.054925,-1.3519174 L 7.6704233,8.3294267 6.0075184,8.3148882 c -1.4587547,-0.012755 -1.6669073,-0.00411 -1.6955119,0.070433 -0.089748,0.233895 0.198517,1.7582518 0.5253391,2.7779588 l 0.168914,0.527017 0.7004403,-0.237525 C 6.0919426,11.322131 6.666663,11.174299 6.9838575,11.124254 Z"
       id="path1882" />
    <path
       style="fill:#e6e6e6;fill-opacity:1;stroke:#000000;stroke-width:0.1;stroke-miterlimit:4;stroke-dasharray:none;stroke-opacity:1"
       d="M 4.7417345,11.038141 C 4.4788843,10.205004 4.309366,9.3916277 4.257234,8.7134115 L 4.2213846,8.2470397 H 5.9870965 7.75281 v 1.428041 1.4280403 H 7.5554677 c -0.3284516,0 -1.2796001,0.213393 -1.8623575,0.417823 -0.3020888,0.105971 -0.5878096,0.205267 -0.634934,0.220652 -0.067955,0.02219 -0.133431,-0.123376 -0.316443,-0.703455 z"
       id="path1880" />
    <path
       style="fill:#e6e6e6;fill-opacity:1;stroke:#000000;stroke-width:0.1;stroke-miterlimit:4;stroke-dasharray:none;stroke-opacity:1"
       d="m 14.011886,12.173721 c 0.697111,-1.022413 1.163916,-2.3562995 1.2204,-3.4872787 l 0.01783,-0.3570103 h -1.426765 -1.426766 l -0.06773,0.5767089 c -0.08964,0.7632482 -0.245135,1.4538491 -0.512106,2.2744461 -0.120541,0.370505 -0.219164,0.689829 -0.219164,0.709608 0,0.01978 0.228627,0.143355 0.50806,0.274613 0.279432,0.131258 0.693431,0.35361 0.919998,0.494113 l 0.411941,0.255462 0.155931,-0.177877 c 0.08576,-0.09783 0.274029,-0.351085 0.418373,-0.562785 z"
       id="path1878" />
    <path
       style="fill:#e6e6e6;fill-opacity:1;stroke:#000000;stroke-width:0.1;stroke-miterlimit:4;stroke-dasharray:none;stroke-opacity:1"
       d="m 13.135486,12.796954 c -0.185754,-0.12406 -1.575136,-0.842495 -1.629292,-0.842495 -0.005,0 0.09921,-0.323781 0.231447,-0.719512 0.267955,-0.801844 0.49597,-1.8479815 0.552478,-2.5347736 L 12.3274,8.247045 h 1.509004 1.509001 l -0.03811,0.425666 c -0.111962,1.2505497 -0.497918,2.389697 -1.147047,3.385537 -0.29582,0.453824 -0.674261,0.916457 -0.742794,0.908046 -0.01914,-0.0024 -0.146027,-0.07855 -0.281968,-0.16934 z"
       id="path1876" />
    <path
       style="fill:#e6e6e6;fill-opacity:1;stroke:#000000;stroke-width:0.1;stroke-miterlimit:4;stroke-dasharray:none;stroke-opacity:1"
       d="m 3.122368,12.566538 c 0.1871658,-0.112473 0.551733,-0.303561 0.8101483,-0.424657 0.2584153,-0.12109 0.4698454,-0.238845 0.4698454,-0.261664 0,-0.02282 -0.083075,-0.288178 -0.1846146,-0.589684 C 3.9617134,10.530272 3.758219,9.6477392 3.6742849,8.9335978 L 3.6032823,8.3294267 H 2.1765582 0.74983536 l 0.0178262,0.3570103 c 0.0666807,1.33504 0.68189034,2.880216 1.59143574,3.997057 0.1754782,0.215472 0.2006569,0.228684 0.3070622,0.161117 0.063751,-0.04049 0.2690441,-0.165617 0.4562112,-0.278079 z"
       id="path1874" />
    <path
       style="fill:#e6e6e6;fill-opacity:1;stroke:#000000;stroke-width:0.1;stroke-miterlimit:4;stroke-dasharray:none;stroke-opacity:1"
       d="M 2.2784249,12.67884 C 1.6478863,11.889961 1.1514999,10.897607 0.91328322,9.9497039 0.79204677,9.4672672 0.66744081,8.6676621 0.66744081,8.3720609 V 8.24704 H 2.1699899 3.672539 L 3.70982,8.7001684 c 0.056513,0.6867921 0.2845228,1.7329296 0.5524791,2.5347736 0.1322435,0.395731 0.2363933,0.719512 0.2314462,0.719512 -0.05428,0 -1.3913345,0.686849 -1.6126656,0.828431 C 2.7197166,12.88611 2.5696351,12.96939 2.5475658,12.967961 2.5254968,12.966516 2.4043823,12.836427 2.2784249,12.67884 Z"
       id="path1872" />
    <path
       style="fill:#e6e6e6;fill-opacity:1;stroke:#000000;stroke-width:0.1;stroke-miterlimit:4;stroke-dasharray:none;stroke-opacity:1"
       d="m 10.61938,14.803604 c 0.760775,-0.273329 1.559698,-0.737821 2.181261,-1.268179 l 0.186952,-0.159516 -0.406647,-0.26094 c -0.498217,-0.319699 -1.188939,-0.653944 -1.260277,-0.609854 -0.02895,0.01789 -0.05264,0.05827 -0.05264,0.08973 0,0.125714 -0.66854,1.444375 -0.955338,1.884356 -0.3532708,0.54196 -0.339474,0.556553 0.306692,0.3244 z"
       id="path1870" />
    <path
       style="fill:#e6e6e6;fill-opacity:1;stroke:#000000;stroke-width:0.1;stroke-miterlimit:4;stroke-dasharray:none;stroke-opacity:1"
       d="m 10.136834,14.63203 c 0.38807,-0.567982 0.66088,-1.068152 0.936927,-1.717766 l 0.228592,-0.537936 0.441522,0.207532 c 0.242838,0.114142 0.643718,0.337234 0.890845,0.495758 l 0.449322,0.288225 -0.20771,0.186368 c -0.381321,0.342138 -1.277871,0.91134 -1.768853,1.123012 -0.432804,0.18659 -1.046225,0.380474 -1.2037656,0.380474 -0.031742,0 0.073162,-0.19155 0.2331206,-0.425667 z"
       id="path1868" />
    <path
       style="fill:#e6e6e6;fill-opacity:1;stroke:#000000;stroke-width:0.1;stroke-miterlimit:4;stroke-dasharray:none;stroke-opacity:1"
       d="M 5.6872514,14.479204 C 5.4004547,14.039223 4.7319136,12.720561 4.7319136,12.594848 c 0,-0.03146 -0.023685,-0.07184 -0.052638,-0.08973 -0.071357,-0.0441 -0.762099,0.290179 -1.2605543,0.610031 l -0.4069257,0.261117 0.2146866,0.187563 c 0.5383153,0.4703 1.3489431,0.94098 2.1096089,1.224915 0.6881407,0.256862 0.7086034,0.238825 0.3511588,-0.309537 z"
       id="path1866" />
    <path
       style="fill:#e6e6e6;fill-opacity:1;stroke:#000000;stroke-width:0.1;stroke-miterlimit:4;stroke-dasharray:none;stroke-opacity:1"
       d="M 5.6381867,14.95344 C 4.832384,14.717653 3.7421859,14.111234 3.123612,13.554717 L 2.9159022,13.367843 3.3652245,13.079618 C 3.612353,12.921094 4.0132333,12.698003 4.2560701,12.58386 l 0.4415232,-0.207532 0.2285903,0.537936 c 0.2760484,0.649614 0.5488574,1.149784 0.936927,1.717766 0.3234264,0.47337 0.3184936,0.48042 -0.2249239,0.32141 z"
       id="path1864" />
    <path
       style="fill:#e6e6e6;fill-opacity:1;stroke:#000000;stroke-width:0.1;stroke-miterlimit:4;stroke-dasharray:none;stroke-opacity:1"
       d="m 8.9146855,15.243004 c 0.1841326,-0.03045 0.2347304,-0.08493 0.6135997,-0.660646 0.401972,-0.610821 1.0921578,-1.930046 1.1644538,-2.225744 0.0349,-0.142753 0.02307,-0.151158 -0.401592,-0.285307 -0.5097852,-0.16104 -1.2293183,-0.300514 -1.6595307,-0.321686 l -0.3020892,-0.01487 -0.014545,1.702128 c -0.008,0.93617 -0.0026,1.733264 0.012007,1.77132 0.028522,0.07433 0.2642517,0.08829 0.5876948,0.0348 z"
       id="path1862" />
    <path
       style="fill:#e6e6e6;fill-opacity:1;stroke:#000000;stroke-width:0.1;stroke-miterlimit:4;stroke-dasharray:none;stroke-opacity:1"
       d="m 8.2471391,13.48525 v -1.847076 l 0.3982086,0.03817 c 0.4611408,0.04422 1.2136758,0.199644 1.7861343,0.368911 0.35649,0.105405 0.395773,0.130404 0.366638,0.233322 -0.08765,0.309593 -0.9430654,1.936619 -1.2721691,2.419697 -0.4056724,0.595472 -0.4425454,0.61954 -0.9629912,0.628562 l -0.3158206,0.0055 z"
       id="path1860" />
    <path
       style="fill:#e6e6e6;fill-opacity:1;stroke:#000000;stroke-width:0.1;stroke-miterlimit:4;stroke-dasharray:none;stroke-opacity:1"
       d="m 7.6704233,13.492344 v -1.75759 l -0.302089,0.01487 c -0.4302128,0.02117 -1.1497457,0.160646 -1.6595312,0.321686 -0.4246626,0.134149 -0.4364946,0.142555 -0.4015923,0.285307 0.072461,0.296368 0.7628977,1.615553 1.1666969,2.229152 0.4470418,0.679307 0.454192,0.68436 0.9493514,0.670891 l 0.2471642,-0.0067 z"
       id="path1858" />
    <path
       style="fill:#e6e6e6;fill-opacity:1;stroke:#000000;stroke-width:0.1;stroke-miterlimit:4;stroke-dasharray:none;stroke-opacity:1"
       d="M 6.9838575,15.284714 C 6.7818764,15.230803 6.1845875,14.317058 5.6686147,13.272646 5.4298305,12.789308 5.2197784,12.341982 5.20183,12.278586 5.172693,12.175676 5.211945,12.150678 5.5684688,12.045264 6.1409272,11.875997 6.8934615,11.720569 7.3546027,11.676354 l 0.3982086,-0.03817 v 1.847072 1.847072 l -0.3158206,-0.0055 c -0.1737009,-0.003 -0.3776117,-0.02192 -0.4531332,-0.04209 z"
       id="path1856" />
  </g>
</svg>
