<?xml version="1.0" encoding="UTF-8" standalone="no"?>
<!-- Created with Inkscape (http://www.inkscape.org/) -->

<svg
   version="1.1"
   id="svg821"
   width="16"
   height="16"
   viewBox="0 0 16 16"
   sodipodi:docname="tarta.svg"
   inkscape:version="1.1.1 (3bf5ae0d25, 2021-09-20)"
   xmlns:inkscape="http://www.inkscape.org/namespaces/inkscape"
   xmlns:sodipodi="http://sodipodi.sourceforge.net/DTD/sodipodi-0.dtd"
   xmlns="http://www.w3.org/2000/svg"
   xmlns:svg="http://www.w3.org/2000/svg">
  <defs
     id="defs825" />
  <sodipodi:namedview
     id="namedview823"
     pagecolor="#ffffff"
     bordercolor="#111111"
     borderopacity="1"
     inkscape:pageshadow="0"
     inkscape:pageopacity="0"
     inkscape:pagecheckerboard="1"
     showgrid="false"
     width="16px"
     inkscape:zoom="22.627417"
     inkscape:cx="9.8332037"
     inkscape:cy="9.3912619"
     inkscape:window-width="1366"
     inkscape:window-height="715"
     inkscape:window-x="1144"
     inkscape:window-y="-8"
     inkscape:window-maximized="1"
     inkscape:current-layer="g827" />
  <g
     inkscape:groupmode="layer"
     inkscape:label="Image"
     id="g827">
    <path
       style="fill:#010101;stroke:none;stroke-width:1"
       d="M 7.9876998,0 C 7.5431988,0.63409703 7.0922987,1.2722808 6.7171167,1.9477221 6.4910329,2.3547483 6.2200695,2.8045048 6.1674495,3.274085 6.0596622,4.2361759 6.8545981,5.2337562 7.8892527,5.2337562 v 0.011955 H 6.1541222 V 7.6355483 H 3.2253204 c -0.7570584,0 -1.4955225,-0.027806 -2.1535313,0.3996293 -0.89524151,0.5815444 -1.28119114,1.7279875 -0.95985974,2.7191154 0.0707219,0.218121 0.1696367,0.430972 0.30080517,0.621359 0.054527,0.0791 0.1835547,0.181988 0.2023704,0.274834 0.028365,0.139925 0.00137,0.311157 0.00137,0.45407 V 13.048544 16 H 15.383538 v -2.951456 -0.943988 c 0,-0.142913 -0.02695,-0.314145 0.0014,-0.45407 0.01883,-0.09285 0.147794,-0.19573 0.202432,-0.274834 0.131058,-0.190387 0.229997,-0.403238 0.300756,-0.621359 C 16.209433,9.7631651 15.823516,8.6167339 14.928267,8.0351776 14.270224,7.6077425 13.531747,7.6355483 12.774689,7.6355483 H 9.8458892 V 5.2457054 H 8.1107587 v -0.011955 c 1.0346546,0 1.8295905,-0.9975802 1.7218035,-1.9596712 C 9.7799422,2.8045048 9.5089782,2.3547483 9.2828947,1.9477221 8.9077128,1.2722808 8.4568127,0.63409703 8.0123116,0 h -0.024612 m 0.024612,2.1867064 C 8.1714637,2.4881851 8.3538,2.7720865 8.4953178,3.0828975 8.5765488,3.2612873 8.651258,3.450778 8.5852248,3.6445106 8.3810455,4.243453 7.449748,4.1375472 7.3857328,3.5130693 7.3711748,3.3709931 7.4468558,3.2099296 7.5046938,3.0828975 7.6462116,2.7720865 7.8285479,2.4881851 7.9877,2.1867064 H 8.012312 M 8.6153006,6.4406269 V 7.6355483 H 7.3847112 V 6.4406269 h 1.230589 m 3.6917648,3.5608651 -0.726047,0.0239 -0.504541,-0.0239 c 0,0.176717 -0.02437,0.363173 -0.101524,0.525766 -0.371022,0.782196 -1.5298178,0.943988 -2.0964421,0.262883 C 8.6930611,10.56724 8.6153002,10.283649 8.6153002,10.001492 l -0.7260475,0.0239 -0.5045415,-0.0239 c 0,0.176717 -0.02439,0.363173 -0.1015236,0.525766 -0.3710718,0.782196 -1.529819,0.943988 -2.0964437,0.262883 C 5.0012941,10.56724 4.9235332,10.283649 4.9235332,10.001492 l -0.7260475,0.0239 -0.5045415,-0.0239 c 0,0.417267 -0.1860158,0.826492 -0.5660709,1.046883 C 2.3881015,11.476743 1.3467889,11.066395 1.2440716,10.204629 1.2217736,10.017516 1.2327506,9.8371551 1.2857766,9.6549653 1.3175016,9.5458929 1.3680286,9.438565 1.4327581,9.3442858 1.8266702,8.7705442 2.4919389,8.8304696 3.1145677,8.8304696 h 0.9598594 7.4573669 1.685907 c 0.402526,0 0.811204,-0.00179 1.132142,0.2758237 0.150255,0.1299955 0.27516,0.2906168 0.340504,0.4769768 0.169452,0.4835129 0.05685,1.0335469 -0.35281,1.3715069 -0.58133,0.479546 -1.558295,0.291704 -1.897814,-0.367773 -0.09451,-0.183385 -0.132658,-0.381682 -0.132658,-0.585512 m 1.845884,2.342048 v 2.461538 H 1.8470607 V 12.34354 c 0.1855113,0.01888 0.3663587,0.06082 0.5537651,0.07133 0.3411808,0.01924 0.73524,-0.05485 1.0460006,-0.193816 0.2180235,-0.0975 0.4351486,-0.211382 0.6152945,-0.368395 0.046935,-0.04098 0.1882678,-0.218073 0.2461178,-0.218073 0.045766,0 0.1358447,0.119492 0.1722825,0.149963 0.1584629,0.132516 0.3184395,0.257027 0.5045415,0.35286 0.4958658,0.255235 1.0638318,0.319403 1.6120716,0.239342 0.3430882,-0.05019 0.7069241,-0.194533 0.9844712,-0.395996 0.1069012,-0.07766 0.2108614,-0.15761 0.3076472,-0.24699 0.026925,-0.02486 0.070119,-0.09918 0.110753,-0.09918 0.040646,0 0.083828,0.07432 0.110753,0.09918 0.096786,0.08938 0.200746,0.16932 0.3076473,0.24699 0.277547,0.201463 0.641383,0.34581 0.9844712,0.395996 0.548252,0.08006 1.1161428,0.01589 1.6120698,-0.239342 0.186065,-0.09583 0.346042,-0.220344 0.504541,-0.35286 0.03643,-0.03047 0.126505,-0.149963 0.172283,-0.149963 0.05784,0 0.199232,0.177087 0.246118,0.218073 0.180158,0.157013 0.397234,0.270889 0.615294,0.368395 0.310724,0.138969 0.704758,0.213054 1.046001,0.193816 0.187418,-0.01047 0.368315,-0.05246 0.553765,-0.07133 z"
       id="path1253" />
  </g>
</svg>
