<?xml version="1.0" encoding="UTF-8" standalone="no"?>
<!-- Created with Inkscape (http://www.inkscape.org/) -->

<svg
   width="16"
   height="16"
   viewBox="0 0 16 16"
   version="1.1"
   id="svg5"
   inkscape:version="1.1.1 (3bf5ae0d25, 2021-09-20)"
   sodipodi:docname="actividades.svg"
   xmlns:inkscape="http://www.inkscape.org/namespaces/inkscape"
   xmlns:sodipodi="http://sodipodi.sourceforge.net/DTD/sodipodi-0.dtd"
   xmlns="http://www.w3.org/2000/svg"
   xmlns:svg="http://www.w3.org/2000/svg">
  <sodipodi:namedview
     id="namedview7"
     pagecolor="#505050"
     bordercolor="#ffffff"
     borderopacity="1"
     inkscape:pageshadow="0"
     inkscape:pageopacity="0"
     inkscape:pagecheckerboard="1"
     inkscape:document-units="px"
     showgrid="false"
     inkscape:zoom="16.5625"
     inkscape:cx="4.2566038"
     inkscape:cy="3.8943396"
     inkscape:window-width="1366"
     inkscape:window-height="715"
     inkscape:window-x="1272"
     inkscape:window-y="115"
     inkscape:window-maximized="1"
     inkscape:current-layer="layer1" />
  <defs
     id="defs2" />
  <g
     inkscape:label="Capa 1"
     inkscape:groupmode="layer"
     id="layer1">
    <path
       style="fill:#b3b3b3;stroke:#000000;stroke-width:0.4;stroke-miterlimit:4;stroke-dasharray:none;stroke-opacity:1"
       d="m 5.1591046,15.763781 c -0.1482855,-0.06457 -0.2059155,-0.221037 -0.2028129,-0.55064 0.00143,-0.152294 0.018106,-0.362576 0.03705,-0.467292 0.018945,-0.104716 0.2829439,-0.941713 0.5866651,-1.859991 0.9769056,-2.9536006 1.2856466,-4.0148964 1.142175,-3.9262226 -0.087055,0.053805 -0.5417307,0.7489864 -1.4051442,2.1484096 -0.6197143,1.004435 -0.6913922,1.082147 -0.9981251,1.082147 -0.3003057,0 -0.5644066,-0.263715 -0.5638531,-0.56303 3.339e-4,-0.18074 0.1277042,-0.779171 0.2632382,-1.236789 C 4.2492794,9.6104845 4.5862131,8.7611499 5.4054709,6.8936184 l 0.843543,-1.9228902 -0.296395,-0.00812 C 5.7896016,4.958137 4.842328,4.9654121 3.8475664,4.9787726 2.8528049,4.9921328 1.9502719,4.992646 1.8419377,4.9799135 1.3530049,4.9224478 1.1413288,4.5725617 1.4290084,4.2973697 1.6256143,4.1092984 1.7577044,4.0780615 3.6002286,3.7839195 7.0927267,3.2263741 7.0027557,3.2385426 7.3284519,3.2796806 c 0.1577746,0.019928 0.3526158,0.058558 0.4329808,0.085844 0.2351082,0.079825 1.4516341,0.7389886 3.5393963,1.9177913 0.553861,0.3127244 1.022358,0.5685896 1.041104,0.5685896 0.01875,0 0.413587,-0.237618 0.877426,-0.5280403 0.463839,-0.2904218 0.881589,-0.5478182 0.928334,-0.5719918 0.270722,-0.1400016 0.582142,0.068931 0.542565,0.36401 C 14.652929,5.3942077 14.3389,5.7232952 13.28423,6.5893332 12.870312,6.9292221 12.607726,7.1225705 12.5113,7.1584623 12.235244,7.2612159 12.08386,7.2123718 10.639941,6.5546666 10.296549,6.398251 10.017044,6.2879242 10.003511,6.3034527 9.990237,6.3186817 9.1134831,8.3068317 8.0551668,10.721564 c -1.058316,2.414733 -1.968301,4.464163 -2.0221885,4.55429 -0.2549857,0.426461 -0.5880097,0.612405 -0.8738737,0.487927 z M 9.693479,15.727629 C 9.0918194,15.565862 8.6706529,15.013494 8.6706529,14.386175 c 0,-0.788646 0.5982661,-1.392683 1.3829541,-1.396295 0.926609,-0.0043 1.586303,0.851008 1.351612,1.75232 -0.190356,0.731047 -0.975904,1.18328 -1.71174,0.985433 z M 9.2521116,2.9743431 C 9.0028584,2.9456851 8.6586833,2.7727619 8.4674686,2.5801165 8.1099942,2.2199671 7.9786472,1.7437007 8.1015936,1.2534458 8.1662131,0.99577151 8.2770479,0.80135123 8.4684295,0.60996182 9.0147452,0.06362396 9.8886884,0.06053648 10.431452,0.60302718 10.70791,0.87934595 10.842591,1.2136959 10.839401,1.6157752 10.832773,2.4569579 10.112642,3.0732836 9.2521116,2.9743431 Z"
       id="path851" />
  </g>
</svg>
