<?xml version="1.0" encoding="UTF-8" standalone="no"?>
<!-- Created with Inkscape (http://www.inkscape.org/) -->

<svg
   width="16"
   height="16"
   viewBox="0 0 16 16"
   version="1.1"
   id="svg5"
   inkscape:version="1.1.1 (3bf5ae0d25, 2021-09-20)"
   sodipodi:docname="calendar.svg"
   inkscape:export-filename="G:\Mi unidad\IU ET1\iconos\cerrados\traducir.png"
   inkscape:export-xdpi="768"
   inkscape:export-ydpi="768"
   xmlns:inkscape="http://www.inkscape.org/namespaces/inkscape"
   xmlns:sodipodi="http://sodipodi.sourceforge.net/DTD/sodipodi-0.dtd"
   xmlns="http://www.w3.org/2000/svg"
   xmlns:svg="http://www.w3.org/2000/svg">
  <sodipodi:namedview
     id="namedview7"
     pagecolor="#ff4aff"
     bordercolor="#ffffff"
     borderopacity="1"
     inkscape:pageshadow="0"
     inkscape:pageopacity="0"
     inkscape:pagecheckerboard="true"
     inkscape:document-units="px"
     showgrid="false"
     inkscape:zoom="22.627417"
     inkscape:cx="4.9939416"
     inkscape:cy="6.0766989"
     inkscape:window-width="1366"
     inkscape:window-height="715"
     inkscape:window-x="-8"
     inkscape:window-y="-8"
     inkscape:window-maximized="1"
     inkscape:current-layer="svg5"
     inkscape:snap-global="false" />
  <defs
     id="defs2" />
  <rect
     style="fill:#b3b3b3;stroke:#000000;stroke-width:0.4;stroke-miterlimit:4;stroke-dasharray:none;stroke-opacity:1;paint-order:stroke fill markers"
     id="rect7601"
     width="15.6"
     height="15.6"
     x="0.2"
     y="0.2" />
  <g
     inkscape:label="Capa 1"
     inkscape:groupmode="layer"
     id="layer1" />
  <path
     style="fill:#000000;stroke-width:1"
     d="M 3.8122365,14.256001 C 3.6515518,14.204513 3.3900255,13.963638 3.3146541,13.79771 3.2539627,13.664099 3.2509465,13.447936 3.2502199,9.1798004 L 3.2494577,4.702063 3.3224259,4.5637484 C 3.4241104,4.3710005 3.537359,4.2590661 3.7260066,4.1648507 3.8684769,4.0936977 3.9515902,4.082065 4.4190005,4.0678588 l 0.531108,-0.016142 V 3.6411786 c 0,-0.5125159 0.061845,-0.7045543 0.3032686,-0.9417004 0.2702533,-0.2654646 0.4307964,-0.3188541 0.9635426,-0.3204311 0.4241555,-0.00126 0.4629265,0.00443 0.6469939,0.094819 0.2501279,0.1228345 0.4516265,0.3419507 0.5457173,0.5934311 0.059834,0.1599196 0.0741,0.2746448 0.0741,0.5958807 v 0.3978307 h 1.284165 1.2841651 V 3.6855293 c 0,-0.4403358 0.05623,-0.6666127 0.218964,-0.8811236 0.25841,-0.3406309 0.646716,-0.4757844 1.236675,-0.4304365 0.349119,0.026835 0.582559,0.122896 0.777696,0.3200217 0.244153,0.2466411 0.279532,0.3531898 0.293939,0.8852463 l 0.0128,0.4726754 0.529109,0.016081 c 0.60014,0.01824 0.758201,0.067081 0.959665,0.2965356 0.24006,0.2734139 0.22278,-0.098789 0.22278,4.7984311 0,4.1980077 -0.0032,4.4335757 -0.06324,4.5890547 -0.07681,0.199073 -0.339869,0.447597 -0.535952,0.506344 -0.184239,0.0552 -9.7197281,0.05293 -9.8922605,-0.0024 z M 13.453362,10.047993 V 6.6293383 H 8.7678959 4.0824295 v 3.4186547 3.418655 H 8.7678959 13.453362 Z M 6.5967306,5.4762794 c 0.045891,-0.065518 0.054029,-0.2290298 0.054029,-1.0855528 0,-1.2360774 0.026788,-1.1626898 -0.4243977,-1.1626898 -0.4770267,0 -0.4432812,-0.088052 -0.4432812,1.1566594 0,0.9206813 0.00668,1.0491572 0.05744,1.1052498 0.047793,0.052811 0.1115807,0.06347 0.3798105,0.06347 0.2937843,0 0.3271618,-0.00684 0.3763994,-0.077137 z m 5.0925104,0.019697 c 0.0588,-0.053216 0.06347,-0.134038 0.06347,-1.0992194 0,-1.2494696 0.02869,-1.1687202 -0.415232,-1.1687202 -0.469643,0 -0.435093,-0.091681 -0.435093,1.1545576 0,0.8440558 0.0096,1.0675526 0.04763,1.1134271 0.06902,0.083162 0.647317,0.083127 0.739221,-3.47e-5 z"
     id="path8469" />
  <path
     style="fill:#ffffff;stroke:#000000;stroke-width:0.3;stroke-linejoin:bevel;stroke-miterlimit:4;stroke-dasharray:none;stroke-opacity:1"
     d="m 3.1472953,13.755804 c -0.208215,-0.09695 -0.428374,-0.335421 -0.479466,-0.519337 -0.02249,-0.08095 -0.03511,-1.77975 -0.03474,-4.6746289 5.56e-4,-4.3272462 0.0037,-4.5544129 0.06575,-4.6909227 0.08597,-0.1892548 0.269145,-0.3683043 0.467871,-0.4573437 0.13063,-0.058529 0.259241,-0.075031 0.683597,-0.087711 l 0.522694,-0.015618 0.01342,-0.4682625 c 0.01211,-0.4222933 0.02267,-0.4859914 0.107626,-0.6488576 0.112421,-0.215525 0.332567,-0.4232435 0.559049,-0.5274904 0.142007,-0.065364 0.229161,-0.075693 0.628541,-0.074491 0.569838,0.00172 0.74405,0.063258 1.013446,0.358014 0.237549,0.2599111 0.288404,0.4270881 0.288404,0.9480786 V 3.3188773 H 8.2988653 9.614243 L 9.632643,2.881964 C 9.654363,2.366505 9.684393,2.2545369 9.864668,2.0170538 9.962928,1.88761 10.067131,1.8045001 10.244772,1.7138895 l 0.24473,-0.1248324 0.449436,8.364e-4 c 0.407924,7.589e-4 0.467838,0.00939 0.648689,0.093439 0.253468,0.1177991 0.445444,0.3098551 0.560136,0.5603705 0.07621,0.1664482 0.09287,0.2647906 0.106992,0.6314656 l 0.01674,0.4343135 0.521455,0.017469 c 0.578859,0.019392 0.724146,0.058986 0.925837,0.2523153 0.06547,0.06276 0.15375,0.1783077 0.196169,0.2567738 l 0.07713,0.1426656 v 4.6009649 c 0,4.4996783 -0.0015,4.6040723 -0.06998,4.7420993 -0.03849,0.07762 -0.131368,0.2007 -0.20639,0.273506 -0.269718,0.261746 0.09646,0.245229 -5.4278017,0.24484 l -4.960293,-3.48e-4 z m 2.329827,-1.778908 0.0095,-0.989743 h -0.999242 -0.999244 v 0.999223 0.999224 l 0.989763,-0.0095 0.989762,-0.0095 z m 2.612053,0.0089 v -0.998643 h -1.087847 -1.087848 v 0.99866 0.998659 h 1.087848 1.087847 z m 2.6393667,0 V 10.987153 H 9.622861 8.5171813 v 0.974881 c 0,0.536185 0.0107,0.985583 0.02378,0.998659 0.01308,0.01308 0.510634,0.02378 1.1056797,0.02378 h 1.081903 z m 2.389698,0 v -0.998644 h -0.980846 -0.980846 v 0.998659 0.998659 h 0.980846 0.980846 z m -7.6411657,-2.5233811 -0.0094,-1.096742 -0.989762,-0.00948 -0.989763,-0.00948 v 1.106223 1.1062231 h 0.999195 0.999195 z m 2.612101,-0.0089 V 8.3478347 h -1.087847 -1.087848 v 1.1056582 1.1056591 h 1.087848 1.087847 z m 2.6393667,-5.17e-4 V 8.3468071 l -1.096764,0.00943 -1.0967637,0.00943 -0.0094,1.0967428 -0.0094,1.0967401 h 1.1061987 1.106195 z m 2.389698,5.17e-4 V 8.3478347 h -0.980846 -0.980846 v 1.1056582 1.1056591 h 0.980846 0.980846 z M 5.4854753,6.939017 V 5.958191 h -0.99868 -0.998679 v 0.980826 0.9808259 h 0.998679 0.99868 z m 2.6037,0 V 5.958191 h -1.087847 -1.087848 v 0.980826 0.9808259 h 1.087848 1.087847 z m 2.6393667,0 V 5.958191 H 9.622861 8.5171813 v 0.980826 0.9808259 h 1.1056797 1.105681 z m 2.389698,0 V 5.958191 h -0.980846 -0.980846 v 0.980826 0.9808259 h 0.980846 0.980846 z M 6.0622573,4.7935052 c 0.06039,-0.054654 0.06523,-0.1373042 0.06523,-1.1155554 0,-1.2915408 0.02706,-1.2150657 -0.430028,-1.2150657 -0.491313,0 -0.46165,-0.076264 -0.46165,1.1868884 0,1.2792861 -0.02775,1.2027603 0.436136,1.2027603 0.252448,0 0.339665,-0.01319 0.390316,-0.059028 z m 5.2522447,0.00298 c 0.04847,-0.048471 0.05605,-0.2011996 0.05605,-1.1296012 0,-0.9489003 -0.0068,-1.0811258 -0.05903,-1.138777 -0.08058,-0.089043 -0.653964,-0.096145 -0.740934,-0.00918 -0.04849,0.04849 -0.05604,0.2020324 -0.05604,1.1387771 0,0.9367448 0.0076,1.0902868 0.05604,1.1387771 0.04252,0.042514 0.132324,0.056047 0.371957,0.056047 0.239634,0 0.329442,-0.013533 0.371957,-0.056047 z"
     id="path8667" />
</svg>
