<?xml version="1.0" encoding="UTF-8" standalone="no"?>
<!-- Created with Inkscape (http://www.inkscape.org/) -->

<svg
   width="16"
   height="16"
   viewBox="0 0 16 16"
   version="1.1"
   id="svg5"
   inkscape:version="1.1.1 (3bf5ae0d25, 2021-09-20)"
   sodipodi:docname="download.svg"
   inkscape:export-filename="G:\Mi unidad\IU ET1\iconos\cerrados\traducir.png"
   inkscape:export-xdpi="768"
   inkscape:export-ydpi="768"
   xmlns:inkscape="http://www.inkscape.org/namespaces/inkscape"
   xmlns:sodipodi="http://sodipodi.sourceforge.net/DTD/sodipodi-0.dtd"
   xmlns="http://www.w3.org/2000/svg"
   xmlns:svg="http://www.w3.org/2000/svg">
  <sodipodi:namedview
     id="namedview7"
     pagecolor="#ff4aff"
     bordercolor="#ffffff"
     borderopacity="1"
     inkscape:pageshadow="0"
     inkscape:pageopacity="0"
     inkscape:pagecheckerboard="true"
     inkscape:document-units="px"
     showgrid="false"
     inkscape:zoom="22.627417"
     inkscape:cx="10.341437"
     inkscape:cy="7.7118833"
     inkscape:window-width="1366"
     inkscape:window-height="715"
     inkscape:window-x="-8"
     inkscape:window-y="-8"
     inkscape:window-maximized="1"
     inkscape:current-layer="layer1"
     inkscape:snap-global="false" />
  <defs
     id="defs2" />
  <rect
     style="fill:#b3b3b3;stroke:#000000;stroke-width:0.4;stroke-miterlimit:4;stroke-dasharray:none;stroke-opacity:1;paint-order:stroke fill markers"
     id="rect7601"
     width="15.6"
     height="15.6"
     x="0.2"
     y="0.2" />
  <path
     style="display:inline;fill:#000000;fill-opacity:1;stroke:#000000;stroke-width:0.3;stroke-miterlimit:4;stroke-dasharray:none;stroke-opacity:1"
     d="m 2.1150903,13.76015 c -0.2125192,-0.09894 -0.33176,-0.229774 -0.3895988,-0.427489 -0.025594,-0.08749 -0.035315,-0.646477 -0.027868,-1.602572 0.011435,-1.468215 0.011435,-1.468215 0.102414,-1.602611 C 1.916825,9.9549575 2.0750983,9.8481985 2.2853257,9.8001403 2.3875918,9.7767593 3.1690518,9.7615493 4.2955708,9.7609813 6.1385126,9.7600202 6.1385126,9.7600202 6.750823,10.382669 c 0.4547004,0.462341 0.6697476,0.653191 0.8354536,0.74145 0.28719,0.152963 0.622861,0.208799 0.945671,0.157302 0.444454,-0.07091 0.575549,-0.158917 1.298313,-0.871678 0.6625804,-0.6534106 0.6625804,-0.6534106 2.5910374,-0.6422483 1.928457,0.011166 1.928457,0.011166 2.094109,0.1040873 0.09111,0.051111 0.216587,0.165425 0.278839,0.254036 0.113187,0.161111 0.113187,0.161111 0.124845,1.598311 0.008,0.976008 -0.0015,1.482126 -0.02956,1.577204 -0.05413,0.183833 -0.24206,0.393904 -0.427921,0.478318 -0.142169,0.06458 -0.425589,0.06771 -6.1533634,0.06815 -6.0043306,4.55e-4 -6.0043306,4.55e-4 -6.1931553,-0.08746 z m 9.5426767,-1.028931 c 0.118905,-0.08465 0.219617,-0.283858 0.219617,-0.434408 0,-0.258578 -0.302951,-0.511526 -0.57305,-0.478465 -0.51642,0.06321 -0.62486,0.740191 -0.15349,0.958238 0.173385,0.08019 0.353134,0.06412 0.506923,-0.04536 z m 1.923385,0.05646 c 0.201423,-0.08057 0.316724,-0.249139 0.319906,-0.467681 0.0065,-0.452822 -0.534973,-0.673241 -0.858766,-0.349522 -0.138389,0.138357 -0.179213,0.264677 -0.144803,0.448054 0.0279,0.148665 0.233705,0.375428 0.363244,0.400228 0.152876,0.02926 0.174904,0.02712 0.320419,-0.03107 z M 8.1223526,10.239454 C 8.0106186,10.195827 4.3482431,6.5508237 4.2719646,6.4073305 4.2010766,6.2739778 4.2057743,6.1678599 4.2908606,5.9804945 4.412189,5.7133212 4.4366719,5.7085468 5.6853139,5.7085468 c 1.0986126,0 1.0986126,0 1.0986126,-1.8497884 0,-1.7224355 0.0047,-1.8587051 0.068216,-1.9793035 0.1317153,-0.250078 0.1846426,-0.2594878 1.4599001,-0.2595525 1.121,-5.59e-5 1.1396,0.00119 1.26407,0.084316 0.261216,0.1744646 0.25633,0.1330397 0.256395,2.1737053 5.8e-5,1.8306234 5.8e-5,1.8306234 1.1103984,1.8306234 1.069696,0 1.113955,0.00285 1.209045,0.077623 0.198828,0.1563631 0.267521,0.4471073 0.155541,0.6583316 -0.08206,0.1548 -3.7065024,3.7524563 -3.8250684,3.7968093 -0.126332,0.04726 -0.235737,0.0467 -0.36007,-0.0019 z"
     id="path1140-2" />
  <g
     inkscape:label="Capa 1"
     inkscape:groupmode="layer"
     id="layer1">
    <path
       style="display:inline;fill:#ffffff;fill-opacity:1;stroke:#000000;stroke-width:0.3;stroke-miterlimit:4;stroke-dasharray:none;stroke-opacity:1"
       d="m 1.8057317,13.362358 c -0.2125192,-0.09894 -0.33176,-0.229774 -0.3895988,-0.427489 -0.025594,-0.08749 -0.035315,-0.646477 -0.027868,-1.602572 0.011435,-1.4682136 0.011435,-1.4682136 0.102414,-1.6026096 0.1167876,-0.172521 0.2750609,-0.27928 0.4852883,-0.3273382 0.1022661,-0.023381 0.8837261,-0.038591 2.0102451,-0.039159 1.8429418,-9.611e-4 1.8429418,-9.611e-4 2.4552522,0.6216882 0.4547004,0.4623396 0.669748,0.6531896 0.8354534,0.7414486 0.2871899,0.152963 0.622861,0.208799 0.9456713,0.157302 0.4444542,-0.07091 0.5755493,-0.158917 1.2983125,-0.871677 0.6625803,-0.6534107 0.6625803,-0.6534107 2.5910373,-0.6422484 1.928457,0.011166 1.928457,0.011166 2.094109,0.1040873 0.09111,0.051111 0.216587,0.1654245 0.278839,0.2540365 0.113187,0.161111 0.113187,0.161111 0.124845,1.5983096 0.008,0.976008 -0.0015,1.482126 -0.02956,1.577204 -0.05413,0.183833 -0.24206,0.393904 -0.427921,0.478318 -0.142169,0.06458 -0.425589,0.06771 -6.1533631,0.06815 -6.0043305,4.55e-4 -6.0043305,4.55e-4 -6.1931552,-0.08746 z m 9.5426763,-1.028931 c 0.118905,-0.08465 0.219617,-0.283858 0.219617,-0.434408 0,-0.258578 -0.302951,-0.511526 -0.57305,-0.478465 -0.51642,0.06321 -0.62486,0.740191 -0.15349,0.958238 0.173385,0.08019 0.353134,0.06412 0.506923,-0.04536 z m 1.923385,0.05646 c 0.201423,-0.08057 0.316724,-0.249139 0.319906,-0.467681 0.0065,-0.452822 -0.534973,-0.673241 -0.858766,-0.349522 -0.138389,0.138357 -0.179213,0.264677 -0.144803,0.448054 0.0279,0.148665 0.233705,0.375428 0.363244,0.400228 0.152876,0.02926 0.174904,0.02712 0.320419,-0.03107 z M 7.8129944,9.8416634 C 7.7012599,9.7980364 4.0388845,6.1530326 3.962606,6.0095394 3.891718,5.8761867 3.8964157,5.7700688 3.981502,5.5827034 4.1028304,5.3155301 4.1273133,5.3107557 5.3759553,5.3107557 c 1.0986126,0 1.0986126,0 1.0986126,-1.8497884 0,-1.7224355 0.0047,-1.8587051 0.068216,-1.9793035 0.1317153,-0.2500779 0.1846426,-0.2594877 1.4599004,-0.2595524 1.1209996,-5.59e-5 1.1396,0.00119 1.2640696,0.084316 0.2612164,0.1744645 0.2563304,0.1330396 0.2563951,2.1737052 5.76e-5,1.8306234 5.76e-5,1.8306234 1.110398,1.8306234 1.069696,0 1.113955,0.00285 1.209045,0.077623 0.198828,0.1563631 0.267521,0.4471073 0.155541,0.6583316 -0.08206,0.1548 -3.7065018,3.7524568 -3.8250681,3.7968098 -0.1263322,0.04726 -0.2357367,0.0467 -0.3600702,-0.0019 z"
       id="path1140" />
  </g>
</svg>
