<?xml version="1.0" encoding="UTF-8" standalone="no"?>
<!-- Created with Inkscape (http://www.inkscape.org/) -->

<svg
   width="16"
   height="16"
   viewBox="0 0 16 16"
   version="1.1"
   id="svg5"
   inkscape:version="1.1.1 (3bf5ae0d25, 2021-09-20)"
   sodipodi:docname="Espacio.svg"
   xmlns:inkscape="http://www.inkscape.org/namespaces/inkscape"
   xmlns:sodipodi="http://sodipodi.sourceforge.net/DTD/sodipodi-0.dtd"
   xmlns="http://www.w3.org/2000/svg"
   xmlns:svg="http://www.w3.org/2000/svg">
  <sodipodi:namedview
     id="namedview7"
     pagecolor="#505050"
     bordercolor="#ffffff"
     borderopacity="1"
     inkscape:pageshadow="0"
     inkscape:pageopacity="0"
     inkscape:pagecheckerboard="1"
     inkscape:document-units="px"
     showgrid="false"
     inkscape:zoom="22.627417"
     inkscape:cx="13.744388"
     inkscape:cy="9.4354561"
     inkscape:window-width="1366"
     inkscape:window-height="715"
     inkscape:window-x="-8"
     inkscape:window-y="-8"
     inkscape:window-maximized="1"
     inkscape:current-layer="layer1"
     inkscape:snap-bbox="true"
     inkscape:bbox-nodes="true"
     inkscape:bbox-paths="true"
     inkscape:snap-global="false" />
  <defs
     id="defs2" />
  <g
     inkscape:label="Capa 1"
     inkscape:groupmode="layer"
     id="layer1">
    <path
       id="rect1473"
       style="fill:#b3b3b3;stroke:#000000;stroke-width:0.5;paint-order:stroke fill markers"
       d="M 0.25 0.25 L 0.25 0.67382812 L 0.25 6.4394531 L 0.671875 6.4394531 L 0.671875 0.8984375 L 5.3125 5.5664062 L 5.3125 10.617188 L 0.67773438 15.101562 L 0.67773438 9.5664062 L 0.25390625 9.5664062 L 0.25390625 15.332031 L 0.25390625 15.753906 L 0.67773438 15.753906 L 6.4433594 15.753906 L 6.4433594 15.332031 L 0.93164062 15.332031 L 5.609375 10.806641 L 10.59375 10.806641 L 15.109375 15.322266 L 9.5644531 15.322266 L 9.5644531 15.746094 L 15.330078 15.746094 L 15.751953 15.746094 L 15.751953 15.322266 L 15.751953 9.5566406 L 15.330078 9.5566406 L 15.330078 15.105469 L 10.777344 10.552734 L 10.777344 5.515625 L 15.324219 0.91992188 L 15.324219 6.4375 L 15.748047 6.4375 L 15.748047 0.671875 L 15.748047 0.25 L 15.324219 0.25 L 9.5585938 0.25 L 9.5585938 0.671875 L 15.091797 0.671875 L 10.46875 5.34375 L 5.5410156 5.34375 L 0.89648438 0.67382812 L 6.4375 0.67382812 L 6.4375 0.25 L 0.671875 0.25 L 0.25 0.25 z " />
  </g>
</svg>
