<?xml version="1.0" encoding="UTF-8" standalone="no"?>
<!-- Created with Inkscape (http://www.inkscape.org/) -->

<svg
   width="16"
   height="16"
   viewBox="0 0 16 16"
   version="1.1"
   id="svg5"
   inkscape:version="1.1.1 (3bf5ae0d25, 2021-09-20)"
   sodipodi:docname="grupo.svg"
   xmlns:inkscape="http://www.inkscape.org/namespaces/inkscape"
   xmlns:sodipodi="http://sodipodi.sourceforge.net/DTD/sodipodi-0.dtd"
   xmlns="http://www.w3.org/2000/svg"
   xmlns:svg="http://www.w3.org/2000/svg">
  <sodipodi:namedview
     id="namedview7"
     pagecolor="#505050"
     bordercolor="#ffffff"
     borderopacity="1"
     inkscape:pageshadow="0"
     inkscape:pageopacity="0"
     inkscape:pagecheckerboard="1"
     inkscape:document-units="px"
     showgrid="false"
     inkscape:zoom="23.422912"
     inkscape:cx="0.78982493"
     inkscape:cy="5.3580016"
     inkscape:window-width="1366"
     inkscape:window-height="715"
     inkscape:window-x="1144"
     inkscape:window-y="-8"
     inkscape:window-maximized="1"
     inkscape:current-layer="layer1"
     inkscape:snap-global="false" />
  <defs
     id="defs2" />
  <g
     inkscape:label="Capa 1"
     inkscape:groupmode="layer"
     id="layer1">
    <path
       id="path55"
       style="fill:#b3b3b3;fill-opacity:1;stroke:#000000;stroke-width:0.1;stroke-miterlimit:4.3;paint-order:stroke fill markers;stroke-opacity:1;stroke-dasharray:none;stroke-linejoin:bevel;stroke-linecap:round"
       d="m 8.5038494,4.8619094 a 2.5525728,2.4534439 0 0 0 -0.9956768,0.1956081 2.5525728,2.4534439 0 0 1 1.5552443,2.2575091 2.5525728,2.4534439 0 0 1 -1.5568475,2.257509 2.5525728,2.4534439 0 0 0 0.99728,0.195608 2.5525728,2.4534439 0 0 0 2.5525246,-2.453117 2.5525728,2.4534439 0 0 0 -2.5525246,-2.4531172 z m 0,5.2044566 a 3.7049478,9.9285576 0 0 0 -0.99728,0.373579 3.7049478,9.9285576 0 0 1 2.3713465,5.424115 H 11.870873 A 3.7049478,9.9285576 0 0 0 8.5038494,10.066366 Z" />
    <path
       id="path55-87"
       style="fill:#b3b3b3;fill-opacity:1;stroke:#000000;stroke-width:0.1;stroke-miterlimit:4.3;paint-order:stroke fill markers;stroke-opacity:1;stroke-dasharray:none;stroke-linejoin:bevel;stroke-linecap:round"
       d="M 4.083009,4.8872837 A 2.5525728,2.4534439 0 0 1 5.0786855,5.0828917 2.5525728,2.4534439 0 0 0 3.5234414,7.3404008 2.5525728,2.4534439 0 0 0 5.0802889,9.5979098 2.5525728,2.4534439 0 0 1 4.083009,9.7935178 2.5525728,2.4534439 0 0 1 1.5304845,7.3404008 2.5525728,2.4534439 0 0 1 4.083009,4.8872837 Z m 0,5.2044563 a 3.7049478,9.9285576 0 0 1 0.9972799,0.373579 3.7049478,9.9285576 0 0 0 -2.3713461,5.424115 H 0.71598523 A 3.7049478,9.9285576 0 0 1 4.083009,10.09174 Z" />
    <path
       id="path55-8"
       style="fill:#b3b3b3;fill-opacity:1;stroke:#000000;stroke-width:0.1;stroke-miterlimit:4.3;paint-order:stroke fill markers;stroke-opacity:1;stroke-dasharray:none;stroke-linejoin:bevel;stroke-linecap:round"
       d="M 6.2862512,10.091741 A 3.7049478,9.9285576 0 0 0 2.9192273,15.889434 H 9.6532739 A 3.7049478,9.9285576 0 0 0 6.2862512,10.091741 Z M 8.8388227,7.3398335 A 2.5525728,2.4534439 0 0 1 6.2862512,9.7932775 2.5525728,2.4534439 0 0 1 3.7336791,7.3398335 2.5525728,2.4534439 0 0 1 6.2862512,4.8863896 2.5525728,2.4534439 0 0 1 8.8388227,7.3398335 Z" />
    <path
       id="rect3337"
       style="fill:#b3b3b3;stroke:#000000;stroke-width:0.1;stroke-opacity:1;paint-order:stroke fill markers;stroke-miterlimit:4;stroke-dasharray:none"
       d="m 13.249998,0.32734895 c -0.08942,-0.0319948 -0.189302,0.013064 -0.221294,0.10247758 L 12.528098,1.8290215 11.833063,0.51723056 C 11.788573,0.43332646 11.68351,0.40112068 11.599608,0.44561226 l -0.769,0.40978893 c -0.08391,0.0444957 -0.115163,0.14691261 -0.07069,0.23081131 l 0.60818,1.1467091 -1.222313,-0.4373217 C 10.056363,1.763606 9.9591238,1.8095968 9.9271301,1.8990221 L 9.6343239,2.717419 c -0.032001,0.089421 0.014067,0.1866632 0.1034189,0.2186562 L 11.055096,3.4074004 9.7897588,4.0058936 c -0.085849,0.040608 -0.1218384,0.1411852 -0.081225,0.2270392 l 0.3729974,0.7885964 c 0.04061,0.085854 0.141189,0.121838 0.227041,0.081231 l 1.261754,-0.5967987 -0.470379,1.3147147 c -0.032,0.089421 0.01663,0.1876085 0.106056,0.2196005 l 0.818395,0.2928072 c 0.08942,0.031996 0.186663,-0.013999 0.218657,-0.1034222 l 0.501547,-1.4018309 0.69673,1.3153754 c 0.04449,0.083904 0.149554,0.1161055 0.233456,0.071618 l 0.768061,-0.4071484 c 0.08391,-0.044495 0.116096,-0.1495573 0.07164,-0.2334506 l -0.608186,-1.1467137 1.222314,0.4373216 c 0.08942,0.031996 0.186663,-0.013999 0.218656,-0.1034222 L 15.64008,3.9430145 C 15.67208,3.8535935 15.62616,3.7563537 15.536658,3.724358 L 14.219299,3.2530327 15.484637,2.6545385 c 0.08585,-0.040607 0.121836,-0.1411851 0.08123,-0.227039 l -0.373,-0.7885964 c -0.04061,-0.085854 -0.141188,-0.1218378 -0.227038,-0.08123 l -1.265338,0.5984934 0.471325,-1.31735451 c 0.032,-0.0894209 -0.01407,-0.18666556 -0.103422,-0.21865598 z m -0.32093,2.18711495 a 0.8667671,0.86676593 37.475734 0 1 0.523895,1.1076193 0.8667671,0.86676593 37.475734 0 1 -1.108564,0.5265339 0.8667671,0.86676593 37.475734 0 1 -0.522948,-1.1102587 0.8667671,0.86676593 37.475734 0 1 1.107617,-0.5238945 z" />
  </g>
</svg>
