<?xml version="1.0" encoding="UTF-8" standalone="no"?>
<!-- Created with Inkscape (http://www.inkscape.org/) -->

<svg
   width="16"
   height="16"
   viewBox="0 0 16 16"
   version="1.1"
   id="svg5"
   inkscape:version="1.1.1 (3bf5ae0d25, 2021-09-20)"
   sodipodi:docname="inscripcione.svg"
   xmlns:inkscape="http://www.inkscape.org/namespaces/inkscape"
   xmlns:sodipodi="http://sodipodi.sourceforge.net/DTD/sodipodi-0.dtd"
   xmlns="http://www.w3.org/2000/svg"
   xmlns:svg="http://www.w3.org/2000/svg">
  <sodipodi:namedview
     id="namedview7"
     pagecolor="#505050"
     bordercolor="#ffffff"
     borderopacity="1"
     inkscape:pageshadow="0"
     inkscape:pageopacity="0"
     inkscape:pagecheckerboard="1"
     inkscape:document-units="px"
     showgrid="false"
     inkscape:zoom="16"
     inkscape:cx="3.71875"
     inkscape:cy="6.09375"
     inkscape:window-width="1366"
     inkscape:window-height="715"
     inkscape:window-x="1272"
     inkscape:window-y="115"
     inkscape:window-maximized="1"
     inkscape:current-layer="g4900"
     inkscape:snap-global="false" />
  <defs
     id="defs2" />
  <g
     inkscape:label="Capa 1"
     inkscape:groupmode="layer"
     id="layer1">
    <g
       id="g4900">
      <path
         style="display:inline;fill:#cccccc;fill-opacity:1;stroke-width:1"
         d="m 4.6484375,13.945353 c 0.3308594,-0.0051 0.8722656,-0.0051 1.203125,0 0.3308594,0.0051 0.060156,0.0092 -0.6015625,0.0092 -0.6617188,0 -0.9324219,-0.0041 -0.6015625,-0.0092 z m 3.3304681,-3.1e-5 c 0.7360544,-0.0047 1.9313669,-0.0047 2.6562504,4e-6 0.724883,0.0047 0.122657,0.0085 -1.338281,0.0085 -1.4609375,-2e-6 -2.0540238,-0.0038 -1.3179694,-0.0085 z M 11.375,9.6979166 c 0,-1.5927082 0.0054,-2.8899738 0.01196,-2.8828125 0.0066,0.00716 0.189048,0.2214134 0.405491,0.4761156 l 0.393533,0.4630947 -0.01882,0.3806553 c -0.02179,0.4407659 0.0278,0.7727275 0.162748,1.08938 0.0463,0.1086387 0.09088,0.2497856 0.09907,0.3136597 l 0.01489,0.116134 -0.354745,0.00887 -0.354744,0.00887 v 0.8906246 0.890625 l 0.101563,0.0098 0.101562,0.0098 v 0.56052 0.56052 H 11.65625 11.375 Z m 0.889612,-3.7756122 c -0.08056,-0.094295 -0.192321,-0.1997828 -0.24836,-0.2344169 -0.142775,-0.088239 -0.346937,-0.1098388 -0.50844,-0.05379 L 11.375,5.6801897 V 3.5275947 1.375 h 0.53125 0.53125 v 2.359375 c 0,1.2976562 -0.0059,2.359375 -0.01321,2.359375 -0.0073,0 -0.07912,-0.077151 -0.159679,-0.1714456 z"
         id="path4918" />
      <path
         style="display:inline;fill:#cccccc;fill-opacity:1;stroke-width:1"
         d="m 0.8671875,14.632967 c 0.1589844,-0.0057 0.4191406,-0.0057 0.578125,0 0.1589844,0.0057 0.028906,0.01031 -0.2890625,0.01031 -0.31796875,0 -0.44804687,-0.0046 -0.2890625,-0.01031 z m 4.296875,-1.57e-4 c 1.5597656,-0.0045 4.1121094,-0.0045 5.6718755,0 1.559765,0.0045 0.283593,0.0081 -2.835938,0.0081 -3.1195312,0 -4.3957031,-0.0037 -2.8359375,-0.0081 z m 9.3906255,1.57e-4 c 0.158984,-0.0057 0.41914,-0.0057 0.578125,0 0.158984,0.0057 0.02891,0.01031 -0.289063,0.01031 -0.317969,0 -0.448047,-0.0046 -0.289062,-0.01031 z M 4.0442212,13.375 c 0,-0.317969 0.00464,-0.448047 0.010312,-0.289062 0.00567,0.158984 0.00567,0.41914 0,0.578125 -0.00567,0.158984 -0.010312,0.02891 -0.010312,-0.289063 z m 7.9062498,0 c 0,-0.317969 0.0046,-0.448047 0.01031,-0.289062 0.0057,0.158984 0.0057,0.41914 0,0.578125 -0.0057,0.158984 -0.01031,0.02891 -0.01031,-0.289063 z M 4.625,9.7005719 V 6.8073934 L 4.7325594,6.6761316 C 4.8685294,6.5101981 4.9116434,6.3977391 4.9106378,6.21163 4.9096941,6.0368894 4.8445569,5.8861556 4.7173081,5.7642438 4.6334291,5.6838822 4.0376875,5.5525176 4.2051381,5.4707159 L 4.6249659,5.265625 5.5816412,5.274335 C 6.2686819,5.280585 6.5505322,5.272905 6.5816584,5.247071 6.6365114,5.201547 6.6433034,4.1453138 6.5899784,3.9532316 6.5464856,3.7965628 6.3258625,3.56986 6.1905556,3.5427988 6.100745,3.5248366 6.0958869,3.5181853 6.1383253,3.4712909 6.2921672,3.3012978 6.3199006,3.0061996 6.2051894,2.759824 5.9773509,2.2704748 5.2756922,2.2708534 5.0259134,2.7604603 c -0.094708,0.1856422 -0.091185,0.4098169 0.00949,0.60386 L 5.1155394,3.5187788 4.97852,3.5754498 C 4.8419362,3.6319413 4.7182387,3.7606775 4.6597684,3.9071838 4.6387406,3.9598719 4.2633006,3.602909 4.40601,2.7238816 L 4.625,1.375 H 8 11.375 l 0.331463,0.6926317 -0.33145,0.6042433 -2.0194314,-0.00849 c -1.5040904,-0.00632 -2.0306469,8.228e-4 -2.0633819,0.02799 -0.034541,0.028667 -0.04209,0.1241457 -0.035262,0.4459853 l 0.00869,0.4095097 h 2.0546897 2.0546906 v 0.125 0.125 H 9.3203147 7.265625 l -0.00869,0.4095097 c -0.00683,0.3218397 7.219e-4,0.4173184 0.035262,0.4459853 0.032735,0.027168 0.5592916,0.03431 2.0633819,0.02799 L 11.37501,4.671865 11.70646,5.2619355 11.374997,5.6752297 11.264766,5.78207 c -0.181002,0.1754341 -0.23932,0.4868275 -0.131525,0.702295 0.0172,0.034375 0.07863,0.1211166 0.136512,0.1927594 L 11.375,6.8073934 11.662262,9.7005719 11.375,12.59375 H 9.015625 6.65625 V 12.328125 12.0625 h 1.5145256 c 1.4486316,0 1.5158891,-0.0025 1.5458691,-0.05857 C 9.7421927,11.95619 9.6932857,11.854799 9.4521191,11.455524 9.2893913,11.186116 9.15625,10.953316 9.15625,10.938195 c 0,-0.01512 0.1328441,-0.248788 0.2952088,-0.519262 C 9.6887653,10.02362 9.7406494,9.9159191 9.7159844,9.8698322 9.6869313,9.8155459 9.6116819,9.8125 8.2995669,9.8125 H 6.9138325 L 6.8743897,9.7172762 C 6.7806856,9.491055 6.3663406,9.4701159 6.2509262,9.6857691 6.2318559,9.7214022 6.21875,10.007124 6.21875,10.387238 v 0.641348 l 0.1093741,0.08727 0.109374,0.08727 1e-6,0.695312 9e-7,0.695313 H 5.53125 4.625 Z m 6.283424,-1.2188163 c 0.02981,-0.035918 0.03207,-0.063778 0.0082,-0.1015625 C 10.886394,8.3322156 10.657246,8.328125 8,8.328125 c -2.6572456,0 -2.8863938,0.00409 -2.9166569,0.052068 -0.023834,0.037785 -0.021576,0.065645 0.00823,0.1015625 C 5.1285087,8.5262569 5.421925,8.53125 8,8.53125 c 2.578075,0 2.871491,-0.00499 2.908424,-0.049494 z M 10.88805,7.5526219 c 0.03094,-0.02262 0.05101,-0.068323 0.04461,-0.1015625 C 10.921251,7.3918275 10.862895,7.390625 8,7.390625 c -2.8628953,0 -2.9212506,0.0012 -2.9326578,0.060434 C 5.0394503,7.5958909 4.9954484,7.59375 8,7.59375 c 2.291969,0 2.842527,-0.00784 2.88805,-0.041128 z M 10.921875,6.53125 V 6.453125 L 8.0068934,6.445155 C 5.4352753,6.438125 5.0897859,6.442725 5.0738628,6.484218 c -0.00993,0.02587 -0.00993,0.068202 0,0.094073 0.015923,0.041496 0.3614125,0.046097 2.9330306,0.039063 L 10.921875,6.609375 Z M 0.13864819,10.5625 c 0,-0.455469 0.004369,-0.6417969 0.009708,-0.414062 0.005339,0.227734 0.005339,0.60039 0,0.828125 -0.005339,0.227734 -0.009708,0.04141 -0.009708,-0.414063 z m 15.71874981,0 c 0,-0.455469 0.0044,-0.6417969 0.0097,-0.414062 0.0053,0.227734 0.0053,0.60039 0,0.828125 -0.0053,0.227734 -0.0097,0.04141 -0.0097,-0.414063 z M 3.3581656,2.6875 c 0,-0.7992188 0.00405,-1.1261719 0.00899,-0.7265625 0.00495,0.3996094 0.00495,1.0535156 0,1.453125 -0.00495,0.3996094 -0.00899,0.072656 -0.00899,-0.7265625 z m 9.2812504,0 c 0,-0.7992188 0.004,-1.1261719 0.009,-0.7265625 0.0049,0.3996094 0.0049,1.0535156 0,1.453125 -0.0049,0.3996094 -0.009,0.072656 -0.009,-0.7265625 z"
         id="path4916"
         sodipodi:nodetypes="cssccssccsscssssscssccsssscccsssssccsssccccccsccccccccssccccssscccccccscssssscsssccccccccscsscssccssscccscccccssssssssscssscss" />
      <path
         style="display:inline;fill:#cccccc;fill-opacity:1;stroke-width:1"
         d="M 14.021447,12.725222 14.375,11.46875 h 0.515625 0.515625 V 12.703125 13.9375 H 14.890625 14.375 Z M 11.507813,12.60203 c 0.08164,-0.0064 0.215234,-0.0064 0.296875,0 0.08164,0.0064 0.01484,0.0117 -0.148438,0.0117 -0.163281,0 -0.230078,-0.0053 -0.148437,-0.0117 z M 4.6087387,9.703125 c 1.6e-6,-1.5984375 0.0038,-2.2477641 0.00844,-1.4429481 0.00464,0.8048162 0.00464,2.1126291 -3.5e-6,2.9062501 -0.00464,0.793621 -0.00844,0.135135 -0.00844,-1.463302 z m 1.842161,2.1875 c 2.19e-5,-0.395312 0.0045,-0.552722 0.00995,-0.349799 0.00545,0.202922 0.00543,0.52636 -3.13e-5,0.71875 -0.00547,0.192389 -0.00993,0.02636 -0.00991,-0.368951 z M 6.5703125,7.5703203 c 0.7863281,-0.00465 2.0730469,-0.00465 2.859375,0 0.7863285,0.00465 0.1429688,0.00845 -1.4296875,0.00845 -1.5726562,0 -2.2160156,-0.0038 -1.4296875,-0.00845 z M 11.067434,6.21875 c 0,-0.042969 0.0071,-0.060547 0.01576,-0.039063 0.0087,0.021484 0.0087,0.056641 0,0.078125 -0.0087,0.021484 -0.01576,0.00391 -0.01576,-0.039062 z M 4.6145834,5.6979166 C 4.603125,5.6864584 4.5971556,4.7055991 4.6013178,3.5182291 l 0.00757,-2.1588541 0.0083,1.9189647 c 0.00637,1.4719509 0.017342,1.9301394 0.04712,1.9669362 0.031454,0.038868 0.030917,0.043215 -0.00283,0.022903 -0.033583,-0.020212 -0.039637,0.021014 -0.03125,0.212824 0.00572,0.130841 0.00923,0.2378597 0.0078,0.2378197 -0.00143,-3.12e-5 -0.011979,-0.00945 -0.023437,-0.020906 z M 4.796875,3.6875 C 4.827984,3.653125 4.860468,3.625 4.869062,3.625 4.877652,3.625 4.859232,3.653125 4.828125,3.6875 4.797016,3.721875 4.764532,3.75 4.755938,3.75 c -0.00859,0 0.00983,-0.028125 0.040937,-0.0625 z m 0.1455591,-0.625 c 0,-0.042969 0.00709,-0.060547 0.015762,-0.039063 0.00867,0.021484 0.00867,0.056641 0,0.078125 -0.00867,0.021484 -0.015762,0.00391 -0.015762,-0.039063 z M 6.0751559,2.5859375 6.015625,2.515625 6.085937,2.575156 c 0.038672,0.032742 0.070312,0.064383 0.070312,0.070312 0,0.025008 -0.02515,0.00655 -0.081094,-0.059531 z M 5.5859375,2.3855537 c 0.021484,-0.00867 0.056641,-0.00867 0.078125,0 0.021484,0.00867 0.00391,0.015762 -0.039063,0.015762 -0.042969,0 -0.060547,-0.00709 -0.039062,-0.015762 z M 11.632813,1.3517323 c 0.15039,-0.00573 0.396484,-0.00573 0.546875,0 0.15039,0.00573 0.02734,0.010415 -0.273438,0.010415 -0.300781,0 -0.423828,-0.00469 -0.273437,-0.010415 z"
         id="path4914"
         sodipodi:nodetypes="cccccccccsssscsccccscccssssscssccccsssccccscscccsccccsscccssccssc" />
      <path
         style="display:inline;fill:#cccccc;fill-opacity:1;stroke-width:1"
         d="m 13.273438,13.945685 -1.117188,-0.009 V 12.70273 11.46875 H 13.265625 14.375 v 1.234375 1.234375 h 0.515262 0.515263 l 0.0087,-1.210937 0.0087,-1.210938 -5.44e-4,1.21875 -5.43e-4,1.21875 -0.515625,7.69e-4 c -0.283594,4.22e-4 -1.01836,-0.0033 -1.632813,-0.0082 z M 1.359375,12.710937 v -1.234375 l 1.375,-0.0078 H 3.84375 V 12.703125 13.9375 H 2.734375 l -1.375,0.0078 c 0,-0.411458 -1.73760843,-0.822916 0,-1.234375 z m 3.7284941,-0.109322 c 0.2631715,-0.0052 0.6850465,-0.0052 0.9375,2.6e-5 0.2524531,0.0052 0.037131,0.0095 -0.4784941,0.0095 -0.515625,-1.4e-5 -0.7221778,-0.0043 -0.4590059,-0.0095 z m 2.7301293,-3.1e-5 c 0.6475554,-0.0047 1.7163053,-0.0047 2.3749996,-5e-6 0.658695,0.0047 0.128877,0.0086 -1.177373,0.0086 -1.30625,3e-6 -1.8451819,-0.0039 -1.1976266,-0.0086 z M 4.0625,12.03323 v -0.56052 l 0.1015625,-0.0098 0.1015625,-0.0098 V 10.5625 9.671875 L 3.9140625,9.6630391 3.5625,9.6542031 V 9.5566791 C 3.5625,9.5030411 3.596349,9.387486 3.63772,9.29989 3.67909,9.212294 3.735647,9.05625 3.7634025,8.953125 3.8285335,8.7111247 3.8580305,8.1913934 3.8198445,7.9586269 L 3.7899869,7.7766288 4.1805972,7.3180019 C 4.3954325,7.0657572 4.5762794,6.8535156 4.5824784,6.8463541 4.5886778,6.8391928 5.133233,8.0501662 5.133233,9.6342806 L 4.59375,12.59375 H 4.328125 4.0625 Z m 7.887971,-0.002 c 0,-0.317969 0.0046,-0.448047 0.01031,-0.289062 0.0057,0.158984 0.0057,0.41914 0,0.578125 -0.0057,0.158984 -0.01031,0.02891 -0.01031,-0.289063 z m 1.94332,-2.5546875 C 13.883563,9.3777344 13.839136,8.7835938 13.795063,8.15625 13.749934,7.5138672 13.695165,6.9448419 13.66968,6.8535812 13.61555,6.6597456 13.513309,6.5210884 13.025249,5.9796156 l -0.370466,-0.4110094 0.0085,-0.5554393 0.0085,-0.5554394 0.961672,1.07421 c 0.622952,0.6958525 0.988949,1.1299631 1.039116,1.2325012 0.07227,0.1477188 0.0837,0.2424704 0.171141,1.4185982 0.05153,0.6931687 0.0937,1.3082106 0.0937,1.36676 V 9.65625 h -0.512557 -0.512556 z m -7.3859785,0.064396 c 0.030078,-0.00786 0.079297,-0.00786 0.109375,0 0.030078,0.00786 0.00547,0.014292 -0.054687,0.014292 -0.060156,0 -0.084766,-0.00643 -0.054688,-0.014292 z M 3.5625,3.7530803 V 1.375 H 4.078125 4.59375 V 3.5181081 5.6612159 L 4.4921875,5.6354328 C 4.1968356,5.5604537 3.9692675,5.6501609 3.7264556,5.9372841 L 3.5625,6.1311603 Z M 6.6067212,4.625 c 0,-0.3179688 0.00464,-0.4480469 0.010312,-0.2890625 0.00567,0.1589844 0.00567,0.4191406 0,0.578125 C 6.6113619,5.0730469 6.6067212,4.9429688 6.6067212,4.625 Z M 6.3046875,1.3515682 c 0.9324219,-0.0046 2.4582031,-0.0046 3.390625,0 0.9324215,0.0046 0.1695313,0.00836 -1.6953125,0.00836 -1.8648438,0 -2.6277344,-0.00376 -1.6953125,-0.00836 z"
         id="path4912"
         sodipodi:nodetypes="ccccccccccccccsccccccccccccccccccscccsccccccsssscsssccccscsscssscccsscsccccscsscsccccssccsssssssss" />
      <path
         style="display:inline;fill:#cccccc;fill-opacity:1;stroke-width:1"
         d="M 1.1171875,13.945366 0.59375,13.935989 V 12.702369 11.46875 H 1.109375 1.625 v 1.23398 1.233981 l 1.1171875,0.0086 1.1171875,0.0086 -1.109375,4e-4 c -0.6101563,2.18e-4 -1.3449219,-0.0038 -1.6328125,-0.009 z m 11.5957805,-1.6e-5 c 0.314788,-0.0051 0.821038,-0.0051 1.125,1.8e-5 0.303961,0.0051 0.04641,0.0093 -0.572343,0.0093 -0.61875,-10e-6 -0.867446,-0.0042 -0.552657,-0.0093 z M 4.0451084,12.58479 c -0.00849,-0.02212 -0.011197,-0.278756 -0.00602,-0.570312 l 0.00941,-0.530103 0.007,0.553515 0.007,0.553515 0.2890625,0.01031 0.2890625,0.01031 -0.2900431,0.0065 c -0.2124769,0.0048 -0.29417,-0.0043 -0.3054735,-0.03372 z M 6.65625,11.517731 c 0,-0.297138 0.00546,-0.327754 0.061685,-0.345597 0.033927,-0.01077 0.090177,-0.0558 0.125,-0.100071 0.057348,-0.07291 0.063315,-0.12575 0.063315,-0.560652 V 10.03125 h 1.2673963 1.2673962 l -0.072084,0.119306 C 9.3293128,10.216174 9.2195313,10.398348 9.125,10.555386 l -0.171875,0.285524 -0.5625,0.0092 -0.5625,0.0092 v 0.07813 0.07813 l 0.5625,0.0089 0.5625,0.0089 0.171875,0.285319 c 0.094531,0.156926 0.2043128,0.339263 0.2439588,0.405195 l 0.072084,0.119876 H 8.0486462 6.65625 Z m 7.9375,-0.547764 v -0.311284 l 0.273438,-0.009 c 0.268425,-0.0089 0.273437,-0.01046 0.273437,-0.08715 0,-0.07672 -0.0049,-0.07829 -0.274554,-0.08717 l -0.274554,-0.009 0.0089,-0.303454 0.0089,-0.303455 0.523438,-0.00857 0.523437,-0.00857 v 0.71943 0.719506 H 15.125 14.59375 Z M 2.1051775,9.4921875 C 2.1154235,9.4019531 2.1601613,8.8078125 2.204595,8.171875 2.250066,7.52109 2.3050968,6.9447862 2.3304778,6.8535812 2.3552797,6.7644575 2.4270874,6.6238325 2.4900505,6.5410812 2.6080383,6.3860125 3.3126444,5.59375 3.3325684,5.59375 c 0.00615,0 0.011061,0.1792969 0.010913,0.3984375 L 3.3432003,6.390625 2.9215938,6.8840069 C 2.6897229,7.1553672 2.5,7.3891922 2.5,7.4036181 2.5,7.44697 2.5875933,7.5058934 2.6354994,7.4947681 2.6601129,7.4890519 2.9750278,7.1398437 3.3353103,6.71875 3.6955928,6.2976562 4.0195697,5.9273237 4.0552591,5.8957891 4.1504462,5.8116831 4.3438091,5.7947666 4.4786422,5.8587491 4.6206403,5.9261316 4.73553,6.1426631 4.706445,6.2880878 4.6825359,6.4076322 4.651245,6.4488581 4.0456612,7.1586709 3.7039591,7.5591847 3.5656094,7.743265 3.5799709,7.7782928 c 0.011238,0.027408 0.027804,0.2052478 0.036816,0.3952 0.026483,0.5582347 -0.087543,0.9905125 -0.3529703,1.3381325 L 3.1533872,9.65625 H 2.6199678 2.0865485 Z m 10.6167825,0 C 12.464125,9.1505388 12.358262,8.7441184 12.383017,8.1909406 12.391917,7.9913919 12.408467,7.8058453 12.419737,7.7786144 12.434127,7.7438164 12.273562,7.5333138 11.879411,7.0702581 11.521817,6.6501503 11.310946,6.376545 11.29747,6.3151894 c -0.02852,-0.1298606 0.02767,-0.28566 0.142808,-0.3959722 0.08083,-0.07744 0.120154,-0.091092 0.262385,-0.091092 0.135112,0 0.183552,0.015033 0.251734,0.078125 0.04644,0.042969 0.372007,0.415625 0.723491,0.828125 0.351485,0.4125 0.659832,0.7546769 0.685216,0.7603931 0.04912,0.011062 0.1369,-0.04738 0.1369,-0.09115 0,-0.014426 -0.189723,-0.2482509 -0.421607,-0.5196112 L 12.656787,6.390625 12.656506,5.9921875 c -1.57e-4,-0.2191406 0.0048,-0.3984375 0.01091,-0.3984375 0.01992,0 0.812918,0.4387091 0.930906,0.5937778 0.06296,0.082751 0.267424,0.4112015 0.292313,0.5003252 0.02548,0.091261 0.08025,0.660286 0.125384,1.3026688 0.04407,0.6273438 0.174563,2.0931702 0.165021,1.9942737 L 13.801893,10.120289 13.379068,9.65625 H 12.845762 L 12.721947,9.4921875 Z m 2.186757,-0.2916666 c 0.0015,-0.036405 0.0089,-0.043809 0.01888,-0.01888 0.009,0.022559 0.0079,0.049512 -0.0025,0.059896 -0.01038,0.010384 -0.01777,-0.00807 -0.01641,-0.041016 z M 6.5703125,8.5078203 c 0.7863281,-0.00465 2.0730469,-0.00465 2.859375,0 0.7863285,0.00465 0.1429688,0.00845 -1.4296875,0.00845 -1.5726562,0 -2.2160156,-0.0038 -1.4296875,-0.00845 z M 12.165614,8.3125 c 0,-0.094531 0.0059,-0.1332031 0.01302,-0.085937 0.0072,0.047266 0.0072,0.1246094 0,0.171875 -0.0072,0.047266 -0.01302,0.00859 -0.01302,-0.085937 z m 2.680603,0.044271 c 0.0015,-0.036405 0.0089,-0.043809 0.01888,-0.01888 0.009,0.022559 0.0079,0.049512 -0.0025,0.059896 -0.01038,0.010384 -0.01777,-0.00807 -0.01641,-0.041016 z M 3.8149672,8.0755209 c 0.0015,-0.036405 0.0089,-0.043809 0.01888,-0.01888 0.00903,0.022559 0.00792,0.049512 -0.00247,0.059896 -0.010384,0.010384 -0.01777,-0.00807 -0.016413,-0.041016 z m 10.9999998,-0.15625 c 0.0015,-0.036405 0.0089,-0.043809 0.01888,-0.01888 0.009,0.022559 0.0079,0.049512 -0.0025,0.059896 -0.01038,0.010384 -0.01777,-0.00807 -0.01641,-0.041016 z m -0.03125,-0.4375 c 0.0015,-0.036405 0.0089,-0.043809 0.01888,-0.01888 0.009,0.022559 0.0079,0.049512 -0.0025,0.059896 -0.01038,0.010384 -0.01777,-0.00807 -0.01641,-0.041016 z m -0.03125,-0.40625 c 0.0015,-0.036405 0.0089,-0.043809 0.01888,-0.01888 0.009,0.022559 0.0079,0.049512 -0.0025,0.059896 -0.01038,0.010384 -0.01777,-0.00807 -0.01641,-0.041016 z M 14.277264,6.2578125 c -0.03887,-0.049564 -0.03777,-0.05067 0.0118,-0.011799 0.03008,0.023589 0.05469,0.048198 0.05469,0.054687 0,0.02572 -0.02566,0.00917 -0.06649,-0.042888 z m -0.264608,-0.296875 -0.05953,-0.070312 0.07031,0.059531 c 0.06608,0.055944 0.08454,0.081094 0.05953,0.081094 -0.0059,0 -0.03757,-0.031641 -0.07031,-0.070313 z m -0.28125,-0.3125 -0.05953,-0.070312 0.07031,0.059531 c 0.03867,0.032742 0.07031,0.064382 0.07031,0.070312 0,0.025008 -0.02515,0.00655 -0.08109,-0.059531 z m -1.099382,-0.65625 c -0.0065,-0.5154034 0.009,-0.6239516 0.07409,-0.5186091 0.01365,0.022082 0.0086,0.027607 -0.01304,0.01424 -0.02563,-0.015839 -0.0379,0.1266182 -0.04468,0.5186091 l -0.0093,0.5404472 z m 0.83274,0.359375 c -0.03887,-0.049564 -0.03777,-0.05067 0.0118,-0.011799 0.05205,0.040824 0.06861,0.066486 0.04289,0.066486 -0.0065,0 -0.0311,-0.024609 -0.05469,-0.054687 z m -0.264608,-0.296875 -0.05953,-0.070312 0.07031,0.059531 c 0.03867,0.032742 0.07031,0.064382 0.07031,0.070312 0,0.025008 -0.02515,0.00655 -0.08109,-0.059531 z M 4.84375,4.5198394 C 4.84375,4.0168491 4.84852,3.9711138 4.909009,3.894215 5.0307744,3.7394156 5.1140381,3.7187459 5.6156356,3.7187984 6.3631372,3.7188772 6.40625,3.7644322 6.40625,4.5542 V 5.0625 H 5.625 4.84375 Z m 8.089764,0.2379731 c -0.03887,-0.049564 -0.03777,-0.05067 0.0118,-0.011799 0.05205,0.040824 0.06861,0.066486 0.04289,0.066486 -0.0065,0 -0.0311,-0.024609 -0.05469,-0.054687 z M 7.46875,4.21875 v -0.25 h 1.84375 1.84375 v 0.25 0.25 H 9.3125 7.46875 Z M 5.3718087,3.4290647 C 5.1623162,3.2891144 5.1022091,3.0029715 5.2385831,2.7948383 5.3007062,2.7000266 5.4965447,2.59375 5.6091337,2.59375 c 0.1149269,0 0.269295,0.072469 0.3570254,0.1676072 0.099897,0.1083318 0.1261168,0.3716662 0.051395,0.5161631 C 5.9046797,3.4957947 5.58426,3.5709913 5.3718087,3.4290647 Z M 7.46875,3.125 v -0.25 h 1.84375 1.84375 v 0.25 0.25 H 9.3125 7.46875 Z M 3.8203125,1.3517322 c 0.1503906,-0.00573 0.3964844,-0.00573 0.546875,0 0.1503906,0.00573 0.027344,0.010416 -0.2734375,0.010416 -0.3007812,0 -0.4238281,-0.00469 -0.2734375,-0.010416 z"
         id="path4910"
         sodipodi:nodetypes="ccccccccccccccccccccccccccccscsscccsscccccccsscccscccscccccccccccssssscccsssssssssscccscccsssscssssccssccsccccccccccssssscsssccccccsccccccccccccccccccsssssccssccsscccccccscssccsscsssscccsscsscccccccccssssssccccccccccssc" />
      <path
         style="display:inline;fill:#cccccc;fill-opacity:1;stroke-width:1"
         d="m 0.85318566,14.820433 c 0.16847084,-0.0056 0.43565834,-0.0056 0.59375004,6.3e-5 0.1580916,0.0057 0.020252,0.01027 -0.3063107,0.01024 -0.3265625,-3e-5 -0.45591019,-0.0047 -0.28743934,-0.01029 z m 4.31087684,-1.18e-4 c 1.5597656,-0.0045 4.1121094,-0.0045 5.6718755,0 1.559765,0.0045 0.283593,0.0081 -2.835938,0.0081 -3.1195312,0 -4.3957031,-0.0037 -2.8359375,-0.0081 z m 9.4078735,1.25e-4 c 0.168471,-0.0056 0.435658,-0.0056 0.59375,6.2e-5 0.158091,0.0057 0.02025,0.01027 -0.306311,0.01024 -0.326562,-3e-5 -0.45591,-0.0047 -0.287439,-0.01029 z m -14.00199241,-2.109502 0.007444,-1.257813 0.008539,1.241433 0.008539,1.241434 0.52307961,0.0094 0.5230796,0.0094 -0.5390625,0.007 -0.53906252,0.007 z m 4.07849391,0.07817 c 0.3308594,-0.0051 0.8722656,-0.0051 1.203125,0 0.3308594,0.0051 0.060156,0.0092 -0.6015625,0.0092 -0.6617188,0 -0.9324219,-0.0041 -0.6015625,-0.0092 z m 3.3304681,-3.1e-5 c 0.7360544,-0.0047 1.9313669,-0.0047 2.6562504,4e-6 0.724883,0.0047 0.122657,0.0085 -1.338281,0.0085 -1.4609375,-2e-6 -2.0540238,-0.0038 -1.3179694,-0.0085 z M 7.3984375,12.039089 c 0.4167969,-0.0049 1.0988281,-0.0049 1.515625,0 0.4167969,0.0049 0.075781,0.0089 -0.7578125,0.0089 -0.8335938,0 -1.1746094,-0.004 -0.7578125,-0.0089 z m 0.1875,-2.2187452 c 0.3824219,-0.00497 1.0082031,-0.00497 1.390625,0 0.3824219,0.00497 0.069531,0.00904 -0.6953125,0.00904 -0.7648438,0 -1.0777344,-0.00407 -0.6953125,-0.00904 z M 1.0629054,9.5234375 C 1.0631273,9.4503906 1.1046249,8.8325369 1.1551198,8.1504291 1.2582157,6.7577647 1.2553909,6.7702866 1.5383405,6.4517156 1.6139805,6.3665534 2.0511412,5.8783634 2.5098088,5.3668491 L 3.34375,4.4368234 3.6641578,4.8025601 C 3.792706,4.9492944 3.34891,5.4191641 3.355225,5.7527872 c 0.0078,0.4125666 0.556369,0.2073645 0.3346948,0.065197 v 0 L 3.1431036,6.1429687 C 2.525042,6.5102959 3.1184273,6.9032525 2.5882903,6.8926437 2.4936385,6.8907496 2.2444685,7.9179904 2.8454105,8.171875 4.3506674,8.8078125 2.0169434,9.5136809 2.1051775,9.4921875 2.6915234,9.3493565 2.0927582,9.6015625 2.0865485,9.65625 H 1.5745243 1.0625 Z m 13.8770616,0.020833 c 0.0015,-0.036405 0.0089,-0.043809 0.01888,-0.01888 0.009,0.022559 0.0079,0.049512 -0.0025,0.059896 -0.01038,0.010384 -0.01777,-0.00807 -0.01641,-0.041016 z m -0.03125,-0.4375 c 0.0015,-0.036405 0.0089,-0.043809 0.01888,-0.01888 0.009,0.022559 0.0079,0.049512 -0.0025,0.059896 -0.01038,0.010384 -0.01777,-0.00807 -0.01641,-0.041016 z m -0.03125,-0.40625 c 0.0015,-0.036405 0.0089,-0.043809 0.01888,-0.01888 0.009,0.022559 0.0079,0.049512 -0.0025,0.059896 -0.01038,0.010384 -0.01777,-0.00807 -0.01641,-0.041016 z M 3.8203806,8.421875 c 3.469e-4,-0.06875 0.00675,-0.093195 0.014221,-0.054323 0.00747,0.038872 0.00719,0.095122 -6.313e-4,0.125 -0.00782,0.029878 -0.013937,-0.00193 -0.013591,-0.070677 z M 6.5703125,8.3203203 c 0.7863281,-0.00465 2.0730469,-0.00465 2.859375,0 0.7863285,0.00465 0.1429688,0.00845 -1.4296875,0.00845 -1.5726562,0 -2.2160156,-0.0038 -1.4296875,-0.00845 z m 8.2759045,-0.057299 c 0.0015,-0.036405 0.0089,-0.043809 0.01888,-0.01888 0.009,0.022559 0.0079,0.049512 -0.0025,0.059896 -0.01038,0.010384 -0.01777,-0.00807 -0.01641,-0.041016 z M 3.8149672,8.1692709 c 0.0015,-0.036405 0.0089,-0.043809 0.01888,-0.01888 0.00903,0.022559 0.00792,0.049512 -0.00247,0.059896 -0.010384,0.010384 -0.01777,-0.00807 -0.016413,-0.041016 z m 10.9999998,-0.34375 c 0.0015,-0.036405 0.0089,-0.043809 0.01888,-0.01888 0.009,0.022559 0.0079,0.049512 -0.0025,0.059896 -0.01038,0.010384 -0.01777,-0.00807 -0.01641,-0.041016 z M 13.277264,7.4453125 c -0.03887,-0.049564 -0.03777,-0.05067 0.0118,-0.011799 0.05205,0.040824 0.06861,0.066486 0.04289,0.066486 -0.0065,0 -0.0311,-0.024609 -0.05469,-0.054687 z m 1.506453,-0.057292 c 0.0015,-0.036405 0.0089,-0.043809 0.01888,-0.01888 0.009,0.022559 0.0079,0.049512 -0.0025,0.059896 -0.01038,0.010384 -0.01777,-0.00807 -0.01641,-0.041016 z M 2.6875,7.1444513 c 0,-0.00649 0.024609,-0.031098 0.054687,-0.054687 0.049564,-0.038871 0.05067,-0.037766 0.011799,0.011799 C 2.7131621,7.1536172 2.6875,7.1701712 2.6875,7.1444513 Z m 8.933514,-0.3553888 c -0.03887,-0.049564 -0.03777,-0.05067 0.0118,-0.011799 0.05205,0.040824 0.06861,0.066486 0.04289,0.066486 -0.0065,0 -0.0311,-0.024609 -0.05469,-0.054687 z m 0.9375,-0.1875 c -0.03887,-0.049564 -0.03777,-0.05067 0.0118,-0.011799 0.03008,0.023589 0.05469,0.048198 0.05469,0.054687 0,0.02572 -0.02566,0.00917 -0.06649,-0.042888 z M 12.63733,5.953125 c 6.2e-5,-0.240625 0.005,-0.3349316 0.0109,-0.2095703 0.0059,0.1253612 0.0059,0.3222362 -9.4e-5,0.4375 -0.006,0.1152637 -0.01086,0.012695 -0.01081,-0.2279297 z M 3.984375,5.9375 C 4.015484,5.903125 4.047968,5.875 4.056562,5.875 4.065152,5.875 4.046732,5.903125 4.015625,5.9375 3.9845159,5.971875 3.9520319,6 3.9434381,6 3.9348444,6 3.9532659,5.971875 3.984375,5.9375 Z m 7.40625,0 c 0.03111,-0.034375 0.06359,-0.0625 0.07219,-0.0625 0.0086,0 -0.0098,0.028125 -0.04094,0.0625 C 11.390766,5.971875 11.358282,6 11.349688,6 c -0.0086,0 0.0098,-0.028125 0.04094,-0.0625 z m 0.590781,-0.00781 -0.05953,-0.070312 0.07031,0.059531 c 0.03867,0.032742 0.07031,0.064382 0.07031,0.070312 0,0.025008 -0.02515,0.00655 -0.08109,-0.059531 z m -7.1619238,-1.359375 0.00698,-0.5234375 0.00941,0.5072775 0.00941,0.5072775 0.788291,0.00891 0.7882909,0.00891 -0.8046875,0.00725 L 4.8125,5.09375 Z m 3.5008303,0.093766 c 0.5457031,-0.00479 1.4386719,-0.00479 1.9843755,0 0.545703,0.00479 0.09922,0.00871 -0.992188,0.00871 -1.0914062,0 -1.5378906,-0.00392 -0.9921875,-0.00871 z M 7.4484191,4.21875 c 0,-0.1460938 0.00538,-0.2058594 0.011963,-0.1328125 0.00658,0.073047 0.00658,0.1925781 0,0.265625 -0.00658,0.073047 -0.011963,0.013281 -0.011963,-0.1328125 z m 3.7187499,0 c 0,-0.1460938 0.0054,-0.2058594 0.01196,-0.1328125 0.0066,0.073047 0.0066,0.1925781 0,0.265625 -0.0066,0.073047 -0.01196,0.013281 -0.01196,-0.1328125 z M 6.4022638,3.6953125 c -0.038871,-0.049564 -0.037766,-0.05067 0.011799,-0.011799 0.052055,0.040824 0.068609,0.066486 0.042889,0.066486 -0.00649,0 -0.031098,-0.024609 -0.054688,-0.054687 z M 5.5859375,3.5105538 c 0.021484,-0.00867 0.056641,-0.00867 0.078125,0 0.021484,0.00867 0.00391,0.015762 -0.039063,0.015762 -0.042969,0 -0.060547,-0.00709 -0.039062,-0.015762 z M 7.4484191,3.125 c 0,-0.1460937 0.00538,-0.2058594 0.011963,-0.1328125 0.00658,0.073047 0.00658,0.1925781 0,0.265625 -0.00658,0.073047 -0.011963,0.013281 -0.011963,-0.1328125 z m 3.7187499,0 c 0,-0.1460937 0.0054,-0.2058594 0.01196,-0.1328125 0.0066,0.073047 0.0066,0.1925781 0,0.265625 -0.0066,0.073047 -0.01196,0.013281 -0.01196,-0.1328125 z M 6.0674341,3.0625 c 0,-0.042969 0.00709,-0.060547 0.015762,-0.039063 0.00867,0.021484 0.00867,0.056641 0,0.078125 -0.00867,0.021484 -0.015762,0.00391 -0.015762,-0.039063 z M 6.2560922,3.046875 c 6.375e-4,-0.051563 0.00764,-0.068873 0.015564,-0.038468 0.00792,0.030405 0.0074,0.072593 -0.00116,0.09375 -0.00856,0.021157 -0.015041,-0.00372 -0.014404,-0.055282 z M 8.3203125,2.6640784 c 0.5457031,-0.00479 1.4386719,-0.00479 1.9843755,0 0.545703,0.00479 0.09922,0.00871 -0.992188,0.00871 -1.0914062,0 -1.5378906,-0.00392 -0.9921875,-0.00871 z M 5.7109375,1.1640657 c 1.2589844,-0.00452 3.3191406,-0.00452 4.5781255,0 1.258984,0.00452 0.228906,0.00822 -2.289063,0.00822 -2.5179687,0 -3.5480469,-0.0037 -2.2890625,-0.00822 z"
         id="path4908"
         sodipodi:nodetypes="ccscccsscccscccccccccccssssccsccsssssssscssscscscsssscccccccccccccccccccsssssssssccccccsccccccccscsscccccssssscsscssccscccsscsscscsccccssccccccccccssssscssscsssssscsscscssscssccsccscssssssssss" />
      <path
         style="display:inline;fill:#cccccc;fill-opacity:1;stroke-width:1"
         d="m 4.2265625,14.132814 c 2.0753906,-0.0044 5.4714844,-0.0044 7.5468755,0 2.07539,0.0044 0.377343,0.0081 -3.773438,0.0081 -4.1507812,0 -5.8488281,-0.0036 -3.7734375,-0.0081 z M 0.38929981,12.765625 c 7.75e-6,-0.721875 0.004107,-1.012725 0.00911,-0.646334 0.005003,0.366391 0.004996,0.957017 -1.409e-5,1.3125 -0.00501,0.355484 -0.009103,0.05571 -0.009096,-0.666166 z m 15.21875019,0 c 7e-6,-0.721875 0.0041,-1.012725 0.0091,-0.646334 0.005,0.366391 0.005,0.957017 -1.4e-5,1.3125 -0.005,0.355484 -0.0091,0.05571 -0.0091,-0.666166 z m -11.7500591,-0.0625 c 8.5e-6,-0.6875 0.00413,-0.964298 0.00917,-0.615106 0.00503,0.349191 0.00503,0.911691 -1.53e-5,1.25 -0.00504,0.338308 -0.00916,0.05261 -0.00915,-0.634894 z m 8.2812501,0 c 8e-6,-0.6875 0.0041,-0.964298 0.0092,-0.615106 0.005,0.349191 0.005,0.911691 -1.5e-5,1.25 -0.005,0.338308 -0.0092,0.05261 -0.0092,-0.634894 z M 7.3515625,11.851593 c 0.3910156,-0.005 1.0308594,-0.005 1.421875,0 0.3910156,0.005 0.071094,0.009 -0.7109375,0.009 -0.7820313,0 -1.1019531,-0.0041 -0.7109375,-0.009 z M 11.732459,10.5625 c 0,-0.472656 0.0043,-0.6660156 0.0097,-0.429687 0.0053,0.236328 0.0053,0.623046 0,0.859375 -0.0053,0.236328 -0.0097,0.04297 -0.0097,-0.429688 z M 1.40625,10.972093 c 0,-0.245978 0.00958,-0.312832 0.046875,-0.327144 C 1.4789063,10.635056 1.5,10.597954 1.5,10.5625 1.5,10.527046 1.4789063,10.489944 1.453125,10.480051 1.4158293,10.465739 1.40625,10.398885 1.40625,10.152907 V 9.84375 H 2.75 4.09375 v 0.31211 0.31211 l -1.1328125,0.0082 -1.1328125,0.0082 v 0.07813 0.07813 l 1.1328125,0.0082 1.1328125,0.0082 v 0.31211 0.31211 H 2.75 1.40625 Z m 10.506681,0.0045 0.0089,-0.304688 1.125,-0.01563 1.125,-0.01563 v -0.07813 -0.07813 l -1.133939,-0.0082 -1.13394,-0.0082 0.0089,-0.304296 0.0089,-0.304297 1.335938,-0.00815 1.335937,-0.00815 0.198874,0.309492 c 0.133136,0.207189 -0.208474,0.313166 -0.245744,0.32748 -0.02578,0.0099 -0.04687,0.047 -0.04687,0.08245 0,0.03545 0.02109,0.07256 0.04687,0.08245 0.0373,0.01431 0.410877,0.127034 0.267841,0.327144 l -0.220971,0.309142 h -1.344759 -1.344881 z m -5.4575738,-0.0257 C 6.4144978,10.910033 6.40625,10.810954 6.40625,10.360969 c 0,-0.5913518 0.00979,-0.624679 0.1777978,-0.6054146 l 0.087827,0.010071 0.00852,0.5914666 c 0.00886,0.614592 0.00373,0.641269 -0.1234778,0.64243 -0.028851,2.5e-4 -0.074554,-0.02162 -0.1015625,-0.04863 z m 1.0837053,-0.943045 c 0.3566406,-0.005 0.9402344,-0.005 1.296875,0 0.3566406,0.005 0.064844,0.0091 -0.6484375,0.0091 -0.7132812,0 -1.0050781,-0.0041 -0.6484375,-0.0091 z M 1.0373422,9.578125 c 6.368e-4,-0.051562 0.00764,-0.068873 0.015564,-0.038468 0.00792,0.030405 0.0074,0.072593 -0.00116,0.09375 -0.00856,0.021157 -0.015043,-0.00372 -0.014406,-0.055282 z M 3.5385,9.5625 c 0,-0.060156 0.00643,-0.084766 0.014292,-0.054687 0.00786,0.030078 0.00786,0.079297 0,0.109375 C 3.5449313,9.6472656 3.5385,9.6226563 3.5385,9.5625 Z m 8.906881,-0.015625 c 3.46e-4,-0.06875 0.0067,-0.093195 0.01422,-0.054323 0.0075,0.038872 0.0072,0.095122 -6.31e-4,0.125 -0.0078,0.029878 -0.01394,-0.00193 -0.01359,-0.070677 z m 2.494586,-0.096354 c 0.0015,-0.036405 0.0089,-0.043809 0.01888,-0.01888 0.009,0.022559 0.0079,0.049512 -0.0025,0.059896 -0.01038,0.010384 -0.01777,-0.00807 -0.01641,-0.041016 z M 1.0685922,9.140625 c 6.368e-4,-0.051562 0.00764,-0.068873 0.015564,-0.038468 0.00792,0.030405 0.0074,0.072593 -0.00116,0.09375 -0.00856,0.021157 -0.015043,-0.00372 -0.014406,-0.055282 z M 14.908717,9.0130209 c 0.0015,-0.036405 0.0089,-0.043809 0.01888,-0.01888 0.009,0.022559 0.0079,0.049512 -0.0025,0.059896 -0.01038,0.010384 -0.01777,-0.00807 -0.01641,-0.041016 z M 1.0998422,8.703125 c 6.368e-4,-0.051562 0.00764,-0.068873 0.015564,-0.038468 0.00792,0.030405 0.0074,0.072593 -0.00116,0.09375 -0.00856,0.021157 -0.015043,-0.00372 -0.014406,-0.055282 z M 14.877467,8.6067709 c 0.0015,-0.036405 0.0089,-0.043809 0.01888,-0.01888 0.009,0.022559 0.0079,0.049512 -0.0025,0.059896 -0.01038,0.010384 -0.01777,-0.00807 -0.01641,-0.041016 z M 3.6343644,8.3125 c 0,-0.094531 0.00586,-0.1332031 0.013018,-0.085937 0.00716,0.047266 0.00716,0.1246094 0,0.171875 -0.00716,0.047266 -0.013018,0.00859 -0.013018,-0.085937 z m 8.7187496,0 c 0,-0.094531 0.0059,-0.1332031 0.01302,-0.085937 0.0072,0.047266 0.0072,0.1246094 0,0.171875 -0.0072,0.047266 -0.01302,0.00859 -0.01302,-0.085937 z M 1.1299342,8.28125 c 0,-0.042969 0.00709,-0.060547 0.015762,-0.039063 0.00867,0.021484 0.00867,0.056641 0,0.078125 -0.00867,0.021484 -0.015762,0.00391 -0.015762,-0.039063 z m 2.685033,-0.018229 c 0.0015,-0.036405 0.0089,-0.043809 0.01888,-0.01888 0.00903,0.022559 0.00792,0.049512 -0.00247,0.059896 -0.010384,0.010384 -0.01777,-0.00807 -0.016413,-0.041016 z M 14.846217,8.169271 c 0.0015,-0.036405 0.0089,-0.043809 0.01888,-0.01888 0.009,0.022559 0.0079,0.049512 -0.0025,0.059896 -0.01038,0.010384 -0.01777,-0.00807 -0.01641,-0.041016 z M 1.1623422,7.859375 c 6.368e-4,-0.051563 0.00764,-0.068873 0.015564,-0.038468 0.00792,0.030405 0.0074,0.072593 -0.00116,0.09375 -0.00856,0.021157 -0.015043,-0.00372 -0.014406,-0.055282 z M 14.814967,7.7317709 c 0.0015,-0.036405 0.0089,-0.043809 0.01888,-0.01888 0.009,0.022559 0.0079,0.049512 -0.0025,0.059896 -0.01038,0.010384 -0.01777,-0.00807 -0.01641,-0.041016 z M 1.1935922,7.421875 c 6.368e-4,-0.051563 0.00764,-0.068873 0.015564,-0.038468 0.00792,0.030405 0.0074,0.072593 -0.00116,0.09375 -0.00856,0.021157 -0.015043,-0.00372 -0.014406,-0.055282 z m 0.027625,-0.4088541 c 0.0015,-0.036405 0.0089,-0.043809 0.01888,-0.01888 0.00903,0.022559 0.00792,0.049512 -0.00247,0.059896 -0.010384,0.010384 -0.01777,-0.00807 -0.016413,-0.041016 z M 1.609375,6.34375 c 0.031109,-0.034375 0.063593,-0.0625 0.072187,-0.0625 0.00859,0 -0.00983,0.028125 -0.040937,0.0625 -0.031109,0.034375 -0.063593,0.0625 -0.072187,0.0625 -0.00859,0 0.00983,-0.028125 0.040937,-0.0625 z M 12.429739,4.60157 c 0.0043,-0.8550822 0.01159,-1.9414137 0.01614,-2.41407 0.0046,-0.4726563 0.01156,0.2269531 0.01557,1.5546875 0.004,1.3277344 -0.0033,2.4140659 -0.01614,2.41407 -0.01289,4.1e-6 -0.0199,-0.6996053 -0.01557,-1.5546875 z M 3.54611,3.75 c 0,-1.3148437 0.00385,-1.8527344 0.00857,-1.1953125 0.00471,0.6574219 0.00471,1.7332031 0,2.390625 C 3.549965,5.6027344 3.54611,5.0648437 3.54611,3.75 Z M 1.890625,6.03125 c 0.031109,-0.034375 0.063593,-0.0625 0.072187,-0.0625 0.00859,0 -0.00983,0.028125 -0.040937,0.0625 -0.031109,0.034375 -0.063593,0.0625 -0.072187,0.0625 -0.00859,0 0.00983,-0.028125 0.040937,-0.0625 z m 0.28125,-0.3125 c 0.031109,-0.034375 0.063593,-0.0625 0.072187,-0.0625 0.00859,0 -0.00983,0.028125 -0.040937,0.0625 -0.031109,0.034375 -0.063593,0.0625 -0.072187,0.0625 -0.00859,0 0.00983,-0.028125 0.040937,-0.0625 z M 3.3567759,4.984375 c 3e-5,-0.3265625 0.00466,-0.4559103 0.010291,-0.2874394 0.00563,0.168471 0.00561,0.4356585 -6.25e-5,0.59375 -0.00566,0.1580916 -0.010266,0.020252 -0.010236,-0.3063106 z M 13.621014,5.5078125 c -0.03887,-0.049564 -0.03777,-0.05067 0.0118,-0.011799 0.03008,0.023589 0.05469,0.048198 0.05469,0.054687 0,0.02572 -0.02566,0.00917 -0.06649,-0.042888 z M 2.421875,5.4375 C 2.4529839,5.403125 2.485468,5.375 2.4940617,5.375 c 0.00859,0 -0.00983,0.028125 -0.040937,0.0625 C 2.4220161,5.471875 2.389532,5.5 2.3809383,5.5 c -0.00859,0 0.00983,-0.028125 0.040937,-0.0625 z M 5.1640625,5.2578794 c 0.2535156,-0.00525 0.6683594,-0.00525 0.921875,0 0.2535156,0.00525 0.046094,0.00955 -0.4609375,0.00955 -0.5070313,0 -0.7144531,-0.0043 -0.4609375,-0.00955 z M 2.703125,5.125 C 2.734234,5.090625 2.766718,5.0625 2.775312,5.0625 c 0.00859,0 -0.00983,0.028125 -0.040937,0.0625 -0.031109,0.034375 -0.063593,0.0625 -0.072187,0.0625 -0.00859,0 0.00983,-0.028125 0.040937,-0.0625 z M 13.089764,4.9140625 c -0.03887,-0.049564 -0.03777,-0.05067 0.0118,-0.011799 0.05205,0.040824 0.06861,0.066486 0.04289,0.066486 -0.0065,0 -0.0311,-0.024609 -0.05469,-0.054687 z M 2.984375,4.8125 C 3.0154839,4.778125 3.047968,4.75 3.0565617,4.75 c 0.00859,0 -0.00983,0.028125 -0.040937,0.0625 -0.031109,0.034375 -0.063593,0.0625 -0.072187,0.0625 -0.00859,0 0.00983,-0.028125 0.040937,-0.0625 z m 9.824139,-0.2109375 c -0.03887,-0.049564 -0.03777,-0.05067 0.0118,-0.011799 0.03008,0.023589 0.05469,0.048198 0.05469,0.054687 0,0.02572 -0.02566,0.00917 -0.06649,-0.042888 z M 3.234375,4.53125 c 0.031109,-0.034375 0.063593,-0.0625 0.072187,-0.0625 0.00859,0 -0.00983,0.028125 -0.040937,0.0625 -0.031109,0.034375 -0.063593,0.0625 -0.072187,0.0625 -0.00859,0 0.00983,-0.028125 0.040937,-0.0625 z m 4.0274428,-0.3125 c 0,-0.1976562 0.00507,-0.2785156 0.011276,-0.1796875 0.0062,0.098828 0.0062,0.2605469 0,0.359375 -0.0062,0.098828 -0.011276,0.017969 -0.011276,-0.1796875 z m 1.1053697,0.25783 c 0.5199219,-0.00481 1.3707031,-0.00481 1.8906255,0 0.519921,0.00481 0.09453,0.00875 -0.945313,0.00875 -1.0398437,0 -1.4652344,-0.00394 -0.9453125,-0.00875 z M 7.26193,3.109375 c 6.25e-5,-0.20625 0.00512,-0.2865583 0.011239,-0.1784629 0.00612,0.1080954 0.00607,0.2768454 -1.25e-4,0.3750001 -0.00618,0.098154 -0.011189,0.00971 -0.011127,-0.1965372 z M 8.3671875,2.85158 c 0.5199219,-0.00481 1.3707031,-0.00481 1.8906255,0 0.519921,0.00481 0.09453,0.00875 -0.945313,0.00875 -1.0398437,0 -1.4652344,-0.00394 -0.9453125,-0.00875 z"
         id="path4906"
         sodipodi:nodetypes="csscsssscsccccccccccccccsscscssssssscccccccccccccccsccccccccccccssssscccccsscccccssssccsccsssssccsscccccccscccccccccscccccccscsssscsssscssscsccccccccccscccccccccscccsccccscsccccscsccscscsccscsccsccccssccssscsssscscscscsscscsccssccscscscsssssscscccssss" />
      <path
         style="display:inline;fill:#cccccc;fill-opacity:1;stroke-width:1"
         d="m 6.6380259,13.390625 c 3e-5,-0.326562 0.00466,-0.45591 0.010291,-0.287439 0.00563,0.168471 0.00561,0.435658 -6.25e-5,0.59375 -0.00566,0.158091 -0.010266,0.02025 -0.010236,-0.306311 z m -0.00176,-1.046875 c 0,-0.163281 0.00527,-0.230078 0.011704,-0.148437 0.00644,0.08164 0.00644,0.215234 0,0.296875 -0.00644,0.08164 -0.011704,0.01484 -0.011704,-0.148438 z M 4.2636481,10.5625 c 0,-0.455469 0.00437,-0.6417969 0.00971,-0.414062 0.00534,0.227734 0.00534,0.60039 0,0.828125 -0.00534,0.227734 -0.00971,0.04141 -0.00971,-0.414063 z m -3.9198981,0 V 9.84375 H 0.875 L 1.5390625,9.828125 v 0.311283 0.311284 l -0.40625,0.02463 c -0.26842556,0.0089 -0.2734375,0.01046 -0.2734375,0.08715 0,0.07669 0.005012,0.07829 0.2734375,0.08715 l 0.40625,-0.0066 v 0.311284 0.311283 L 0.875,11.281184 H 0.34375 Z m 15.32594,0 c 0,-0.403906 0.0045,-0.5691406 0.0099,-0.367187 0.0054,0.201953 0.0054,0.532421 0,0.734375 -0.0054,0.201953 -0.0099,0.03672 -0.0099,-0.367188 z M 6.2317212,10.375 c 0,-0.317969 0.00464,-0.4480469 0.010312,-0.289062 0.00567,0.158984 0.00567,0.41914 0,0.578125 -0.00567,0.158984 -0.010312,0.02891 -0.010312,-0.289063 z m 0.4557091,-0.02194 c -0.00856,-0.330038 -0.00468,-0.5891647 0.00861,-0.5758366 0.01329,0.013328 0.02029,0.2833596 0.015555,0.6000696 l -0.00861,0.575836 z m 0.2000678,0.100069 c 3.13e-5,-0.257812 0.00488,-0.359123 0.010756,-0.225134 0.00587,0.133988 0.00584,0.344926 -9.38e-5,0.46875 -0.00592,0.123824 -0.01072,0.0142 -0.010676,-0.243616 z M 6.5234375,9.7293038 c 0.021484,-0.00867 0.056641,-0.00867 0.078125,0 0.021484,0.00867 0.00391,0.015762 -0.039063,0.015762 -0.042969,0 -0.060547,-0.00709 -0.039062,-0.015762 z M 0.3125,9.6673491 c 0.26153822,-0.023062 0.55556916,-0.024845 0.54215016,-0.00329 -0.008024,0.012891 -0.15789941,0.021073 -0.33305694,0.018184 C 0.34643569,9.6793575 0.25234375,9.6726534 0.3125,9.6673491 Z m 6.4647638,-0.034537 c -0.038871,-0.049564 -0.037766,-0.05067 0.011799,-0.011799 0.052055,0.040824 0.068609,0.066486 0.042889,0.066486 -0.00649,0 -0.031098,-0.024609 -0.054688,-0.054687 z M 3.15625,9.6444513 c 0,-0.00649 0.024609,-0.031099 0.054687,-0.054687 0.049564,-0.038871 0.05067,-0.037766 0.011799,0.011799 -0.040824,0.052055 -0.066486,0.068609 -0.066486,0.042889 z m 9.621014,-0.042889 c -0.03887,-0.049564 -0.03777,-0.05067 0.0118,-0.011799 0.05205,0.040824 0.06861,0.066486 0.04289,0.066486 -0.0065,0 -0.0311,-0.024609 -0.05469,-0.054687 z M 1.0373422,9.421875 c 6.368e-4,-0.051562 0.00764,-0.068873 0.015564,-0.038468 0.00792,0.030405 0.0074,0.072593 -0.00116,0.09375 -0.00856,0.021157 -0.015043,-0.00372 -0.014406,-0.055282 z M 14.939967,9.3567709 c 0.0015,-0.036405 0.0089,-0.043809 0.01888,-0.01888 0.009,0.022559 0.0079,0.049512 -0.0025,0.059896 -0.01038,0.010384 -0.01777,-0.00807 -0.01641,-0.041016 z M 1.0685922,8.984375 c 6.368e-4,-0.051562 0.00764,-0.068873 0.015564,-0.038468 0.00792,0.030405 0.0074,0.072593 -0.00116,0.09375 -0.00856,0.021157 -0.015043,-0.00372 -0.014406,-0.055282 z M 1.0986842,8.5625 c 0,-0.042969 0.00709,-0.060547 0.015762,-0.039063 0.00867,0.021484 0.00867,0.056641 0,0.078125 -0.00867,0.021484 -0.015762,0.00391 -0.015762,-0.039063 z m 2.528783,-0.049479 c 0.0015,-0.036405 0.0089,-0.043809 0.01888,-0.01888 0.00903,0.022559 0.00792,0.049512 -0.00247,0.059896 -0.010384,0.010384 -0.01777,-0.00807 -0.016413,-0.041016 z m 8.7187498,0 c 0.0015,-0.036405 0.0089,-0.043809 0.01888,-0.01888 0.009,0.022559 0.0079,0.049512 -0.0025,0.059896 -0.01038,0.010384 -0.01777,-0.00807 -0.01641,-0.041016 z m 2.53125,0 c 0.0015,-0.036405 0.0089,-0.043809 0.01888,-0.01888 0.009,0.022559 0.0079,0.049512 -0.0025,0.059896 -0.01038,0.010384 -0.01777,-0.00807 -0.01641,-0.041016 z M 1.1310922,8.140625 c 6.368e-4,-0.051562 0.00764,-0.068873 0.015564,-0.038468 0.00792,0.030405 0.0074,0.072593 -0.00116,0.09375 -0.00856,0.021157 -0.015043,-0.00372 -0.014406,-0.055282 z m 2.496375,-0.033854 c 0.0015,-0.036405 0.0089,-0.043809 0.01888,-0.01888 0.00903,0.022559 0.00792,0.049512 -0.00247,0.059896 -0.010384,0.010384 -0.01777,-0.00807 -0.016413,-0.041016 z m 8.7187498,0 c 0.0015,-0.036405 0.0089,-0.043809 0.01888,-0.01888 0.009,0.022559 0.0079,0.049512 -0.0025,0.059896 -0.01038,0.010384 -0.01777,-0.00807 -0.01641,-0.041016 z m 2.5,-0.03125 c 0.0015,-0.036405 0.0089,-0.043809 0.01888,-0.01888 0.009,0.022559 0.0079,0.049512 -0.0025,0.059896 -0.01038,0.010384 -0.01777,-0.00807 -0.01641,-0.041016 z M 1.1623422,7.703125 c 6.368e-4,-0.051563 0.00764,-0.068873 0.015564,-0.038468 0.00792,0.030405 0.0074,0.072593 -0.00116,0.09375 -0.00856,0.021157 -0.015043,-0.00372 -0.014406,-0.055282 z M 14.814967,7.6380209 c 0.0015,-0.036405 0.0089,-0.043809 0.01888,-0.01888 0.009,0.022559 0.0079,0.049512 -0.0025,0.059896 -0.01038,0.010384 -0.01777,-0.00807 -0.01641,-0.041016 z M 6.5859375,7.3828206 c 0.7777344,-0.00465 2.0503906,-0.00465 2.828125,0 0.7777345,0.00465 0.1414062,0.00846 -1.4140625,0.00846 -1.5554688,0 -2.1917969,-0.00381 -1.4140625,-0.00846 z m 6.6288265,-0.031258 c -0.03887,-0.049564 -0.03777,-0.05067 0.0118,-0.011799 0.05205,0.040824 0.06861,0.066486 0.04289,0.066486 -0.0065,0 -0.0311,-0.024609 -0.05469,-0.054687 z M 1.1935922,7.265625 c 6.368e-4,-0.051563 0.00764,-0.068873 0.015564,-0.038468 0.00792,0.030405 0.0074,0.072593 -0.00116,0.09375 -0.00856,0.021157 -0.015043,-0.00372 -0.014406,-0.055282 z M 14.783717,7.2317709 c 0.0015,-0.036405 0.0089,-0.043809 0.01888,-0.01888 0.009,0.022559 0.0079,0.049512 -0.0025,0.059896 -0.01038,0.010384 -0.01777,-0.00807 -0.01641,-0.041016 z M 2.625,7.2382013 c 0,-0.00649 0.024609,-0.031098 0.054687,-0.054687 0.049564,-0.038871 0.05067,-0.037766 0.011799,0.011799 C 2.6506621,7.2473672 2.625,7.2639212 2.625,7.2382013 Z m 1.625,-0.3125 c 0,-0.00649 0.024609,-0.031098 0.054687,-0.054687 0.049564,-0.038871 0.05067,-0.037766 0.011799,0.011799 C 4.2756622,6.9348672 4.25,6.9514212 4.25,6.9257013 Z m 7.433514,-0.042889 c -0.03887,-0.049564 -0.03777,-0.05067 0.0118,-0.011799 0.05205,0.040824 0.06861,0.066486 0.04289,0.066486 -0.0065,0 -0.0311,-0.024609 -0.05469,-0.054687 z M 3.4375,6.5507013 c 0,-0.00649 0.024609,-0.031098 0.054687,-0.054687 0.049564,-0.038871 0.05067,-0.037766 0.011799,0.011799 C 3.4631622,6.5598672 3.4375,6.5764212 3.4375,6.5507013 Z m -1.96875,-0.0625 c 0,-0.00649 0.024609,-0.031098 0.054687,-0.054687 0.049564,-0.038871 0.05067,-0.037766 0.011799,0.011799 C 1.494412,6.4973683 1.46875,6.5139223 1.46875,6.4882013 Z M 14.246014,6.1953125 c -0.03887,-0.049564 -0.03777,-0.05067 0.0118,-0.011799 0.05205,0.040824 0.06861,0.066486 0.04289,0.066486 -0.0065,0 -0.0311,-0.024609 -0.05469,-0.054687 z M 1.765625,6.15625 c 0.031109,-0.034375 0.063593,-0.0625 0.072187,-0.0625 0.00859,0 -0.00983,0.028125 -0.040937,0.0625 -0.031109,0.034375 -0.063593,0.0625 -0.072187,0.0625 -0.00859,0 0.00983,-0.028125 0.040937,-0.0625 z M 3.53125,6.1439684 c 0,-0.00676 0.021824,-0.020656 0.048498,-0.030892 0.02781,-0.010671 0.040354,-0.00543 0.029406,0.012282 -0.018352,0.029694 -0.077904,0.04392 -0.077904,0.018611 z M 13.964764,5.8828125 c -0.03887,-0.049564 -0.03777,-0.05067 0.0118,-0.011799 0.03008,0.023589 0.05469,0.048198 0.05469,0.054687 0,0.02572 -0.02566,0.00917 -0.06649,-0.042888 z M 2.046875,5.84375 c 0.031109,-0.034375 0.063593,-0.0625 0.072187,-0.0625 0.00859,0 -0.00983,0.028125 -0.040937,0.0625 -0.031109,0.034375 -0.063593,0.0625 -0.072187,0.0625 -0.00859,0 0.00983,-0.028125 0.040937,-0.0625 z M 4.2584072,5.790844 c 0.030405,-0.00792 0.072593,-0.0074 0.09375,0.00116 0.021157,0.00856 -0.00372,0.015043 -0.055282,0.014406 -0.051563,-6.375e-4 -0.068873,-0.00764 -0.038468,-0.015564 z m 7.4062498,0 c 0.03041,-0.00792 0.07259,-0.0074 0.09375,0.00116 0.02116,0.00856 -0.0037,0.015043 -0.05528,0.014406 -0.05156,-6.375e-4 -0.06887,-0.00764 -0.03847,-0.015564 z M 1.96875,5.6757013 c 0,-0.00649 0.024609,-0.031098 0.054687,-0.054687 0.049564,-0.038871 0.05067,-0.037766 0.011799,0.011799 -0.040824,0.052055 -0.066486,0.068609 -0.066486,0.042888 z m 11.996014,-0.042889 c -0.03887,-0.049564 -0.03777,-0.05067 0.0118,-0.011799 0.03008,0.023589 0.05469,0.048198 0.05469,0.054687 0,0.02572 -0.02566,0.00917 -0.06649,-0.042888 z m -0.25,-0.03125 c -0.03887,-0.049564 -0.03777,-0.05067 0.0118,-0.011799 0.03008,0.023589 0.05469,0.048198 0.05469,0.054687 0,0.02572 -0.02566,0.00917 -0.06649,-0.042888 z M 2.296875,5.5625 C 2.3279839,5.528125 2.360468,5.5 2.3690617,5.5 c 0.00859,0 -0.00983,0.028125 -0.040937,0.0625 -0.031109,0.034375 -0.063593,0.0625 -0.072187,0.0625 -0.00859,0 0.00983,-0.028125 0.040937,-0.0625 z M 13.433514,5.2890625 c -0.03887,-0.049564 -0.03777,-0.05067 0.0118,-0.011799 0.03008,0.023589 0.05469,0.048198 0.05469,0.054687 0,0.02572 -0.02566,0.00917 -0.06649,-0.042888 z M 2.578125,5.25 C 2.609234,5.215625 2.641718,5.1875 2.650312,5.1875 2.658902,5.1875 2.640482,5.215625 2.609375,5.25 2.578266,5.284375 2.545782,5.3125 2.537188,5.3125 2.528598,5.3125 2.547018,5.284375 2.578125,5.25 Z M 4.6378522,4.65625 c 0,-0.3007813 0.00469,-0.4238281 0.010416,-0.2734375 0.00573,0.1503906 0.00573,0.3964844 0,0.546875 -0.00573,0.1503906 -0.010416,0.027344 -0.010416,-0.2734375 z M 6.4190369,4.578125 c -3.13e-5,-0.2921875 0.00466,-0.415925 0.010438,-0.2749719 0.00578,0.1409528 0.00581,0.3800153 6.25e-5,0.53125 -0.00574,0.1512344 -0.010467,0.035909 -0.010503,-0.2562781 z m 7.0144771,0.4609375 c -0.03887,-0.049564 -0.03777,-0.05067 0.0118,-0.011799 0.03008,0.023589 0.05469,0.048198 0.05469,0.054687 0,0.02572 -0.02566,0.00917 -0.06649,-0.042888 z M 2.859375,4.9375 C 2.8904839,4.903125 2.922968,4.875 2.9315617,4.875 c 0.00859,0 -0.00983,0.028125 -0.040937,0.0625 C 2.8595161,4.971875 2.827032,5 2.8184383,5 2.8098445,5 2.8282661,4.971875 2.859375,4.9375 Z M 2.78125,4.7694513 c 0,-0.00649 0.024609,-0.031098 0.054687,-0.054687 0.049564,-0.038871 0.05067,-0.037766 0.011799,0.011799 -0.040824,0.052055 -0.066486,0.068609 -0.066486,0.042888 z m 10.121014,-0.074139 c -0.03887,-0.049564 -0.03777,-0.05067 0.0118,-0.011799 0.05205,0.040824 0.06861,0.066486 0.04289,0.066486 -0.0065,0 -0.0311,-0.024609 -0.05469,-0.054687 z M 3.109375,4.65625 c 0.031109,-0.034375 0.063593,-0.0625 0.072187,-0.0625 0.00859,0 -0.00983,0.028125 -0.040937,0.0625 -0.031109,0.034375 -0.063593,0.0625 -0.072187,0.0625 -0.00859,0 0.00983,-0.028125 0.040937,-0.0625 z M 11.35568,4.234375 c 6.3e-5,-0.20625 0.0051,-0.2865584 0.01124,-0.1784628 0.0061,0.1080953 0.0061,0.2768453 -1.25e-4,0.375 -0.0062,0.098154 -0.01119,0.00971 -0.01113,-0.1965372 z M 6.2772638,3.8203125 c -0.038871,-0.049564 -0.037766,-0.05067 0.011799,-0.011799 0.052055,0.040824 0.068609,0.066486 0.042889,0.066486 -0.00649,0 -0.031098,-0.024609 -0.054688,-0.054687 z M 5.3984375,3.6955466 c 0.1246094,-0.00593 0.3285156,-0.00593 0.453125,0 0.1246094,0.00593 0.022656,0.010785 -0.2265625,0.010785 -0.2492188,0 -0.3511719,-0.00485 -0.2265625,-0.010785 z M 11.35568,3.109375 c 6.3e-5,-0.20625 0.0051,-0.2865583 0.01124,-0.1784629 0.0061,0.1080954 0.0061,0.2768454 -1.25e-4,0.3750001 -0.0062,0.098154 -0.01119,0.00971 -0.01113,-0.1965372 z M 5.90625,3.4257013 c 0,-0.00649 0.024609,-0.031099 0.054687,-0.054687 0.049564,-0.038871 0.05067,-0.037766 0.011799,0.011799 C 5.931912,3.4348683 5.90625,3.4514223 5.90625,3.4257023 Z M 6.0439059,2.5859375 5.984375,2.515625 6.054687,2.575156 c 0.038672,0.032742 0.070312,0.064383 0.070312,0.070312 0,0.025008 -0.02515,0.00655 -0.081094,-0.059531 z M 5.5878906,2.5724027 c 0.022559,-0.00903 0.049512,-0.00792 0.059896,0.00247 0.010384,0.010384 -0.00807,0.01777 -0.041016,0.016413 -0.036405,-0.0015 -0.043809,-0.0089 -0.01888,-0.01888 z"
         id="path4904"
         sodipodi:nodetypes="cscccscsssssscccccccscccccccsssssssscsscccccccsssssscssssssssssscssccscccccccccsccscssscscccccccccccccccscccscccccccccccccccscccccccssssscssccscccccccssssssssscssssssssssscsscscscsscsscssccscsccssccssssssssscssccsscsscsscssccscscscssccccccsscsscssssssscsscscsccccccsssscssccccccsssssccssccccscc" />
      <path
         style="display:inline;fill:#000000;fill-opacity:1;stroke-width:1"
         d="m 0.51074922,14.764188 c -0.0104765,-0.0273 -0.005618,-0.06307 0.0107956,-0.07948 0.0175141,-0.01751 0.28066744,-0.02633 0.63696188,-0.02134 0.5834494,0.0082 0.6071183,0.01094 0.6071183,0.07101 0,0.06011 -0.023659,0.06282 -0.6179138,0.07098 -0.54076604,0.0074 -0.62029203,0.0023 -0.63696194,-0.04116 z m 1.77613978,-0.022 0.00999,-0.07031 H 8 13.703125 l 0.01,0.07031 0.01,0.07031 H 8 2.2769031 Z m 11.94261,0.022 c -0.01048,-0.0273 -0.0056,-0.06307 0.0108,-0.07948 0.01751,-0.01751 0.280667,-0.02633 0.636962,-0.02134 0.583449,0.0082 0.607118,0.01094 0.607118,0.07101 0,0.06011 -0.02366,0.06282 -0.617914,0.07098 -0.540766,0.0074 -0.620292,0.0023 -0.636962,-0.04116 z M 0.40625,12.796875 V 11.46875 H 0.3163264 c -0.049458,0 -0.10594106,-0.0193 -0.12551794,-0.04289 -0.0251523,-0.03031 -0.0331505,-0.289291 -0.0272639,-0.882813 L 0.171875,9.703125 0.515625,9.6875 0.859375,9.671875 0.96089156,8.2828663 C 1.0609755,6.9134594 1.0636814,6.8911887 1.1526323,6.7047412 1.2562105,6.4876337 1.2454326,6.5004678 2.460627,5.1472272 L 3.3743791,4.1296728 3.3825019,2.666399 3.390625,1.203125 H 8 12.609375 l 0.0081,1.4628682 0.0081,1.4628684 0.929377,1.0361909 c 1.229998,1.3713628 1.189416,1.3230153 1.292784,1.5401591 0.08901,0.1869862 0.09162,0.2085221 0.190109,1.5703125 l 0.09986,1.3807259 h 0.292555 c 0.449739,0 0.413446,-0.0791 0.413446,0.901099 0,0.899373 -0.0021,0.911401 -0.1625,0.911401 h -0.0875 V 12.796875 14.125 H 8 0.40625 Z M 3.875,12.71875 v -1.25 H 2.21875 0.5625 v 1.25 1.25 H 2.21875 3.875 Z M 6.46875,13.375 V 12.78125 H 5.25 4.03125 V 13.375 13.96875 H 5.25 6.46875 Z m 5.5,-1.87e-4 v -0.593926 l -2.6640625,0.008 -2.6640625,0.008 -0.0085,0.585938 -0.0085,0.585937 H 9.2961853 11.96875 Z M 15.4375,12.71875 v -1.25 H 13.78125 12.125 v 1.25 1.25 h 1.65625 1.65625 z M 6.4675462,11.898438 6.4663431,11.171875 6.3659844,11.10876 6.2656256,11.045644 6.2567675,10.42126 C 6.2518956,10.077848 6.2556144,9.76549 6.2650328,9.7271309 6.2864622,9.6398472 6.4317044,9.5625 6.5741759,9.5625 c 0.1262929,0 0.3008247,0.1285256 0.3008247,0.2215278 0,0.05791 0.042609,0.059722 1.4044057,0.059722 0.9733212,0 1.4108187,0.010377 1.4252984,0.033805 0.011491,0.018593 -0.1142419,0.2575462 -0.2794059,0.5310072 -0.1651641,0.273461 -0.3002982,0.510556 -0.3002982,0.526878 0,0.01632 0.1283838,0.242983 0.2852972,0.503692 0.1569131,0.260709 0.2869913,0.497073 0.2890625,0.525255 0.00343,0.04664 -0.1335869,0.05264 -1.5274847,0.06686 l -1.53125,0.01563 -0.00899,0.289063 -0.00899,0.289062 h 2.6730475 2.6730479 v -0.578125 c -10e-7,-0.549075 -0.003,-0.578125 -0.05994,-0.578125 -0.163558,0 -0.158806,0.02712 -0.158806,-0.90625 0,-0.7629602 0.006,-0.8706146 0.04943,-0.8872815 0.02719,-0.010433 0.190383,-0.018968 0.362657,-0.018968 h 0.313227 l -0.01498,-0.11719 C 12.452082,9.4746094 12.40745,9.3329734 12.361144,9.2243156 12.219014,8.8908088 12.178988,8.6308047 12.197421,8.1608025 L 12.213789,7.74348 11.728168,7.1764275 C 11.461076,6.8645487 11.21694,6.5683659 11.185643,6.5182437 11.005259,6.2293606 11.133123,5.8285091 11.451832,5.6837394 c 0.285908,-0.1298697 0.542805,-0.043375 0.803004,0.2703631 0.09187,0.1107744 0.177586,0.2015747 0.190477,0.2017778 C 12.458203,6.1560837 12.46875,5.0734375 12.46875,3.75 V 1.34375 H 8 3.53125 V 3.75 c 0,1.3234375 0.010547,2.4060838 0.023437,2.4058803 C 3.567578,6.1556928 3.653292,6.0648773 3.7451633,5.9541025 3.954402,5.7018106 4.1245992,5.6110044 4.3479948,5.6324697 4.5432207,5.6512287 4.7353186,5.7802441 4.8242254,5.9523125 4.9023714,6.1035544 4.9077924,6.3518931 4.8358414,6.484375 4.8078374,6.535938 4.5601289,6.8419438 4.2853776,7.1643888 l -0.499547,0.586264 0.017713,0.3982822 C 3.8242581,8.6146919 3.7705728,8.94958 3.6230291,9.2749806 3.5725506,9.3863084 3.53125,9.5176372 3.53125,9.5668225 V 9.65625 h 0.3099441 c 0.1704693,0 0.3321881,0.00854 0.359375,0.018968 C 4.2440025,9.6918853 4.25,9.7995397 4.25,10.5625 c 0,0.933367 0.00475,0.90625 -0.1588059,0.90625 -0.056932,0 -0.059944,0.02905 -0.059944,0.578125 V 12.625 H 5.25 6.46875 L 6.46755,11.898438 Z M 5.1043072,8.4511872 c -0.010371,-0.027026 -0.00566,-0.06233 0.010458,-0.078452 0.017944,-0.017944 1.1438191,-0.02622 2.9025872,-0.021337 2.8497806,0.00791 2.8732726,0.00849 2.8732726,0.070477 0,0.061991 -0.02349,0.062565 -2.8837304,0.070475 -2.5982288,0.00719 -2.8855978,0.00311 -2.9025874,-0.041163 z M 5.114745,7.5418284 C 5.1031978,7.5302812 5.09375,7.4950522 5.09375,7.4635416 c 0,-0.055145 0.1089675,-0.057292 2.9084234,-0.057292 h 2.9084236 l -0.01,0.070312 -0.01,0.070312 -2.8774425,0.00797 c -1.5825931,0.00439 -2.88689,-0.00148 -2.8984375,-0.013021 z M 5.132812,6.6043037 C 5.077198,6.5818627 5.08441,6.4790206 5.14318,6.4564684 c 0.064601,-0.02479 5.649037,-0.02479 5.713638,0 0.06394,0.024535 0.06394,0.1250278 0,0.1495632 -0.05911,0.022681 -5.6677098,0.020988 -5.7240064,-0.00173 z M 4.6623366,4.5839969 C 4.6716638,3.9318563 4.6736053,3.9145247 4.75,3.8014513 4.797699,3.7308513 4.89202,3.6542903 4.9921875,3.6048663 5.0824215,3.5603433 5.15625,3.5172373 5.15625,3.5090743 c 0,-0.00816 -0.028077,-0.050536 -0.062394,-0.094162 C 4.9018356,3.1707975 4.9671981,2.7453531 5.2262741,2.5530011 5.3379056,2.4701198 5.5037203,2.4061522 5.6062256,2.4064243 c 0.2347094,6.231e-4 0.5447828,0.2164413 0.6145085,0.4277122 0.056143,0.1701143 0.022757,0.4222776 -0.075583,0.5708791 -0.076882,0.1161772 -0.079449,0.1291213 -0.028835,0.145435 0.1748941,0.056372 0.2368297,0.092625 0.3199179,0.1872572 0.1423843,0.1621666 0.1617665,0.2798097 0.1513337,0.9185422 l -0.00944,0.578125 -0.9626634,0.00827 -0.9626635,0.00827 z m 1.7744772,0.00194 C 6.4359669,3.9601288 6.4002628,3.8478072 6.1697631,3.7458463 6.0410263,3.6889 5.9748263,3.6830534 5.5658088,3.6925072 5.0577647,3.70425 4.9890841,3.7264019 4.873625,3.9157603 4.8194969,4.0045331 4.8127206,4.0754984 4.8126169,4.5546875 L 4.8125,5.09375 H 5.625 6.4375 L 6.4368125,4.5859375 Z M 5.8445744,3.4683294 C 6.1703931,3.3021091 6.1702394,2.8340837 5.8442931,2.6432292 5.6440678,2.5259855 5.3383419,2.5965971 5.2215506,2.78706 4.9605925,3.21263 5.4012497,3.6944916 5.8445641,3.4683294 Z m 1.4577365,1.167315 C 7.2907275,4.6240609 7.28125,4.4356191 7.28125,4.216885 c 0,-0.3338209 0.00794,-0.400745 0.049431,-0.4166666 0.075222,-0.028866 3.929136,-0.021697 3.97498,0.00739 0.02995,0.019004 0.03782,0.1271459 0.03125,0.4292087 l -0.0088,0.4038041 -2.0023765,0.00804 C 8.2244416,4.6530875 7.3138947,4.6472278 7.3023109,4.6356444 Z M 11.1875,4.234375 V 3.96875 H 9.3125 7.4375 V 4.234375 4.5 h 1.875 1.875 z M 7.3193387,3.5361378 C 7.28939,3.5171337 7.2815162,3.4089919 7.2880887,3.1069289 L 7.296875,2.703125 H 9.3125 11.328125 l 0.0088,0.4038039 c 0.0066,0.302063 -0.0013,0.4102049 -0.03125,0.4292089 -0.02202,0.013973 -0.918942,0.025405 -1.993161,0.025405 -1.0742187,0 -1.9711413,-0.011432 -1.9931613,-0.025405 z M 11.1875,3.109375 V 2.84375 H 9.3125 7.4375 V 3.109375 3.375 h 1.875 1.875 z M 9.4667509,11.851563 C 9.4656509,11.838672 9.3558572,11.652344 9.2227634,11.4375 L 8.980775,11.046875 8.4311263,11.038355 c -0.4390829,-0.0068 -0.557356,-0.01781 -0.5879638,-0.05469 -0.030254,-0.03645 -0.030254,-0.05588 0,-0.09233 0.030602,-0.03687 0.1487675,-0.04788 0.5869934,-0.05469 L 8.9788344,10.828125 9.2216863,10.4375 C 9.3552547,10.222656 9.4654856,10.036328 9.4666441,10.023438 9.4678022,10.010547 8.8851563,10 8.171875,10 H 6.875 v 0.50142 c 0,0.490706 -0.00164,0.50306 -0.076705,0.578125 -0.042188,0.04219 -0.091406,0.07671 -0.109375,0.07671 -0.020833,0 -0.03267,0.130208 -0.03267,0.359375 V 11.875 H 8.0625 c 0.7734375,0 1.4053503,-0.01055 1.4042509,-0.02344 z M 4.09375,10.96875 v -0.3125 H 2.9882014 c -0.9445864,0 -1.1112127,-0.0068 -1.1444514,-0.04687 -0.031037,-0.0374 -0.031037,-0.05635 0,-0.09375 0.033239,-0.04005 0.199865,-0.04687 1.1444514,-0.04687 H 4.09375 v -0.3125 -0.3125 h -1.875 -1.875 v 0.71875 0.71875 h 1.875 1.875 z M 0.85505081,10.609375 c -0.0443871,-0.115671 0.008208,-0.140625 0.29639199,-0.140625 0.2093471,0 0.2880541,0.01163 0.3173072,0.04687 0.031037,0.0374 0.031037,0.05635 0,0.09375 -0.029253,0.03525 -0.1079601,0.04687 -0.3173072,0.04687 -0.21864271,0 -0.28226552,-0.01006 -0.29639199,-0.04687 z M 15.6875,10.5625 V 9.84375 H 13.796875 11.90625 v 0.3125 0.3125 h 1.105549 c 0.944586,0 1.111212,0.0068 1.144451,0.04687 0.03104,0.0374 0.03104,0.05635 0,0.09375 -0.03324,0.04005 -0.199865,0.04687 -1.144451,0.04687 H 11.90625 v 0.3125 0.3125 h 1.890625 1.890625 z m -1.15625,0.04687 c -0.03104,-0.0374 -0.03104,-0.05635 0,-0.09375 0.05243,-0.06317 0.493488,-0.06575 0.578785,-0.0034 0.05054,0.03695 0.05321,0.05105 0.01777,0.09375 -0.05804,0.06993 -0.539064,0.07266 -0.596557,0.0034 z m -7.85,0.353125 c 0.026437,-0.02644 0.0375,-0.206399 0.0375,-0.610045 V 9.77991 L 6.640625,9.7443141 c -0.058442,-0.026629 -0.097808,-0.026629 -0.15625,0 L 6.40625,9.77991 v 0.591816 c 0,0.444213 0.00974,0.595747 0.039063,0.607578 0.073441,0.02963 0.1983994,0.02073 0.2359375,-0.0168 z M 3.2902894,9.5078125 C 3.5451112,9.1579441 3.6348587,8.8577066 3.6382522,8.34375 3.6395584,8.1460938 3.6300456,7.9254453 3.6171153,7.8534203 L 3.5936056,7.7224653 4.1171153,7.1079262 C 4.4050456,6.7699297 4.6577047,6.4632344 4.67858,6.4263813 4.6994556,6.3895278 4.7170338,6.2909237 4.7176425,6.2072609 4.7186269,6.0721128 4.7055075,6.0419044 4.6000184,5.9364156 4.4485184,5.7849156 4.2997925,5.7518081 4.1341716,5.8327147 4.0505862,5.8735463 3.8185544,6.1210291 3.3474013,6.671875 2.9798783,7.1015625 2.6528623,7.4576269 2.6206991,7.4631294 2.4677374,7.4892975 2.5394971,7.363075 2.9495407,6.8847113 L 3.3730609,6.390625 3.3740297,5.3965931 C 3.3746766,4.7327359 3.3644781,4.4090637 3.3433244,4.4221375 3.3259031,4.4329044 2.8758144,4.9282169 2.3431273,5.5228322 1.6981261,6.2428184 1.3490759,6.6570497 1.2981784,6.7629128 1.2269912,6.9109772 1.2152217,7.01188 1.1265004,8.2347522 1.0741131,8.9568347 1.03125,9.5720691 1.03125,9.6019397 c 0,0.050528 0.074891,0.05431 1.0754635,0.05431 H 3.1821769 Z M 14.96875,9.5884578 c 0,-0.037286 -0.04274,-0.6525203 -0.09497,-1.3671875 C 14.785588,7.01462 14.773384,6.9106316 14.702804,6.7643494 14.659174,6.6739225 14.430077,6.3858134 14.164962,6.0879675 13.910952,5.8025966 13.471094,5.3084337 13.1875,4.9898278 12.903906,4.6712216 12.661328,4.4095778 12.648438,4.4083969 c -0.01289,-0.00118 -0.02306,0.4443375 -0.0226,0.9900406 l 8.38e-4,0.9921875 0.424066,0.4930081 c 0.412284,0.479311 0.484112,0.6060606 0.328395,0.5794963 -0.03225,-0.0055 -0.35927,-0.3615669 -0.726703,-0.7912544 -0.471153,-0.5509831 -0.702999,-0.7983188 -0.786605,-0.8391603 -0.165621,-0.080907 -0.314346,-0.047799 -0.465846,0.1037009 -0.10549,0.1054888 -0.118609,0.1356972 -0.117624,0.2708453 6.09e-4,0.083663 0.01819,0.1822669 0.03906,0.2191204 0.02088,0.036853 0.273534,0.3435484 0.561465,0.6815449 l 0.523509,0.6145391 -0.02351,0.130955 c -0.01293,0.072025 -0.02244,0.2926735 -0.02114,0.4903297 0.0034,0.5139566 0.09314,0.8141941 0.347963,1.1640625 L 12.817823,9.65625 h 1.075464 1.075463 z"
         id="path4902" />
    </g>
  </g>
</svg>
