<?xml version="1.0" encoding="UTF-8" standalone="no"?>
<!-- Created with Inkscape (http://www.inkscape.org/) -->

<svg
   width="16"
   height="16"
   viewBox="0 0 16 16"
   version="1.1"
   id="svg5"
   inkscape:version="1.1.1 (3bf5ae0d25, 2021-09-20)"
   sodipodi:docname="pagosORG.svg"
   xmlns:inkscape="http://www.inkscape.org/namespaces/inkscape"
   xmlns:sodipodi="http://sodipodi.sourceforge.net/DTD/sodipodi-0.dtd"
   xmlns="http://www.w3.org/2000/svg"
   xmlns:svg="http://www.w3.org/2000/svg">
  <sodipodi:namedview
     id="namedview7"
     pagecolor="#505050"
     bordercolor="#ffffff"
     borderopacity="1"
     inkscape:pageshadow="0"
     inkscape:pageopacity="0"
     inkscape:pagecheckerboard="1"
     inkscape:document-units="px"
     showgrid="false"
     inkscape:zoom="22.627417"
     inkscape:cx="8.0212425"
     inkscape:cy="11.159029"
     inkscape:window-width="1366"
     inkscape:window-height="715"
     inkscape:window-x="-8"
     inkscape:window-y="-8"
     inkscape:window-maximized="1"
     inkscape:current-layer="g1409" />
  <defs
     id="defs2">
    <inkscape:path-effect
       effect="powerstroke"
       id="path-effect13167"
       is_visible="true"
       lpeversion="1"
       offset_points="0,1"
       not_jump="false"
       sort_points="true"
       interpolator_type="CubicBezierJohan"
       interpolator_beta="0.2"
       start_linecap_type="zerowidth"
       linejoin_type="extrp_arc"
       miter_limit="4"
       scale_width="1"
       end_linecap_type="zerowidth" />
  </defs>
  <g
     inkscape:label="Capa 1"
     inkscape:groupmode="layer"
     id="layer1"
     style="display:inline">
    <g
       id="g1409"
       transform="translate(-1.7465602,-0.76521354)"
       style="display:inline;fill:#9900a6;fill-opacity:0;stroke:#000000;stroke-width:0.1;stroke-miterlimit:4;stroke-dasharray:none;stroke-opacity:1">
      <path
         style="display:inline;fill:#999999;fill-opacity:1;stroke:#000000;stroke-width:0.0999998;stroke-miterlimit:4;stroke-dasharray:none;stroke-opacity:1"
         d="m 2.923893,10.558022 c 0.038042,-0.0026 0.076585,-0.0032 0.1124877,0 0.2393608,0.02115 0.4308284,0.168634 0.5868896,0.445405 2.3469716,4.162297 2.3774884,4.256184 1.560148,4.669413 C 4.5491484,15.993515 4.3501376,15.869813 3.7455387,14.777135 2.9456566,13.331527 2.6065893,12.713725 2.3321128,12.207489 2.1902577,11.945859 2.0465766,11.700497 2.0142141,11.659299 1.8266322,11.420538 2.1444703,10.830508 2.5521964,10.655914 c 0.1351793,-0.05789 0.2575677,-0.09024 0.3716966,-0.09789 z"
         id="path925" />
      <path
         style="display:inline;fill:#999999;fill-opacity:1;stroke:#000000;stroke-width:0.0999998;stroke-miterlimit:4;stroke-dasharray:none;stroke-opacity:1"
         d="m 16.750036,8.6295628 c 0.778155,0 0.974766,0.5365338 0.420605,1.1502221 -0.156029,0.172798 -0.457964,0.6489211 -0.684704,1.0816991 -1.177185,2.246565 -1.844395,2.692658 -4.900529,3.284253 -1.401495,0.271201 -1.400043,0.272621 -2.9148843,0.293673 -0.8333011,0.01153 -1.8812413,0.02624 -2.327996,0.03425 C 5.5302467,14.48819 5.5273914,14.4887 4.9731187,13.484958 4.6682577,12.932888 4.306315,12.275539 4.1661426,12.02639 3.627963,11.069816 3.6312366,11.077512 3.7993365,10.944692 c 0.9330274,-0.73723 2.6608619,-1.0427801 3.5751358,-0.631398 0.4988603,0.224464 0.7660327,0.453366 0.7238304,0.621609 -0.018685,0.07453 -0.013376,0.134044 0.014671,0.137046 0.028047,0.0028 0.7577495,0.02589 1.6237278,0.04894 1.9098625,0.05104 2.1421485,0.132943 2.1421485,0.768446 0,0.590276 -0.340896,0.683674 -2.2790884,0.631399 -1.3577829,-0.03661 -1.5980337,-0.03113 -1.5748207,0.03915 0.060703,0.183766 3.2259051,0.240581 3.5555731,0.06363 0.25086,-0.134644 0.412463,-0.346807 0.46462,-0.602032 0.03931,-0.192286 0.0398,-0.194263 0.841209,-0.185993 0.801402,0.0083 0.802456,0.01192 0.978148,-0.210466 0.45905,-0.580839 0.93946,-1.236487 1.335175,-1.8207771 0.594586,-0.8779367 0.985193,-1.1746956 1.550367,-1.1746956 z"
         id="path923" />
      <path
         id="path1526"
         style="display:inline;fill:#b3b3b3;fill-opacity:1;stroke:#000000;stroke-width:0.0999998;stroke-miterlimit:4;stroke-dasharray:none;stroke-opacity:1"
         inkscape:label="path1526"
         d="m 13.031205,1.4524333 c -0.07988,0.00576 -0.159804,0.011448 -0.239646,0.019572 0.06303,0.031799 -0.381529,0.075691 -0.352134,0.019572 -0.05717,0.00107 -0.114376,0.00386 -0.171175,0.00488 -0.016,-0.00258 -0.03285,-0.00258 -0.04891,-0.00488 -0.0034,0.093447 -0.0067,0.1726595 -0.0098,0.323041 -0.0084,0.4101324 -0.0054,0.409655 -0.361915,0.5090345 -1.8696162,0.5211913 -2.4964698,2.5884209 -1.159108,3.8275486 0.321094,0.2975092 1.203154,0.8124973 1.393863,0.8124973 0.127687,0 0.140826,0.1321498 0.141833,1.3362164 9.66e-4,1.1629399 0.0051,1.1610439 -0.185849,1.1600104 C 11.68007,9.4579835 11.036946,9.2896639 10.610235,9.0830583 10.375839,8.9695718 10.166773,8.894265 10.145614,8.9166438 10.072622,8.9938685 9.7361989,10.07244 9.7690263,10.1256 c 0.1347736,0.218239 1.1428257,0.52433 1.8976107,0.577559 0.536451,0.03783 0.537714,0.03589 0.542873,0.303463 0.0028,0.147169 0.0093,0.305136 0.01467,0.347514 0.0071,0.05647 0.116668,0.07151 0.410823,0.05873 0.401044,-0.01759 0.398135,-0.01957 0.415714,-0.420932 0.01646,-0.376083 0.02631,-0.401354 0.156504,-0.401354 0.261906,0 1.080977,-0.461663 1.344955,-0.7586591 0.443129,-0.4985534 0.562435,-0.8309785 0.562435,-1.5956263 0,-1.1025532 -0.434813,-1.7208065 -1.589492,-2.2710775 -0.458822,-0.21865 -0.458114,-0.2213063 -0.45973,-1.3362157 -0.0019,-1.3156152 0.01062,-1.3244236 1.056402,-0.8320759 C 14.499185,3.974582 14.48564,3.9876961 14.71357,3.2976803 14.894164,2.7510006 14.892924,2.7484484 14.7527,2.6564924 14.539456,2.5166419 13.788713,2.2817919 13.407792,2.2355634 13.068528,2.1943914 13.067996,2.1954873 13.050768,1.7412126 c -0.0049,-0.130135 -0.0079,-0.2217699 -0.01956,-0.2887793 z m -0.895007,1.9088794 c 0.242672,-0.026782 0.244537,0.2549223 0.244537,1.1306442 0,1.2788963 0.01309,1.2624137 -0.626015,0.9446506 C 10.715755,4.920021 10.658279,4.0442811 11.632446,3.5619898 11.861487,3.4485978 12.025882,3.3734919 12.136193,3.3613127 Z m 0.811865,3.7932865 c 0.0089,-7.124e-4 0.02175,-0.00129 0.03424,0 0.174877,0.018018 0.653469,0.2482885 0.865662,0.4258271 0.445147,0.3724353 0.539671,0.9412965 0.210302,1.3460043 -0.265586,0.3268161 -1.15762,0.7260493 -1.168889,0.5237191 -0.02745,-0.498082 0.0025,-2.2672247 0.03913,-2.290656 0.0053,-0.00333 0.01062,-0.00418 0.01955,-0.00488 z" />
    </g>
  </g>
</svg>
