<?xml version="1.0" encoding="UTF-8" standalone="no"?>
<!-- Created with Inkscape (http://www.inkscape.org/) -->

<svg
   width="16"
   height="16"
   viewBox="0 0 16 16"
   version="1.1"
   id="svg5"
   inkscape:version="1.1.1 (3bf5ae0d25, 2021-09-20)"
   sodipodi:docname="refresh.svg"
   xmlns:inkscape="http://www.inkscape.org/namespaces/inkscape"
   xmlns:sodipodi="http://sodipodi.sourceforge.net/DTD/sodipodi-0.dtd"
   xmlns="http://www.w3.org/2000/svg"
   xmlns:svg="http://www.w3.org/2000/svg">
  <sodipodi:namedview
     id="namedview7"
     pagecolor="#505050"
     bordercolor="#ffffff"
     borderopacity="1"
     inkscape:pageshadow="0"
     inkscape:pageopacity="0"
     inkscape:pagecheckerboard="1"
     inkscape:document-units="px"
     showgrid="false"
     inkscape:zoom="23.422912"
     inkscape:cx="11.676601"
     inkscape:cy="9.0723135"
     inkscape:window-width="1152"
     inkscape:window-height="811"
     inkscape:window-x="-8"
     inkscape:window-y="-8"
     inkscape:window-maximized="1"
     inkscape:current-layer="layer1"
     inkscape:snap-bbox="true"
     inkscape:snap-bbox-midpoints="true" />
  <defs
     id="defs2" />
  <g
     inkscape:label="Capa 1"
     inkscape:groupmode="layer"
     id="layer1">
    <path
       id="path1139"
       style="fill:#999999;stroke:#000000;stroke-width:0.3;paint-order:stroke fill markers"
       d="m 8.0122931,2.0311637 a 5.9514814,5.9486626 0 0 0 -2.1496802,0.40675 L 5.8151665,4.1780016 A 4.4001473,4.3980633 0 0 1 8.0122931,3.5815563 4.4001473,4.3980633 0 0 1 12.36275,7.4228825 H 10.455775 L 12.9905,11.809582 15.523399,7.4228825 H 13.923002 A 5.9514814,5.9486626 0 0 0 8.0122931,2.0311637 Z M 2.977516,4.2017134 0.44279132,8.5884129 H 2.1034101 a 5.9514814,5.9486626 0 0 0 5.908883,5.3388241 5.9514814,5.9486626 0 0 0 2.3139169,-0.468766 l 0.04927,-1.778392 A 4.4001473,4.3980633 0 0 1 8.0122909,12.376844 4.4001473,4.3980633 0 0 1 3.6654844,8.5884129 h 1.8467542 z" />
  </g>
</svg>
